<svg width="23" height="23" viewBox="0 0 23 23" fill="none" xmlns="http://www.w3.org/2000/svg">
<rect x="0.733276" y="0.199951" width="21.8667" height="21.8667" fill="white"/>
<path d="M9.72389 12.3192C9.79028 11.1198 10.3703 10.0631 11.2454 9.31408C12.1035 8.57834 13.2586 8.12866 14.5189 8.12866C15.778 8.12866 16.933 8.57834 17.7918 9.31408C18.6662 10.0631 19.2463 11.1198 19.3133 12.3179C19.3797 13.5503 18.8905 14.6951 18.0323 15.5437C17.1573 16.407 15.9126 16.9486 14.5189 16.9486C13.1252 16.9486 11.878 16.407 11.0036 15.5437C10.1448 14.6951 9.65686 13.5503 9.72389 12.3192Z" fill="white"/>
<path d="M12.0548 12.4268C12.0888 11.8114 12.3865 11.2692 12.8355 10.8849C13.2758 10.5073 13.8685 10.2766 14.5151 10.2766C15.1611 10.2766 15.7538 10.5073 16.1945 10.8849C16.6431 11.2692 16.9408 11.8114 16.9752 12.4261C17.0092 13.0585 16.7582 13.6459 16.3179 14.0813C15.8689 14.5243 15.2303 14.8022 14.5151 14.8022C13.8 14.8022 13.1601 14.5243 12.7114 14.0813C12.2708 13.6459 12.0204 13.0585 12.0548 12.4268Z" fill="#325783"/>
<path d="M8.13686 13.6738C8.14104 13.9146 8.21689 14.3826 8.33067 14.7481C8.56979 15.5216 8.97541 16.2373 9.53979 16.868C10.119 17.5163 10.8322 18.037 11.6559 18.4067C12.5218 18.7949 13.46 18.9928 14.4345 18.9912C15.4074 18.9898 16.3455 18.7881 17.2114 18.3969C18.0352 18.0236 18.7477 17.5006 19.3259 16.852C19.89 16.2187 20.295 15.5018 20.5347 14.7282C20.6553 14.3374 20.7314 13.9406 20.762 13.5426C20.7919 13.1505 20.7793 12.7577 20.7244 12.3652C20.617 11.6004 20.3557 10.8828 19.9533 10.2287C19.5853 9.62759 19.1109 9.10135 18.5468 8.65843L18.5481 8.65746L12.8557 4.23179C12.8506 4.22788 12.8464 4.22366 12.8409 4.22008C12.4675 3.92979 11.8394 3.93077 11.4287 4.22171C11.0134 4.51591 10.9659 5.00243 11.3355 5.30932L11.3339 5.31095L13.7081 7.26588L6.47167 7.27368H6.46202C5.86389 7.27433 5.2889 7.67169 5.17512 8.17385C5.05813 8.68544 5.46438 9.10981 6.0863 9.11209L6.08534 9.11437L9.75321 9.10721L3.20812 14.1942C3.19976 14.2004 3.19076 14.2069 3.18305 14.213C2.56563 14.6918 2.36604 15.4878 2.75494 15.9916C3.14963 16.5038 3.98881 16.5048 4.61266 15.9945L8.18475 13.0343C8.18475 13.0343 8.13269 13.4339 8.13686 13.6738ZM17.3159 15.012C16.5798 15.7712 15.5494 16.2018 14.4345 16.2041C13.3179 16.206 12.2875 15.7794 11.5515 15.0214C11.1918 14.6521 10.9276 14.227 10.7647 13.7743C10.6049 13.3295 10.5429 12.8573 10.584 12.3808C10.6229 11.9151 10.7598 11.4709 10.9784 11.069C11.1931 10.6739 11.4888 10.3169 11.8539 10.0149C12.5694 9.42452 13.4802 9.10493 14.4329 9.10363C15.3865 9.10232 16.2967 9.41898 17.0128 10.0074C17.3773 10.3081 17.6726 10.6638 17.8873 11.0582C18.1068 11.4598 18.2428 11.9024 18.2833 12.3694C18.3238 12.8452 18.2618 13.3168 18.102 13.762C17.9387 14.216 17.6755 14.641 17.3159 15.012Z" fill="#DA8232"/>
</svg>
