<svg width="200" height="200" viewBox="0 0 200 200" fill="none" xmlns="http://www.w3.org/2000/svg">
<rect width="200" height="200" fill="#846642"/>
<circle cx="145.316" cy="145.316" r="38.6842" fill="#F0F0EF"/>
<rect x="173.431" y="116.362" width="1" height="80" transform="rotate(45 173.431 116.362)" fill="#846642"/>
<rect x="116.862" y="117.069" width="1" height="80" transform="rotate(-45 116.862 117.069)" fill="#846642"/>
<circle cx="54.6842" cy="145.316" r="38.6842" fill="#F0F0EF"/>
<path d="M93.3684 145.316C93.3684 166.68 76.0489 184 54.6842 184C33.3195 184 16 166.68 16 145.316C16 123.951 33.3195 106.631 54.6842 106.631C76.0489 106.631 93.3684 123.951 93.3684 145.316Z" fill="#F0F0EF"/>
<path d="M51.3683 106.631H57.9999V185.105H51.3683V106.631Z" fill="#846642"/>
<path d="M38.1054 106.631H44.7369V185.105H38.1054V106.631Z" fill="#846642"/>
<path d="M24.8419 108.842H31.4735V187.315H24.8419V108.842Z" fill="#846642"/>
<path d="M64.6317 107.737H71.2633V186.21H64.6317V107.737Z" fill="#846642"/>
<path d="M77.8946 107.737H84.5262V186.21H77.8946V107.737Z" fill="#846642"/>
<circle cx="54.6842" cy="54.6842" r="38.6842" fill="#F0F0EF"/>
<circle cx="145.316" cy="54.6842" r="38.6842" fill="#F0F0EF"/>
<path d="M168.526 51.3685H175.158V58.0001H168.526V51.3685Z" fill="#846642"/>
<path d="M155.263 51.3685H161.894V58.0001H155.263V51.3685Z" fill="#846642"/>
<path d="M142 51.3685H148.632V58.0001H142V51.3685Z" fill="#846642"/>
<path d="M115.474 51.3684H122.105V58H115.474V51.3684Z" fill="#846642"/>
<path d="M128.737 51.3685H135.369V58.0001H128.737V51.3685Z" fill="#846642"/>
<path d="M161.894 44.737H168.526L168.526 51.3685H161.894L161.894 44.737Z" fill="#846642"/>
<path d="M148.632 44.737H155.263L155.263 51.3685H148.632L148.632 44.737Z" fill="#846642"/>
<path d="M135.368 44.737H142L142 51.3685H135.369L135.368 44.737Z" fill="#846642"/>
<path d="M122.105 44.7372H128.737L128.737 51.3685L122.105 51.3684L122.105 44.7372Z" fill="#846642"/>
<path d="M161.894 58.0001H168.526L168.526 64.6317H161.894L161.894 58.0001Z" fill="#846642"/>
<path d="M148.632 58.0001H155.263L155.263 64.6317H148.632L148.632 58.0001Z" fill="#846642"/>
<path d="M135.369 58.0001H142L142 64.6317H135.368L135.369 58.0001Z" fill="#846642"/>
<path d="M122.105 58L128.737 58.0001L128.737 64.6317H122.105L122.105 58Z" fill="#846642"/>
<path d="M155.263 64.6317H161.894L161.894 71.2633H155.263L155.263 64.6317Z" fill="#846642"/>
<path d="M142 64.6317H148.632L148.631 71.2633H142L142 64.6317Z" fill="#846642"/>
<path d="M128.737 64.6317H135.368L135.369 71.2634H128.737L128.737 64.6317Z" fill="#846642"/>
<path d="M155.263 38.1054H161.894L161.894 44.737H155.263L155.263 38.1054Z" fill="#846642"/>
<path d="M142 38.1054H148.631L148.632 44.737H142L142 38.1054Z" fill="#846642"/>
<path d="M128.737 38.1055H135.369L135.368 44.737L128.737 44.7372L128.737 38.1055Z" fill="#846642"/>
<path d="M148.632 31.4738H155.263L155.263 38.1054H148.631L148.632 31.4738Z" fill="#846642"/>
<path d="M135.368 31.4738H142L142 38.1054L135.369 38.1055L135.368 31.4738Z" fill="#846642"/>
<path d="M148.631 71.2633H155.263L155.263 77.8948H148.632L148.631 71.2633Z" fill="#846642"/>
<path d="M135.369 71.2634L142 71.2633L142 77.8946H135.368L135.369 71.2634Z" fill="#846642"/>
<path d="M142 77.8946L148.632 77.8948L148.631 84.5263H142L142 77.8946Z" fill="#846642"/>
<path d="M142 24.842H148.631L148.632 31.4738L142 31.4738L142 24.842Z" fill="#846642"/>
</svg>
