<svg width="143" height="143" viewBox="0 0 143 143" fill="none" xmlns="http://www.w3.org/2000/svg">
<g clip-path="url(#clip0_2568_4196)">
<rect width="143" height="143" stroke="#846642"/>
<path d="M85.8 27.17H57.915M85.8 27.17L81.51 22.88M85.8 27.17L81.51 31.46M57.915 27.17L62.205 22.88M57.915 27.17L62.205 31.46" stroke="#846642"/>
<path d="M85.8 37.8951H57.915M85.8 37.8951L81.51 33.6051M85.8 37.8951L81.51 42.1851M57.915 37.8951L62.205 33.6051M57.915 37.8951L62.205 42.1851" stroke="#846642"/>
<path d="M85.8 48.6197H57.915M85.8 48.6197L81.51 44.3297M85.8 48.6197L81.51 52.9097M57.915 48.6197L62.205 44.3297M57.915 48.6197L62.205 52.9097" stroke="#846642"/>
<path d="M79.2812 58.8987L79.2813 58.8572L79.2812 58.8155L79.2811 58.8102C79.2559 55.9422 76.9231 53.625 74.0491 53.625C71.1805 53.625 68.8511 55.9335 68.8173 58.794C68.8169 58.8016 68.8167 58.8092 68.8167 58.8169V90.2509H67.7714V65.1726L67.7715 65.136C67.7715 62.2463 65.429 59.9038 62.5393 59.9038C59.6496 59.9038 57.3071 62.2463 57.3071 65.136L57.3064 100.119L49.0234 91.8356C48.9893 91.8005 48.9548 91.766 48.9197 91.7319L48.8267 91.6388C48.8062 91.6183 48.7842 91.6 48.7612 91.5839C47.8354 90.755 46.6127 90.2509 45.2722 90.2509C42.3825 90.2509 40.04 92.5934 40.04 95.4831C40.04 96.8208 40.5419 98.0412 41.3678 98.9663C41.3849 98.9917 41.4047 99.0158 41.4272 99.0383L58.2124 115.823L73.109 131.062H87.8402L102.304 116.222V90.2765L102.304 90.269C102.304 90.2634 102.304 90.2579 102.304 90.2522V72.9438C102.304 72.9368 102.304 72.9297 102.304 72.9227C102.271 70.0614 99.941 67.752 97.0718 67.752C94.1998 67.752 91.8682 70.066 91.8399 72.9313L91.8397 72.9438V72.951L91.8396 72.9843L91.8397 73.0175V90.2509H90.7937V64.5725C90.7937 64.565 90.7935 64.5575 90.7932 64.55C90.7593 61.6894 88.4299 59.3809 85.5613 59.3809C82.6885 59.3809 80.3564 61.6963 80.3293 64.5628L80.3292 64.5725V64.5742L80.3291 64.6132L80.3292 64.6521V90.2504L79.2812 90.2509V58.8987Z" fill="#846642"/>
</g>
<defs>
<clipPath id="clip0_2568_4196">
<rect width="143" height="143" fill="white"/>
</clipPath>
</defs>
</svg>
