<svg width="200" height="200" viewBox="0 0 200 200" fill="none" xmlns="http://www.w3.org/2000/svg">
<rect width="200" height="200" fill="#846642"/>
<rect x="16" y="16" width="168" height="75" fill="#F0F0EF"/>
<path d="M139.199 22.7197C138.877 22.7199 138.565 22.8346 138.319 23.0433C138.073 23.252 137.91 23.5412 137.858 23.8593L136.535 31.9582C134.944 32.4209 133.427 33.0452 131.998 33.8229L125.315 29.0496C125.053 28.8627 124.734 28.7746 124.413 28.8009C124.093 28.8271 123.792 28.9661 123.564 29.193L118.273 34.4789C118.047 34.7052 117.908 35.0039 117.88 35.3226C117.852 35.6413 117.938 35.9596 118.122 36.2214L122.823 42.9471C122.034 44.3849 121.395 45.9102 120.921 47.5158L112.857 48.8572C112.54 48.9106 112.252 49.0747 112.044 49.3203C111.837 49.5658 111.723 49.877 111.723 50.1986V57.6786C111.722 57.9983 111.834 58.308 112.039 58.5533C112.244 58.7986 112.529 58.9638 112.844 59.02L120.913 60.4491C121.385 62.0519 122.019 63.5783 122.81 65.0179L118.05 71.6771C117.863 71.9387 117.775 72.2581 117.801 72.5786C117.827 72.899 117.966 73.1998 118.193 73.4275L123.482 78.7188C123.708 78.9446 124.006 79.0838 124.324 79.112C124.642 79.1402 124.96 79.0555 125.222 78.8729L131.961 74.1554C133.394 74.9376 134.915 75.5665 136.511 76.0333L137.858 84.1429C137.91 84.4605 138.074 84.749 138.32 84.9572C138.565 85.1654 138.877 85.2797 139.199 85.2797H146.679C146.999 85.2802 147.309 85.1678 147.554 84.9623C147.8 84.7568 147.965 84.4713 148.02 84.1561L149.463 76.0147C151.052 75.5408 152.565 74.9025 153.992 74.1155L160.776 78.8755C161.038 79.0592 161.356 79.1447 161.674 79.117C161.993 79.0893 162.292 78.9502 162.518 78.7241L167.807 73.4302C168.035 73.2018 168.174 72.8998 168.2 72.5782C168.226 72.2565 168.136 71.9362 167.948 71.6744L163.11 64.9594C163.884 63.5401 164.507 62.0358 164.97 60.4571L173.154 59.0227C173.469 58.967 173.754 58.802 173.96 58.5567C174.165 58.3113 174.278 58.0013 174.277 57.6813V50.2013C174.277 49.8789 174.163 49.5671 173.954 49.3214C173.745 49.0757 173.456 48.9122 173.138 48.8599L164.967 47.5238C164.501 45.9469 163.876 44.4454 163.103 43.0268L167.873 36.2294C168.057 35.9675 168.142 35.6493 168.115 35.3306C168.087 35.0119 167.948 34.7132 167.722 34.4869L162.43 29.1983C162.202 28.9704 161.9 28.8311 161.578 28.8053C161.257 28.7795 160.936 28.8689 160.675 29.0575L153.978 33.8733C152.552 33.0895 151.037 32.4546 149.444 31.9847L148.02 23.846C147.965 23.5303 147.8 23.2442 147.555 23.0382C147.31 22.8322 146.999 22.7194 146.679 22.7197H139.199ZM140.357 25.4397H145.537L146.891 33.1721C146.936 33.4314 147.056 33.6721 147.235 33.8649C147.414 34.0578 147.645 34.1945 147.901 34.2585C149.89 34.7541 151.758 35.5398 153.463 36.5721C153.691 36.7102 153.954 36.7783 154.221 36.7679C154.487 36.7575 154.745 36.6691 154.961 36.5136L161.325 31.9396L164.988 35.6025L160.457 42.0599C160.306 42.2753 160.22 42.53 160.211 42.7931C160.201 43.0562 160.268 43.3164 160.404 43.5421C161.426 45.2433 162.201 47.0996 162.696 49.0777C162.761 49.3353 162.899 49.5684 163.094 49.7483C163.29 49.9281 163.534 50.0468 163.796 50.0897L171.557 51.3594V56.5391L163.78 57.9044C163.52 57.9504 163.28 58.0707 163.087 58.2509C162.895 58.431 162.759 58.6632 162.696 58.9191C162.207 60.8947 161.431 62.7509 160.409 64.4521C160.272 64.68 160.205 64.9432 160.215 65.209C160.226 65.4748 160.315 65.7316 160.47 65.9475L165.065 72.3252L161.403 75.9908L154.956 71.4672C154.739 71.3156 154.483 71.2303 154.219 71.2218C153.955 71.2133 153.694 71.282 153.468 71.4194C151.772 72.4516 149.902 73.241 147.919 73.7436C147.665 73.8077 147.435 73.9438 147.256 74.1356C147.078 74.3274 146.958 74.5667 146.913 74.8247L145.539 82.5597H140.352L139.071 74.8593C139.028 74.5973 138.909 74.3539 138.728 74.1589C138.548 73.964 138.314 73.8261 138.057 73.7622C136.067 73.2717 134.19 72.4872 132.473 71.4566C132.248 71.3216 131.988 71.2548 131.726 71.2642C131.463 71.2737 131.209 71.3589 130.994 71.5097L124.598 75.9908L120.932 72.3199L125.453 66.0007C125.607 65.7842 125.695 65.5271 125.705 65.2613C125.715 64.9955 125.647 64.7326 125.509 64.5052C124.467 62.7838 123.679 60.9075 123.182 58.9085C123.118 58.6539 122.982 58.4231 122.79 58.244C122.599 58.0649 122.359 57.9451 122.101 57.8991L114.443 56.5391V51.3514L122.095 50.0791C122.357 50.0357 122.6 49.9168 122.795 49.737C122.99 49.5572 123.128 49.3243 123.192 49.0671C123.694 47.0612 124.481 45.1852 125.519 43.4677C125.656 43.2422 125.724 42.9818 125.716 42.7182C125.707 42.4545 125.622 42.1991 125.471 41.9829L121.004 35.5972L124.672 31.9316L131.012 36.4632C131.228 36.617 131.484 36.7044 131.749 36.7148C132.013 36.7252 132.275 36.658 132.503 36.5216C134.21 35.496 136.091 34.7178 138.083 34.2293C138.342 34.1655 138.577 34.027 138.758 33.831C138.939 33.635 139.058 33.3902 139.101 33.1269L140.357 25.4397Z" fill="#846642"/>
<path d="M140.357 25.4397H145.537L146.891 33.1721C146.936 33.4314 147.056 33.6721 147.235 33.8649C147.414 34.0578 147.645 34.1945 147.901 34.2585C149.89 34.7541 151.758 35.5398 153.463 36.5721C153.691 36.7102 153.954 36.7783 154.221 36.7679C154.487 36.7575 154.745 36.6691 154.961 36.5136L161.325 31.9396L164.988 35.6025L160.457 42.0599C160.306 42.2753 160.22 42.53 160.211 42.7931C160.201 43.0562 160.268 43.3164 160.404 43.5421C161.426 45.2433 162.201 47.0996 162.696 49.0777C162.761 49.3353 162.899 49.5684 163.094 49.7483C163.29 49.9281 163.534 50.0468 163.796 50.0897L171.557 51.3594V56.5391L163.78 57.9044C163.52 57.9504 163.28 58.0707 163.087 58.2509C162.895 58.431 162.759 58.6632 162.696 58.9191C162.207 60.8947 161.431 62.7509 160.409 64.4521C160.272 64.68 160.205 64.9432 160.215 65.209C160.226 65.4748 160.315 65.7316 160.47 65.9475L165.065 72.3252L161.403 75.9908L154.956 71.4672C154.739 71.3156 154.483 71.2303 154.219 71.2218C153.955 71.2133 153.694 71.282 153.468 71.4194C151.772 72.4516 149.902 73.241 147.919 73.7436C147.665 73.8077 147.435 73.9438 147.256 74.1356C147.078 74.3274 146.958 74.5667 146.913 74.8247L145.539 82.5597H140.352L139.071 74.8593C139.028 74.5973 138.909 74.3539 138.728 74.1589C138.548 73.964 138.314 73.8261 138.057 73.7622C136.067 73.2717 134.19 72.4872 132.473 71.4566C132.248 71.3216 131.988 71.2548 131.726 71.2642C131.463 71.2737 131.209 71.3589 130.994 71.5097L124.598 75.9908L120.932 72.3199L125.453 66.0007C125.607 65.7842 125.695 65.5271 125.705 65.2613C125.715 64.9955 125.647 64.7326 125.509 64.5052C124.467 62.7838 123.679 60.9075 123.182 58.9085C123.118 58.6539 122.982 58.4231 122.79 58.244C122.599 58.0649 122.359 57.9451 122.101 57.8991L114.443 56.5391V51.3514L122.095 50.0791C122.357 50.0357 122.6 49.9168 122.795 49.737C122.99 49.5572 123.128 49.3243 123.192 49.0671C123.694 47.0612 124.481 45.1852 125.519 43.4677C125.656 43.2422 125.724 42.9818 125.716 42.7182C125.707 42.4545 125.622 42.1991 125.471 41.9829L121.004 35.5972L124.672 31.9316L131.012 36.4632C131.228 36.617 131.484 36.7044 131.749 36.7148C132.013 36.7252 132.275 36.658 132.503 36.5216C134.21 35.496 136.091 34.7178 138.083 34.2293C138.342 34.1655 138.577 34.027 138.758 33.831C138.939 33.635 139.058 33.3902 139.101 33.1269L140.357 25.4397Z" fill="#846642"/>
<circle cx="143" cy="54" r="14.6914" fill="#F0F0EF"/>
<path d="M23 35H84" stroke="#846642"/>
<path d="M23 54H84" stroke="#846642"/>
<path d="M23 73H84" stroke="#846642"/>
<circle cx="76" cy="35" r="5" fill="#846642"/>
<circle cx="54" cy="54" r="5" fill="#846642"/>
<circle cx="31" cy="73" r="5" fill="#846642"/>
<path d="M98.4396 124.865L98.476 124.901L123.211 149.139L124.061 148.272L113.83 138.246C113.793 138.209 113.76 138.17 113.734 138.127C111.315 135.39 111.532 131.053 114.311 128.217C117.09 125.381 121.422 125.075 124.208 127.438C124.251 127.464 124.291 127.496 124.328 127.532L134.56 137.558L135.26 136.844L129.313 131.017C129.276 130.981 129.244 130.941 129.217 130.899C126.798 128.161 127.016 123.824 129.795 120.988C132.42 118.309 136.431 117.888 139.216 119.842C139.314 119.872 139.397 119.92 139.464 119.986C139.496 120.017 139.524 120.052 139.548 120.091C139.596 120.13 139.644 120.169 139.692 120.21C139.734 120.236 139.775 120.267 139.812 120.303L145.758 126.13L146.458 125.416L143.601 122.616C140.84 119.91 140.951 115.319 143.85 112.36C146.75 109.402 151.338 109.197 154.099 111.903L184.21 141V169.76L170 184.051H137.714L106.63 184.063C106.586 184.063 106.542 184.059 106.5 184.051C104.767 183.971 103.057 183.278 101.721 181.968C98.8341 179.14 98.7871 174.506 101.616 171.62C102.928 170.281 104.628 169.553 106.363 169.439C106.401 169.432 106.441 169.428 106.482 169.428L106.666 169.426C106.734 169.424 106.802 169.424 106.871 169.424L122.931 169.565L112.863 159.7L112.968 159.593L88.196 135.319C85.3094 132.49 85.2625 127.857 88.0912 124.97C90.9198 122.084 95.5529 122.037 98.4396 124.865Z" fill="#F0F0EF"/>
</svg>
