<svg width="200" height="200" viewBox="0 0 200 200" fill="none" xmlns="http://www.w3.org/2000/svg">
<rect width="200" height="200" fill="#846642"/>
<rect x="41.5" y="28.5" width="117.882" height="71.0497" fill="#F0F0EF" stroke="#F0F0EF"/>
<rect x="45.1025" y="32.1025" width="110.677" height="63.8447" fill="#846642" stroke="#F0F0EF"/>
<rect x="40.5" y="100.45" width="119.882" height="73.0497" fill="#F0F0EF" stroke="#846642"/>
<rect x="51.8075" y="108.155" width="10.8075" height="10.8075" stroke="#846642"/>
<rect x="51.8075" y="118.963" width="10.8075" height="10.8075" stroke="#846642"/>
<rect x="51.8075" y="129.77" width="10.8075" height="10.8075" stroke="#846642"/>
<rect x="95.0373" y="108.155" width="10.8075" height="10.8075" stroke="#846642"/>
<rect x="95.0373" y="118.963" width="10.8075" height="10.8075" stroke="#846642"/>
<rect x="84.2298" y="129.77" width="32.4224" height="10.8075" stroke="#846642"/>
<rect x="84.2298" y="144.18" width="32.4224" height="21.6149" stroke="#846642"/>
<rect x="62.6149" y="108.155" width="10.8075" height="10.8075" stroke="#846642"/>
<rect x="62.6149" y="118.963" width="10.8075" height="10.8075" stroke="#846642"/>
<rect x="62.6149" y="129.77" width="10.8075" height="10.8075" stroke="#846642"/>
<rect x="105.845" y="108.155" width="10.8075" height="10.8075" stroke="#846642"/>
<rect x="105.845" y="118.963" width="10.8075" height="10.8075" stroke="#846642"/>
<rect x="73.4224" y="108.155" width="10.8075" height="10.8075" stroke="#846642"/>
<rect x="73.4224" y="118.963" width="10.8075" height="10.8075" stroke="#846642"/>
<rect x="73.4224" y="129.77" width="10.8075" height="10.8075" stroke="#846642"/>
<rect x="116.652" y="108.155" width="10.8075" height="10.8075" stroke="#846642"/>
<rect x="116.652" y="118.963" width="10.8075" height="10.8075" stroke="#846642"/>
<rect x="116.652" y="129.77" width="10.8075" height="10.8075" stroke="#846642"/>
<rect x="84.2298" y="108.155" width="10.8075" height="10.8075" stroke="#846642"/>
<rect x="84.2298" y="118.963" width="10.8075" height="10.8075" stroke="#846642"/>
<rect x="127.46" y="108.155" width="10.8075" height="10.8075" stroke="#846642"/>
<rect x="127.46" y="118.963" width="10.8075" height="10.8075" stroke="#846642"/>
<rect x="127.46" y="129.77" width="10.8075" height="10.8075" stroke="#846642"/>
<rect x="138.267" y="108.155" width="10.8075" height="10.8075" stroke="#846642"/>
<rect x="138.267" y="118.963" width="10.8075" height="21.6149" stroke="#846642"/>
<path fill-rule="evenodd" clip-rule="evenodd" d="M79.1714 73.8189C79.8675 73.4935 80.7085 73.4977 81.4031 73.8263C81.7967 74.0124 82.2148 74.1396 82.6535 74.2C85.4795 74.5891 88.2316 72.0809 89.3311 68.3765C87.1921 67.9682 85.5753 66.0878 85.5753 63.8297C85.5753 61.9413 86.7061 60.3169 88.3276 59.597C87.4825 58.3675 86.3252 57.5462 84.9722 57.36C84.1754 57.2503 83.3845 57.3709 82.6349 57.6836C81.205 58.2803 79.4176 58.2852 77.9891 57.6854C77.2224 57.3635 76.4121 57.2389 75.5953 57.3514C72.3013 57.8049 70.15 61.9424 70.7903 66.5926C71.4306 71.2428 74.62 74.645 77.914 74.1914C78.3549 74.1307 78.7754 74.004 79.1714 73.8189Z" fill="#F0F0EF"/>
<path d="M79.9177 57.1433C79.9177 54.3027 82.2204 52 85.061 52V52V52C85.061 54.8406 82.7583 57.1433 79.9177 57.1433V57.1433V57.1433Z" fill="#F0F0EF"/>
<rect x="112" y="65.45" width="8.55" height="8.55" fill="#F0F0EF"/>
<rect x="122.45" y="65.45" width="8.55" height="8.55" fill="#F0F0EF"/>
<rect x="112" y="55" width="8.55" height="8.55" fill="#F0F0EF"/>
<rect x="122.45" y="55" width="8.55" height="8.55" fill="#F0F0EF"/>
<rect x="62.5" y="47.5" width="34" height="34" stroke="#F0F0EF"/>
<rect x="104.5" y="47.5" width="34" height="34" stroke="#F0F0EF"/>
</svg>
