<svg width="23" height="23" viewBox="0 0 23 23" fill="none" xmlns="http://www.w3.org/2000/svg">
<rect x="0.733276" y="0.199951" width="21.8667" height="21.8667" fill="white"/>
<path d="M4.02305 14.6671C4.02305 14.7315 3.95994 14.7777 3.89683 14.7777H2.99502C2.92151 14.7777 2.8584 14.7315 2.8584 14.6671V7.59991C2.8584 7.55373 2.92151 7.49831 2.99502 7.49831H3.89719C3.9603 7.49831 4.02341 7.55373 4.02341 7.59991L4.02305 14.6671ZM6.38355 14.6671C6.38355 14.7315 6.32044 14.7777 6.25733 14.7777H5.35551C5.282 14.7777 5.21925 14.7315 5.21925 14.6671V7.59991C5.21925 7.55373 5.282 7.49831 5.35551 7.49831H6.25769C6.3208 7.49831 6.3839 7.55373 6.3839 7.59991L6.38355 14.6671ZM8.74404 14.6671C8.74404 14.7315 8.68129 14.7777 8.61782 14.7777H7.71565C7.64214 14.7777 7.57939 14.7315 7.57939 14.6671V7.59991C7.57939 7.55373 7.64214 7.49831 7.71565 7.49831H8.61782C8.68129 7.49831 8.74404 7.55373 8.74404 7.59991V14.6671ZM11.1149 14.6671C11.1149 14.7315 11.0518 14.7777 10.9891 14.7777H10.0869C10.0134 14.7777 9.95029 14.7315 9.95029 14.6671V7.59991C9.95029 7.55373 10.0134 7.49831 10.0869 7.49831H10.9891C11.0518 7.49831 11.1149 7.55373 11.1149 7.59991V14.6671ZM20.3995 7.48877C20.4727 7.48877 20.5254 7.5448 20.5254 7.59991V8.39665C20.5254 8.46161 20.473 8.51702 20.3995 8.51702H12.3947C12.3423 8.51702 12.2796 8.46161 12.2796 8.39665V7.59991C12.2796 7.54449 12.3427 7.48877 12.3947 7.48877H20.3995ZM20.3995 9.58222C20.4727 9.58222 20.5254 9.63794 20.5254 9.69335V10.4898C20.5254 10.5544 20.473 10.6102 20.3995 10.6102H12.3947C12.3423 10.6102 12.2796 10.5544 12.2796 10.4898V9.69335C12.2796 9.63763 12.3427 9.58222 12.3947 9.58222H20.3995ZM20.3995 11.6661C20.4727 11.6661 20.5254 11.7215 20.5254 11.7773V12.5734C20.5254 12.639 20.473 12.6944 20.3995 12.6944H12.3947C12.3423 12.6944 12.2796 12.639 12.2796 12.5734V11.7773C12.2796 11.7212 12.3427 11.6661 12.3947 11.6661H20.3995ZM20.3995 13.7494C20.4727 13.7494 20.5254 13.8054 20.5254 13.8605V14.6573C20.5254 14.7222 20.473 14.7777 20.3995 14.7777H12.3947C12.3423 14.7777 12.2796 14.7222 12.2796 14.6573V13.8605C12.2796 13.8051 12.3427 13.7494 12.3947 13.7494H20.3995Z" fill="#111111"/>
</svg>
