<svg width="24" height="24" viewBox="0 0 24 24" fill="none" xmlns="http://www.w3.org/2000/svg">
<path d="M14.3443 2.49826L14.3443 2.48648L14.3443 2.47462L14.3443 2.47312C14.337 1.65831 13.6626 1 12.8317 1C12.0024 1 11.329 1.65583 11.3192 2.46852C11.3191 2.47068 11.3191 2.47285 11.3191 2.47503V11.4055H11.0169V4.28069L11.0169 4.27028C11.0169 3.44932 10.3397 2.7838 9.50435 2.7838C8.66897 2.7838 7.99177 3.44932 7.99177 4.27028L7.99156 14.2089L5.59703 11.8557C5.58718 11.8457 5.57719 11.8359 5.56706 11.8262L5.54016 11.7998C5.53422 11.7939 5.52788 11.7887 5.52123 11.7842C5.25359 11.5487 4.90011 11.4055 4.51259 11.4055C3.67721 11.4055 3 12.071 3 12.8919C3 13.272 3.14511 13.6187 3.38386 13.8815C3.38881 13.8887 3.39454 13.8956 3.40104 13.902L8.25348 18.6707L12.4737 23H17.2105L20.9998 18.7838V11.4127L20.9999 11.4106L21 11.4058V6.4885C21 6.48649 20.9999 6.48251 20.9999 6.48251C20.9903 5.6696 20.3168 5.01351 19.4874 5.01351C18.6571 5.01351 17.9831 5.67092 17.9749 6.48495L17.9748 6.4885V6.49053L17.9748 6.49999L17.9748 6.50944V11.4055H17.6724V4.1102C17.6724 4.10805 17.6724 4.10592 17.6723 4.1038C17.6625 3.29111 16.9891 2.63527 16.1598 2.63527C15.3293 2.63527 14.6551 3.29307 14.6473 4.10744L14.6473 4.1102L14.6472 4.12175L14.6473 4.13281V11.4053L14.3443 11.4055V2.49826Z" fill="#F4492B"/>
</svg>
