<svg width="23" height="22" viewBox="0 0 23 22" fill="none" xmlns="http://www.w3.org/2000/svg">
<rect x="0.733276" y="0.0222168" width="21.8667" height="21.8667" fill="white"/>
<path d="M9.02725 19.1557C10.5627 19.1557 11.8089 17.9312 11.8089 16.4224V13.689H9.02725C7.49178 13.689 6.24561 14.9135 6.24561 16.4224C6.24561 17.9312 7.49178 19.1557 9.02725 19.1557Z" fill="#5ECB8A"/>
<path d="M6.24561 10.9558C6.24561 9.44697 7.49178 8.22241 9.02725 8.22241H11.8089V13.6892H9.02725C7.49178 13.6892 6.24561 12.4646 6.24561 10.9558Z" fill="#9862F7"/>
<path d="M6.24597 5.489C6.24597 3.98017 7.49215 2.75562 9.02761 2.75562H11.8093V8.22239H9.02761C7.49215 8.22239 6.24597 6.99783 6.24597 5.489Z" fill="#E15A33"/>
<path d="M11.8087 2.75562H14.5904C16.1258 2.75562 17.372 3.98017 17.372 5.489C17.372 6.99783 16.1258 8.22239 14.5904 8.22239H11.8087V2.75562Z" fill="#EE7A69"/>
<path d="M17.372 10.9558C17.372 12.4646 16.1258 13.6892 14.5904 13.6892C13.0549 13.6892 11.8087 12.4646 11.8087 10.9558C11.8087 9.44697 13.0549 8.22241 14.5904 8.22241C16.1258 8.22241 17.372 9.44697 17.372 10.9558Z" fill="#56BBF8"/>
</svg>
