<svg width="201" height="200" viewBox="0 0 201 200" fill="none" xmlns="http://www.w3.org/2000/svg">
<rect width="200" height="200" transform="translate(0.415039)" fill="#846642"/>
<path d="M61.415 113.682C63.9856 113.682 66.0694 111.598 66.0694 109.027C66.0694 106.457 63.9856 104.373 61.415 104.373H90.2719C87.7014 104.373 85.6176 106.457 85.6176 109.027C85.6176 111.598 87.7014 113.682 90.2719 113.682H61.415Z" fill="#F0F0EF"/>
<path d="M61.415 113.682H90.2719V146.262H61.415V113.682Z" fill="#F0F0EF"/>
<path d="M61.415 89.0137H89.8799V104.373L61.415 104.373V89.0137Z" fill="#F0F0EF"/>
<path d="M69.819 77.8105H81.476L89.8799 89.0609H61.415L69.819 77.8105Z" fill="#F0F0EF"/>
<path d="M81.4763 74.8285C81.4763 78.0475 78.8667 80.6571 75.6477 80.6571C72.4287 80.6571 69.8192 78.0475 69.8192 74.8285C69.8192 71.6095 72.4287 69 75.6477 69C78.8667 69 81.4763 71.6095 81.4763 74.8285Z" fill="#F0F0EF"/>
<path d="M69.8192 74.964H81.4763V77.9461H69.8192V74.964Z" fill="#F0F0EF"/>
<path d="M109.819 99.6479V142.444L112.344 144.968H137.083L139.607 142.444V99.6479L137.587 97.005L111.839 97.0049L109.819 99.6479Z" fill="#F0F0EF"/>
<path d="M109.819 95.9951H139.607V97.0049H109.819V95.9951Z" fill="#F0F0EF"/>
<path d="M109.819 144.968H139.607V145.978H109.819V144.968Z" fill="#F0F0EF"/>
<path d="M160.829 133L184.863 169.715H127.415M127.415 169.715L142.07 156.687M127.415 169.715L142.07 180.374" stroke="#F0F0EF"/>
<path d="M129.158 66.7821L100.623 20L75.6162 60.2682M129.158 66.7821L132.278 47.2402M129.158 66.7821L110.588 60.2682" stroke="#F0F0EF"/>
<path d="M65.0702 169.67H16.415L46.0185 122M46.0185 122L48.0702 143.022M46.0185 122L27.553 129.402" stroke="#F0F0EF"/>
</svg>
