<svg width="200" height="200" viewBox="0 0 200 200" fill="none" xmlns="http://www.w3.org/2000/svg">
<g clip-path="url(#clip0_3360_1487)">
<rect width="200" height="200" fill="#846642"/>
<path d="M107.497 83.0721L107.497 83.0141L107.497 82.9557L107.497 82.9483C107.462 78.9371 104.199 75.6963 100.179 75.6963C96.1674 75.6963 92.9094 78.9249 92.8621 82.9257C92.8616 82.9363 92.8613 82.947 92.8613 82.9577V126.921H91.3994V91.8468L91.3995 91.7956C91.3995 87.7541 88.1233 84.4778 84.0817 84.4778C80.0402 84.4778 76.7639 87.7541 76.7639 91.7956L76.763 140.722L65.1784 129.138C65.1307 129.089 65.0824 129.04 65.0334 128.993L64.9032 128.862C64.8745 128.834 64.8438 128.808 64.8117 128.786C63.5169 127.626 61.8067 126.921 59.9319 126.921C55.8904 126.921 52.6141 130.198 52.6141 134.239C52.6141 136.11 53.3162 137.817 54.4712 139.111C54.4952 139.146 54.5229 139.18 54.5543 139.211L78.0301 162.687L98.8645 184H119.468L139.696 163.244V126.957L139.696 126.947C139.697 126.939 139.697 126.931 139.697 126.923V102.716C139.697 102.706 139.697 102.696 139.696 102.686C139.65 98.6843 136.392 95.4544 132.379 95.4544C128.362 95.4544 125.101 98.6908 125.062 102.698L125.061 102.716V102.726L125.061 102.772L125.061 102.819V126.921H123.598V91.0075C123.598 90.9969 123.598 90.9864 123.598 90.976C123.55 86.9752 120.292 83.7466 116.28 83.7466C112.262 83.7466 109.001 86.9848 108.963 90.9939L108.963 91.0075V91.0099L108.963 91.0643L108.963 91.1188V126.921L107.497 126.921V83.0721Z" fill="#F0F0EF"/>
<path d="M103.965 84.8352C103.965 82.6721 102.212 80.9186 100.049 80.9186C97.8856 80.9186 96.1321 82.6721 96.1321 84.8352C96.1321 86.9983 97.8856 88.7518 100.049 88.7518C102.212 88.7518 103.965 86.9983 103.965 84.8352Z" fill="#846642"/>
<path d="M88.2989 93.5389C88.2989 91.3758 86.5454 89.6223 84.3823 89.6223C82.2192 89.6223 80.4657 91.3758 80.4657 93.5389C80.4657 95.702 82.2192 97.4555 84.3823 97.4555C86.5454 97.4555 88.2989 95.702 88.2989 93.5389Z" fill="#846642"/>
<path d="M136.168 104.853C136.168 102.69 134.415 100.937 132.252 100.937C130.089 100.937 128.335 102.69 128.335 104.853C128.335 107.017 130.089 108.77 132.252 108.77C134.415 108.77 136.168 107.017 136.168 104.853Z" fill="#846642"/>
<path d="M120.067 92.6686C120.067 90.5056 118.313 88.752 116.15 88.752C113.987 88.752 112.234 90.5056 112.234 92.6686C112.234 94.8317 113.987 96.5853 116.15 96.5853C118.313 96.5853 120.067 94.8317 120.067 92.6686Z" fill="#846642"/>
<path d="M103.965 103.983C103.965 101.82 102.212 100.067 100.049 100.067C97.8856 100.067 96.1321 101.82 96.1321 103.983C96.1321 106.146 97.8856 107.9 100.049 107.9C102.212 107.9 103.965 106.146 103.965 103.983Z" fill="#846642"/>
<path d="M88.2989 112.687C88.2989 110.524 86.5454 108.77 84.3823 108.77C82.2192 108.77 80.4657 110.524 80.4657 112.687C80.4657 114.85 82.2192 116.603 84.3823 116.603C86.5454 116.603 88.2989 114.85 88.2989 112.687Z" fill="#846642"/>
<path d="M136.168 124.001C136.168 121.838 134.415 120.084 132.252 120.084C130.089 120.084 128.335 121.838 128.335 124.001C128.335 126.164 130.089 127.917 132.252 127.917C134.415 127.917 136.168 126.164 136.168 124.001Z" fill="#846642"/>
<path d="M120.067 111.84C120.067 109.677 118.313 107.924 116.15 107.924C113.987 107.924 112.234 109.677 112.234 111.84C112.234 114.003 113.987 115.757 116.15 115.757C118.313 115.757 120.067 114.003 120.067 111.84Z" fill="#846642"/>
<path d="M103.965 132.705C103.965 130.541 102.212 128.788 100.049 128.788C97.8856 128.788 96.1321 130.541 96.1321 132.705C96.1321 134.868 97.8856 136.621 100.049 136.621C102.212 136.621 103.965 134.868 103.965 132.705Z" fill="#846642"/>
<path d="M120.502 135.316C120.502 133.153 118.748 131.399 116.585 131.399C114.422 131.399 112.669 133.153 112.669 135.316C112.669 137.479 114.422 139.232 116.585 139.232C118.748 139.232 120.502 137.479 120.502 135.316Z" fill="#846642"/>
<path d="M88.2989 135.316C88.2989 133.153 86.5454 131.399 84.3823 131.399C82.2192 131.399 80.4657 133.153 80.4657 135.316C80.4657 137.479 82.2192 139.232 84.3823 139.232C86.5454 139.232 88.2989 137.479 88.2989 135.316Z" fill="#846642"/>
<path d="M64.7991 135.316C64.7991 133.153 63.0456 131.399 60.8825 131.399C58.7194 131.399 56.9659 133.153 56.9659 135.316C56.9659 137.479 58.7194 139.232 60.8825 139.232C63.0456 139.232 64.7991 137.479 64.7991 135.316Z" fill="#846642"/>
<path d="M76.1136 147.501C76.1136 145.338 74.3601 143.585 72.197 143.585C70.034 143.585 68.2804 145.338 68.2804 147.501C68.2804 149.664 70.034 151.418 72.197 151.418C74.3601 151.418 76.1136 149.664 76.1136 147.501Z" fill="#846642"/>
<path d="M135.298 138.797C135.298 136.634 133.544 134.881 131.381 134.881C129.218 134.881 127.465 136.634 127.465 138.797C127.465 140.961 129.218 142.714 131.381 142.714C133.544 142.714 135.298 140.961 135.298 138.797Z" fill="#846642"/>
<path d="M116.645 35.8227C116.645 45.1137 109.114 52.6455 99.8227 52.6455C90.5318 52.6455 83 45.1137 83 35.8227C83 26.5318 90.5318 19 99.8227 19C109.114 19 116.645 26.5318 116.645 35.8227Z" fill="#F0F0EF"/>
<path d="M139 109.592C165.309 95.6393 183.23 67.9699 183.23 36.115C183.23 -9.78815 146.018 -47 100.115 -47C54.2119 -47 17 -9.78815 17 36.115C17 74.3605 42.8319 106.573 78 116.256V117.293C42.2731 107.583 16 74.917 16 36.115C16 -10.3404 53.6596 -48 100.115 -48C146.57 -48 184.23 -10.3404 184.23 36.115C184.23 68.5417 165.881 96.6828 139 110.722V109.592Z" fill="#F0F0EF"/>
</g>
<defs>
<clipPath id="clip0_3360_1487">
<rect width="200" height="200" fill="white"/>
</clipPath>
</defs>
</svg>
