<svg width="608" height="284" viewBox="0 0 608 284" fill="none" xmlns="http://www.w3.org/2000/svg">
<path d="M142.314 180.286C113.071 190.697 94.4994 249.926 76.8574 235.679C55.7632 218.645 108.859 140.471 97.9867 123.888C92.5187 115.542 76.1152 148.171 62.6831 172.271C45.8037 202.556 18.6494 250.095 2.71438 234.867C-18.0485 215.019 87.5756 41.0938 73.23 26.5875C66.8276 20.1134 53.7628 42.8499 37.932 71.9907L30.0089 72.0768C48.5916 34.947 72.8016 -11.6558 88.739 2.64625C112.372 23.2521 6.01838 205.449 22.7536 212.997C29.9164 215.464 43.3079 189.55 53.817 170.411C63.5785 152.634 95.8706 85.671 111.808 103.485C130.231 124.091 78.8723 205.462 95.6047 212.997C101.682 215.637 113.732 187.208 142.38 170.485L142.314 180.286Z" fill="#D6D2C7"/>
<path d="M502.041 269.561C503.874 269.602 505.687 269.622 507.48 269.622C509.273 269.622 511.046 269.622 512.798 269.622C517.117 269.622 520.825 268.85 523.922 267.307C527.018 265.763 529.626 263.55 531.745 260.666C533.905 257.823 535.799 254.228 537.429 249.883L545.253 229.107L544.764 244.643L492.934 108.112H511.331L539.63 186.156C542.115 193.264 544.499 200.108 546.781 206.687C549.063 213.267 551.324 219.949 553.565 226.731L548.614 226.914C551.018 219.197 553.361 211.805 555.643 204.738C557.925 197.671 560.023 191.416 561.939 185.973L589.259 108.112H607.412L554.237 252.319C551.385 260.037 548.125 266.17 544.458 270.719C540.832 275.308 536.492 278.659 531.439 280.771C526.428 282.924 520.336 284 513.164 284C511.372 284 509.497 283.959 507.541 283.878C505.626 283.797 503.793 283.695 502.041 283.573V269.561Z" fill="#D6D2C7"/>
<path d="M426.266 236.784C415.183 236.784 405.486 234.062 397.173 228.62C388.861 223.177 382.443 215.501 377.92 205.591C373.397 195.64 371.136 184.105 371.136 170.986C371.136 157.867 373.397 146.352 377.92 136.442C382.443 126.491 388.861 118.794 397.173 113.352C405.486 107.909 415.183 105.188 426.266 105.188C436.942 105.188 446.192 107.909 454.015 113.352C461.839 118.754 467.828 126.389 471.985 136.259C476.182 146.088 478.321 157.501 478.402 170.498V170.986C478.402 184.064 476.324 195.579 472.168 205.53C468.053 215.44 462.063 223.137 454.199 228.62C446.375 234.062 437.064 236.784 426.266 236.784ZM429.078 222.101C437.35 222.101 444.521 220.03 450.592 215.887C456.704 211.744 461.39 205.814 464.65 198.097C467.951 190.38 469.601 181.343 469.601 170.986C469.601 160.629 467.951 151.592 464.65 143.875C461.39 136.158 456.704 130.228 450.592 126.085C444.521 121.942 437.35 119.871 429.078 119.871C420.929 119.871 413.818 122.003 407.747 126.268C401.676 130.492 396.99 136.523 393.689 144.362C390.389 152.16 388.739 161.258 388.739 171.656C388.739 182.054 390.368 191.05 393.628 198.645C396.929 206.2 401.615 212.008 407.686 216.07C413.757 220.091 420.888 222.101 429.078 222.101ZM469.723 233.859V199.376H471.129V142.23H468.99V60.3479H485.92V233.859H469.723Z" fill="#D6D2C7"/>
<path d="M253.141 233.859V108.112H269.338V143.753L270.071 144.057V233.859H253.141ZM338.648 152.891C338.648 145.581 337.406 139.508 334.92 134.675C332.435 129.801 328.849 126.186 324.163 123.831C319.477 121.434 313.752 120.236 306.988 120.236C300.591 120.236 294.601 121.8 289.019 124.927C283.436 128.014 278.893 132.787 275.389 139.244C271.925 145.702 270.153 153.765 270.071 163.431H258.275V143.448H264.57C266.363 136.016 269.379 129.436 273.616 123.709C277.854 117.941 283.171 113.413 289.569 110.123C295.966 106.833 303.117 105.188 311.022 105.188C320.312 105.188 328.278 106.955 334.92 110.488C341.603 114.022 346.696 119.221 350.2 126.085C353.745 132.908 355.518 141.174 355.518 150.881V233.859H338.648V152.891Z" fill="#D6D2C7"/>
<path d="M234.515 234.53C229.421 234.53 225.306 233.758 222.168 232.214C219.072 230.63 216.79 228.254 215.323 225.086C213.856 221.878 213.122 217.755 213.122 212.719L212.633 203.032V157.948V152.099V140.768C212.633 136.097 211.635 132.177 209.639 129.009C207.642 125.801 204.362 123.364 199.798 121.698C195.275 120.033 189.306 119.2 181.89 119.2C173.903 119.2 167.445 120.094 162.515 121.881C157.584 123.668 153.897 126.532 151.452 130.471C149.007 134.411 147.601 139.651 147.235 146.19H130.549C130.915 137.539 132.871 130.187 136.416 124.135C139.961 118.084 145.462 113.413 152.919 110.123C160.416 106.833 170.073 105.188 181.89 105.188C192.851 105.188 201.836 106.67 208.844 109.635C215.893 112.56 221.027 116.662 224.246 121.942C227.506 127.222 229.136 133.436 229.136 140.585V211.866C229.136 213.856 229.442 215.501 230.053 216.801C230.664 218.1 231.601 219.075 232.864 219.725C234.128 220.375 235.778 220.7 237.815 220.7C238.793 220.7 239.812 220.7 240.871 220.7C241.971 220.659 243.071 220.619 244.172 220.578V233.859C242.786 234.063 241.238 234.225 239.526 234.347C237.856 234.469 236.185 234.53 234.515 234.53ZM168.26 236.784C159.336 236.784 151.635 235.322 145.156 232.397C138.678 229.473 133.727 225.289 130.304 219.847C126.881 214.364 125.17 207.885 125.17 200.412C125.17 193.467 126.698 187.395 129.754 182.196C132.81 176.997 137.72 172.692 144.484 169.28C151.248 165.828 160.029 163.492 170.827 162.274L190.202 160.08C195.744 159.39 200.145 158.293 203.404 156.791C206.664 155.247 209.007 153.196 210.433 150.637C211.9 148.078 212.633 144.789 212.633 140.768L219.173 142.23C219.173 149.175 218.44 154.658 216.973 158.679C215.506 162.7 212.878 165.807 209.089 168.001C205.299 170.194 199.819 171.737 192.647 172.631L173.578 175.068C166.121 176.002 160.111 177.525 155.547 179.637C151.024 181.709 147.724 184.409 145.645 187.74C143.608 191.07 142.589 195.132 142.589 199.925C142.589 204.596 143.608 208.678 145.645 212.17C147.683 215.623 150.759 218.324 154.875 220.273C158.99 222.182 164.083 223.137 170.155 223.137C177.856 223.137 184.905 221.695 191.302 218.811C197.74 215.927 202.895 211.48 206.766 205.469C210.678 199.458 212.633 191.984 212.633 183.049H219.296V196.391C217.544 205.083 214.386 212.455 209.822 218.507C205.299 224.518 199.533 229.067 192.525 232.154C185.516 235.24 177.428 236.784 168.26 236.784Z" fill="#D6D2C7"/>
</svg>
