<svg width="143" height="143" viewBox="0 0 143 143" fill="none" xmlns="http://www.w3.org/2000/svg">
<path d="M85.8 27.17H57.915M85.8 27.17L81.51 22.88M85.8 27.17L81.51 31.46M57.915 27.17L62.205 22.88M57.915 27.17L62.205 31.46" stroke="#846642"/>
<path d="M85.8 37.8951H57.915M85.8 37.8951L81.51 33.6051M85.8 37.8951L81.51 42.1851M57.915 37.8951L62.205 33.6051M57.915 37.8951L62.205 42.1851" stroke="#846642"/>
<path d="M85.8 48.6197H57.915M85.8 48.6197L81.51 44.3297M85.8 48.6197L81.51 52.9097M57.915 48.6197L62.205 44.3297M57.915 48.6197L62.205 52.9097" stroke="#846642"/>
<path d="M79.2812 58.8987L79.2814 58.8572L79.2812 58.8155L79.2812 58.8102C79.2559 55.9422 76.9232 53.625 74.0492 53.625C71.1806 53.625 68.8512 55.9335 68.8173 58.794C68.817 58.8016 68.8168 58.8092 68.8168 58.8169V90.2509H67.7715V65.1726L67.7716 65.136C67.7716 62.2463 65.4291 59.9038 62.5394 59.9038C59.6497 59.9038 57.3072 62.2463 57.3072 65.136L57.3065 100.119L49.0235 91.8356C48.9894 91.8005 48.9548 91.766 48.9198 91.7319L48.8268 91.6388C48.8062 91.6183 48.7843 91.6 48.7613 91.5839C47.8355 90.755 46.6127 90.2509 45.2723 90.2509C42.3826 90.2509 40.04 92.5934 40.04 95.4831C40.04 96.8208 40.542 98.0412 41.3679 98.9663C41.385 98.9917 41.4048 99.0158 41.4273 99.0383L58.2124 115.823L73.109 131.062H87.8402L102.304 116.222V90.2765L102.304 90.269C102.304 90.2634 102.304 90.2579 102.304 90.2522V72.9438C102.304 72.9368 102.304 72.9297 102.304 72.9227C102.271 70.0614 99.941 67.752 97.0719 67.752C94.1999 67.752 91.8683 70.066 91.8399 72.9313L91.8398 72.9438V72.951L91.8397 72.9843L91.8398 73.0175V90.2509H90.7938V64.5725C90.7938 64.565 90.7936 64.5575 90.7932 64.55C90.7594 61.6894 88.43 59.3809 85.5614 59.3809C82.6885 59.3809 80.3564 61.6963 80.3294 64.5628L80.3293 64.5725V64.5742L80.3292 64.6132L80.3293 64.6521V90.2504L79.2812 90.2509V58.8987Z" fill="#846642"/>
</svg>
