<svg width="504" height="872" viewBox="0 0 504 872" fill="none" xmlns="http://www.w3.org/2000/svg">
<path d="M425.482 796.5C329.824 851.729 174.73 851.729 79.0719 796.5C31.2628 768.897 7.54366 728.025 7.75857 687.126C7.97348 646.227 32.1222 605.354 79.933 577.75C175.592 522.522 330.685 522.522 426.343 577.75C474.152 605.353 497.871 646.225 497.657 687.124C497.442 728.023 473.293 768.896 425.482 796.5Z" stroke="#846642"/>
<circle cx="200.5" cy="200.5" r="200" transform="matrix(0.866025 0.5 -0.866025 0.5 252 474)" stroke="#846642"/>
<circle cx="188.284" cy="188.284" r="187.784" transform="matrix(0.866025 0.5 -0.866025 0.5 252.117 495)" stroke="#846642"/>
<path d="M452.428 550L365.392 600.25L355 594.25L442.036 544" stroke="#846642" stroke-miterlimit="16"/>
<path d="M383.443 605.849L340.568 581L313.83 596.858M383.443 605.849L356.705 621.707M383.443 605.849L383.331 612L356.593 627.858M356.705 621.707L313.83 596.858M356.705 621.707L356.593 627.858M313.83 596.858L313.83 603L356.593 627.858" stroke="#846642"/>
<path d="M444.777 657.461L253.454 547L62.1302 657.461M444.777 657.461L253.454 767.921M444.777 657.461L444.777 664.539L253.454 775M253.454 767.921L62.1302 657.461M253.454 767.921L253.454 775M62.1302 657.461L62.1302 664.539L253.454 775" stroke="#846642"/>
<circle cx="7.76033" cy="7.76033" r="7.26033" transform="matrix(0.866025 -0.5 0.866025 0.5 85.4611 656.469)" stroke="#846642"/>
<circle cx="7.76033" cy="7.76033" r="7.26033" transform="matrix(0.866025 -0.5 0.866025 0.5 240.036 745.712)" stroke="#846642"/>
<circle cx="7.76033" cy="7.76033" r="7.26033" transform="matrix(0.866025 -0.5 0.866025 0.5 240.036 567.225)" stroke="#846642"/>
<circle cx="7.76033" cy="7.76033" r="7.26033" transform="matrix(0.866025 -0.5 0.866025 0.5 394.611 656.469)" stroke="#846642"/>
<rect x="5.96046e-08" y="-0.5" width="96.2299" height="96.23" transform="matrix(0.866025 -0.5 -0.866025 -0.5 251.108 704.84)" stroke="#846642"/>
<line y1="-0.5" x2="16.8283" y2="-0.5" transform="matrix(0.866025 -0.5 0.866025 0.5 257.209 612.567)" stroke="#846642"/>
<line y1="-0.5" x2="16.8283" y2="-0.5" transform="matrix(0.866025 -0.5 0.866025 0.5 260.673 614.567)" stroke="#846642"/>
<line y1="-0.5" x2="16.8283" y2="-0.5" transform="matrix(0.866025 -0.5 0.866025 0.5 264.137 616.567)" stroke="#846642"/>
<line y1="-0.5" x2="16.8283" y2="-0.5" transform="matrix(0.866025 -0.5 0.866025 0.5 267.602 618.567)" stroke="#846642"/>
<line y1="-0.5" x2="16.8283" y2="-0.5" transform="matrix(0.866025 -0.5 0.866025 0.5 271.066 620.567)" stroke="#846642"/>
<line y1="-0.5" x2="16.8283" y2="-0.5" transform="matrix(0.866025 -0.5 0.866025 0.5 274.53 622.567)" stroke="#846642"/>
<line y1="-0.5" x2="16.8283" y2="-0.5" transform="matrix(0.866025 -0.5 0.866025 0.5 277.994 624.567)" stroke="#846642"/>
<line y1="-0.5" x2="16.8283" y2="-0.5" transform="matrix(0.866025 -0.5 0.866025 0.5 281.458 626.567)" stroke="#846642"/>
<line y1="-0.5" x2="16.8283" y2="-0.5" transform="matrix(0.866025 -0.5 0.866025 0.5 284.922 628.567)" stroke="#846642"/>
<line y1="-0.5" x2="16.8283" y2="-0.5" transform="matrix(0.866025 -0.5 0.866025 0.5 288.386 630.567)" stroke="#846642"/>
<line y1="-0.5" x2="16.8283" y2="-0.5" transform="matrix(0.866025 -0.5 0.866025 0.5 291.85 632.567)" stroke="#846642"/>
<line y1="-0.5" x2="16.8283" y2="-0.5" transform="matrix(0.866025 -0.5 0.866025 0.5 295.314 634.567)" stroke="#846642"/>
<line y1="-0.5" x2="16.8283" y2="-0.5" transform="matrix(0.866025 -0.5 0.866025 0.5 298.778 636.567)" stroke="#846642"/>
<line y1="-0.5" x2="16.8283" y2="-0.5" transform="matrix(0.866025 -0.5 0.866025 0.5 302.243 638.567)" stroke="#846642"/>
<line y1="-0.5" x2="16.8283" y2="-0.5" transform="matrix(0.866025 -0.5 0.866025 0.5 305.707 640.567)" stroke="#846642"/>
<line y1="-0.5" x2="16.8283" y2="-0.5" transform="matrix(0.866025 -0.5 0.866025 0.5 309.171 642.567)" stroke="#846642"/>
<line y1="-0.5" x2="16.8283" y2="-0.5" transform="matrix(0.866025 -0.5 0.866025 0.5 312.635 644.567)" stroke="#846642"/>
<line y1="-0.5" x2="16.8283" y2="-0.5" transform="matrix(0.866025 -0.5 0.866025 0.5 316.099 646.567)" stroke="#846642"/>
<line y1="-0.5" x2="16.8283" y2="-0.5" transform="matrix(0.866025 -0.5 0.866025 0.5 319.563 648.567)" stroke="#846642"/>
<line y1="-0.5" x2="16.8283" y2="-0.5" transform="matrix(0.866025 -0.5 0.866025 0.5 323.027 650.567)" stroke="#846642"/>
<line y1="-0.5" x2="16.8283" y2="-0.5" transform="matrix(0.866025 -0.5 0.866025 0.5 326.491 652.567)" stroke="#846642"/>
<line y1="-0.5" x2="16.8283" y2="-0.5" transform="matrix(0.866025 -0.5 0.866025 0.5 329.955 654.567)" stroke="#846642"/>
<line y1="-0.5" x2="16.8283" y2="-0.5" transform="matrix(0.866025 -0.5 0.866025 0.5 333.419 656.567)" stroke="#846642"/>
<line y1="-0.5" x2="16.8283" y2="-0.5" transform="matrix(-0.866025 0.5 -0.866025 -0.5 245.874 701.384)" stroke="#846642"/>
<line y1="-0.5" x2="16.8283" y2="-0.5" transform="matrix(-0.866025 0.5 -0.866025 -0.5 242.409 699.384)" stroke="#846642"/>
<line y1="-0.5" x2="16.8283" y2="-0.5" transform="matrix(-0.866025 0.5 -0.866025 -0.5 238.945 697.384)" stroke="#846642"/>
<line y1="-0.5" x2="16.8283" y2="-0.5" transform="matrix(-0.866025 0.5 -0.866025 -0.5 235.481 695.384)" stroke="#846642"/>
<line y1="-0.5" x2="16.8283" y2="-0.5" transform="matrix(-0.866025 0.5 -0.866025 -0.5 232.017 693.384)" stroke="#846642"/>
<line y1="-0.5" x2="16.8283" y2="-0.5" transform="matrix(-0.866025 0.5 -0.866025 -0.5 228.553 691.384)" stroke="#846642"/>
<line y1="-0.5" x2="16.8283" y2="-0.5" transform="matrix(-0.866025 0.5 -0.866025 -0.5 225.089 689.384)" stroke="#846642"/>
<line y1="-0.5" x2="16.8283" y2="-0.5" transform="matrix(-0.866025 0.5 -0.866025 -0.5 221.625 687.384)" stroke="#846642"/>
<line y1="-0.5" x2="16.8283" y2="-0.5" transform="matrix(-0.866025 0.5 -0.866025 -0.5 218.161 685.384)" stroke="#846642"/>
<line y1="-0.5" x2="16.8283" y2="-0.5" transform="matrix(-0.866025 0.5 -0.866025 -0.5 214.697 683.384)" stroke="#846642"/>
<line y1="-0.5" x2="16.8283" y2="-0.5" transform="matrix(-0.866025 0.5 -0.866025 -0.5 211.233 681.384)" stroke="#846642"/>
<line y1="-0.5" x2="16.8283" y2="-0.5" transform="matrix(-0.866025 0.5 -0.866025 -0.5 207.768 679.384)" stroke="#846642"/>
<line y1="-0.5" x2="16.8283" y2="-0.5" transform="matrix(-0.866025 0.5 -0.866025 -0.5 204.304 677.384)" stroke="#846642"/>
<line y1="-0.5" x2="16.8283" y2="-0.5" transform="matrix(-0.866025 0.5 -0.866025 -0.5 200.84 675.384)" stroke="#846642"/>
<line y1="-0.5" x2="16.8283" y2="-0.5" transform="matrix(-0.866025 0.5 -0.866025 -0.5 197.376 673.384)" stroke="#846642"/>
<line y1="-0.5" x2="16.8283" y2="-0.5" transform="matrix(-0.866025 0.5 -0.866025 -0.5 193.912 671.384)" stroke="#846642"/>
<line y1="-0.5" x2="16.8283" y2="-0.5" transform="matrix(-0.866025 0.5 -0.866025 -0.5 190.448 669.384)" stroke="#846642"/>
<line y1="-0.5" x2="16.8283" y2="-0.5" transform="matrix(-0.866025 0.5 -0.866025 -0.5 186.984 667.384)" stroke="#846642"/>
<line y1="-0.5" x2="16.8283" y2="-0.5" transform="matrix(-0.866025 0.5 -0.866025 -0.5 183.52 665.384)" stroke="#846642"/>
<line y1="-0.5" x2="16.8283" y2="-0.5" transform="matrix(-0.866025 0.5 -0.866025 -0.5 180.056 663.384)" stroke="#846642"/>
<line y1="-0.5" x2="16.8283" y2="-0.5" transform="matrix(-0.866025 0.5 -0.866025 -0.5 176.592 661.384)" stroke="#846642"/>
<line y1="-0.5" x2="16.8283" y2="-0.5" transform="matrix(-0.866025 0.5 -0.866025 -0.5 173.127 659.384)" stroke="#846642"/>
<line y1="-0.5" x2="16.8283" y2="-0.5" transform="matrix(-0.866025 0.5 -0.866025 -0.5 169.663 657.384)" stroke="#846642"/>
<line y1="-0.5" x2="16.8283" y2="-0.5" transform="matrix(-0.866025 -0.5 0.866025 -0.5 173.815 653.236)" stroke="#846642"/>
<line y1="-0.5" x2="16.8283" y2="-0.5" transform="matrix(-0.866025 -0.5 0.866025 -0.5 177.28 651.236)" stroke="#846642"/>
<line y1="-0.5" x2="16.8283" y2="-0.5" transform="matrix(-0.866025 -0.5 0.866025 -0.5 180.744 649.236)" stroke="#846642"/>
<line y1="-0.5" x2="16.8283" y2="-0.5" transform="matrix(-0.866025 -0.5 0.866025 -0.5 184.208 647.236)" stroke="#846642"/>
<line y1="-0.5" x2="16.8283" y2="-0.5" transform="matrix(-0.866025 -0.5 0.866025 -0.5 187.672 645.236)" stroke="#846642"/>
<line y1="-0.5" x2="16.8283" y2="-0.5" transform="matrix(-0.866025 -0.5 0.866025 -0.5 191.136 643.236)" stroke="#846642"/>
<line y1="-0.5" x2="16.8283" y2="-0.5" transform="matrix(-0.866025 -0.5 0.866025 -0.5 194.6 641.236)" stroke="#846642"/>
<line y1="-0.5" x2="16.8283" y2="-0.5" transform="matrix(-0.866025 -0.5 0.866025 -0.5 198.064 639.236)" stroke="#846642"/>
<line y1="-0.5" x2="16.8283" y2="-0.5" transform="matrix(-0.866025 -0.5 0.866025 -0.5 201.528 637.236)" stroke="#846642"/>
<line y1="-0.5" x2="16.8283" y2="-0.5" transform="matrix(-0.866025 -0.5 0.866025 -0.5 204.992 635.236)" stroke="#846642"/>
<line y1="-0.5" x2="16.8283" y2="-0.5" transform="matrix(-0.866025 -0.5 0.866025 -0.5 208.456 633.236)" stroke="#846642"/>
<line y1="-0.5" x2="16.8283" y2="-0.5" transform="matrix(-0.866025 -0.5 0.866025 -0.5 211.921 631.236)" stroke="#846642"/>
<line y1="-0.5" x2="16.8283" y2="-0.5" transform="matrix(-0.866025 -0.5 0.866025 -0.5 215.385 629.236)" stroke="#846642"/>
<line y1="-0.5" x2="16.8283" y2="-0.5" transform="matrix(-0.866025 -0.5 0.866025 -0.5 218.849 627.236)" stroke="#846642"/>
<line y1="-0.5" x2="16.8283" y2="-0.5" transform="matrix(-0.866025 -0.5 0.866025 -0.5 222.313 625.236)" stroke="#846642"/>
<line y1="-0.5" x2="16.8283" y2="-0.5" transform="matrix(-0.866025 -0.5 0.866025 -0.5 225.777 623.236)" stroke="#846642"/>
<line y1="-0.5" x2="16.8283" y2="-0.5" transform="matrix(-0.866025 -0.5 0.866025 -0.5 229.241 621.236)" stroke="#846642"/>
<line y1="-0.5" x2="16.8283" y2="-0.5" transform="matrix(-0.866025 -0.5 0.866025 -0.5 232.705 619.236)" stroke="#846642"/>
<line y1="-0.5" x2="16.8283" y2="-0.5" transform="matrix(-0.866025 -0.5 0.866025 -0.5 236.169 617.236)" stroke="#846642"/>
<line y1="-0.5" x2="16.8283" y2="-0.5" transform="matrix(-0.866025 -0.5 0.866025 -0.5 239.633 615.236)" stroke="#846642"/>
<line y1="-0.5" x2="16.8283" y2="-0.5" transform="matrix(-0.866025 -0.5 0.866025 -0.5 243.097 613.236)" stroke="#846642"/>
<line y1="-0.5" x2="16.8283" y2="-0.5" transform="matrix(-0.866025 -0.5 0.866025 -0.5 246.562 611.236)" stroke="#846642"/>
<line y1="-0.5" x2="16.8283" y2="-0.5" transform="matrix(-0.866025 -0.5 0.866025 -0.5 250.026 609.236)" stroke="#846642"/>
<line y1="-0.5" x2="16.8283" y2="-0.5" transform="matrix(0.866025 0.5 -0.866025 0.5 329.269 660.715)" stroke="#846642"/>
<line y1="-0.5" x2="16.8283" y2="-0.5" transform="matrix(0.866025 0.5 -0.866025 0.5 325.805 662.715)" stroke="#846642"/>
<line y1="-0.5" x2="16.8283" y2="-0.5" transform="matrix(0.866025 0.5 -0.866025 0.5 322.341 664.715)" stroke="#846642"/>
<line y1="-0.5" x2="16.8283" y2="-0.5" transform="matrix(0.866025 0.5 -0.866025 0.5 318.876 666.715)" stroke="#846642"/>
<line y1="-0.5" x2="16.8283" y2="-0.5" transform="matrix(0.866025 0.5 -0.866025 0.5 315.412 668.715)" stroke="#846642"/>
<line y1="-0.5" x2="16.8283" y2="-0.5" transform="matrix(0.866025 0.5 -0.866025 0.5 311.948 670.715)" stroke="#846642"/>
<line y1="-0.5" x2="16.8283" y2="-0.5" transform="matrix(0.866025 0.5 -0.866025 0.5 308.484 672.715)" stroke="#846642"/>
<line y1="-0.5" x2="16.8283" y2="-0.5" transform="matrix(0.866025 0.5 -0.866025 0.5 305.02 674.715)" stroke="#846642"/>
<line y1="-0.5" x2="16.8283" y2="-0.5" transform="matrix(0.866025 0.5 -0.866025 0.5 301.556 676.715)" stroke="#846642"/>
<line y1="-0.5" x2="16.8283" y2="-0.5" transform="matrix(0.866025 0.5 -0.866025 0.5 298.092 678.715)" stroke="#846642"/>
<line y1="-0.5" x2="16.8283" y2="-0.5" transform="matrix(0.866025 0.5 -0.866025 0.5 294.628 680.715)" stroke="#846642"/>
<line y1="-0.5" x2="16.8283" y2="-0.5" transform="matrix(0.866025 0.5 -0.866025 0.5 291.164 682.715)" stroke="#846642"/>
<line y1="-0.5" x2="16.8283" y2="-0.5" transform="matrix(0.866025 0.5 -0.866025 0.5 287.7 684.715)" stroke="#846642"/>
<line y1="-0.5" x2="16.8283" y2="-0.5" transform="matrix(0.866025 0.5 -0.866025 0.5 284.235 686.715)" stroke="#846642"/>
<line y1="-0.5" x2="16.8283" y2="-0.5" transform="matrix(0.866025 0.5 -0.866025 0.5 280.771 688.715)" stroke="#846642"/>
<line y1="-0.5" x2="16.8283" y2="-0.5" transform="matrix(0.866025 0.5 -0.866025 0.5 277.307 690.715)" stroke="#846642"/>
<line y1="-0.5" x2="16.8283" y2="-0.5" transform="matrix(0.866025 0.5 -0.866025 0.5 273.843 692.715)" stroke="#846642"/>
<line y1="-0.5" x2="16.8283" y2="-0.5" transform="matrix(0.866025 0.5 -0.866025 0.5 270.379 694.715)" stroke="#846642"/>
<line y1="-0.5" x2="16.8283" y2="-0.5" transform="matrix(0.866025 0.5 -0.866025 0.5 266.915 696.715)" stroke="#846642"/>
<line y1="-0.5" x2="16.8283" y2="-0.5" transform="matrix(0.866025 0.5 -0.866025 0.5 263.451 698.715)" stroke="#846642"/>
<line y1="-0.5" x2="16.8283" y2="-0.5" transform="matrix(0.866025 0.5 -0.866025 0.5 259.987 700.715)" stroke="#846642"/>
<line y1="-0.5" x2="16.8283" y2="-0.5" transform="matrix(0.866025 0.5 -0.866025 0.5 256.523 702.715)" stroke="#846642"/>
<line y1="-0.5" x2="16.8283" y2="-0.5" transform="matrix(0.866025 0.5 -0.866025 0.5 253.059 704.715)" stroke="#846642"/>
<path d="M190.5 306L377.351 413.737L247.03 628.724L60.8038 520.954L190.5 306Z" fill="white"/>
<path d="M377.351 413.737L190.5 306L60.8038 520.954M377.351 413.737L247.03 628.724M377.351 413.737L376.889 421.138L247.366 633.719M247.03 628.724L60.8038 520.954M247.03 628.724L247.366 633.719M60.8038 520.954L64.8765 527.496L247.366 633.719" stroke="#846642"/>
<circle cx="7" cy="7" r="6.5" transform="matrix(0.87462 0.48481 -0.515038 0.857167 195.787 317)" fill="white" stroke="#846642"/>
<circle cx="7" cy="7" r="6.5" transform="matrix(0.87462 0.48481 -0.515038 0.857167 354.685 408.94)" fill="white" stroke="#846642"/>
<circle cx="7" cy="7" r="6.5" transform="matrix(0.87462 0.48481 -0.515038 0.857167 79.0728 506.123)" fill="white" stroke="#846642"/>
<circle cx="7" cy="7" r="6.5" transform="matrix(0.87462 0.48481 -0.515038 0.857167 237.971 598.064)" fill="white" stroke="#846642"/>
<path d="M75.6864 325.428C27.0395 297.342 2.71873 260.639 2.50015 223.998C2.50108 100.615 114.33 0.5 252.731 0.5C391.132 0.5 502.961 100.614 502.963 223.997C502.745 260.638 478.424 297.341 429.776 325.428C380.911 353.64 316.835 367.76 252.731 367.76C188.628 367.76 124.551 353.64 75.6864 325.428Z" fill="white" stroke="#846642"/>
<path d="M391.698 297.064L395.928 305.358L395.99 305.326C396.365 303.21 397.493 301.416 399.831 300.224C403.199 298.507 406.195 299.297 407.896 302.633L413.668 313.951L411.142 315.239L405.482 304.139C404.417 302.05 402.44 301.565 400.164 302.726C397.608 304.029 396.659 306.792 398.011 309.442L403.067 319.357L400.541 320.645L389.173 298.352L391.698 297.064Z" fill="white"/>
<path d="M425.023 307.387C420.411 310.439 415.37 308.655 412.473 304.276C409.575 299.898 410.079 294.445 414.37 291.605C418.894 288.611 423.634 290.511 426.937 295.502L415.262 303.228C417.465 306.177 420.674 307.411 423.71 305.402C425.899 303.953 426.663 301.937 425.836 299.546L428.142 298.02C429.586 301.724 428.438 305.127 425.023 307.387ZM415.606 293.473C412.804 295.327 412.677 298.433 414.142 301.409L423.22 295.402C421.084 292.492 418.321 291.677 415.606 293.473Z" fill="white"/>
<path d="M434.995 300.171L423.35 286.322L425.52 284.497L427.186 286.48L427.24 286.435C426.971 284.374 427.633 282.171 429.375 280.707C431.062 279.288 433.122 279.019 435.063 280.131L435.117 280.086C434.672 277.762 435.589 275.481 437.277 274.062C439.742 271.99 442.812 272.106 445.222 274.972L453.399 284.697L451.229 286.521L443.142 276.904C441.701 275.19 439.693 275.14 438.3 276.312C436.505 277.821 436.204 280.726 438.029 282.896L445.282 291.522L443.112 293.346L435.026 283.729C433.584 282.015 431.764 281.808 430.344 283.002C428.656 284.421 428.087 287.551 429.912 289.721L437.165 298.347L434.995 300.171Z" fill="white"/>
<path d="M457.536 280.413L444.87 267.489L446.895 265.505L459.561 278.429L457.536 280.413ZM442.47 265.04L440.02 262.54L442.045 260.556L444.494 263.055L442.47 265.04Z" fill="white"/>
<path d="M456.232 269.988L454.35 268.209L460.793 261.392L462.675 263.171L456.232 269.988Z" fill="white"/>
<path d="M474.79 262.082L461.549 250.694L458.126 254.674L456.64 253.396C458.504 251.121 459.324 248.503 456.941 245.853L458.424 244.128L476.707 259.853L474.79 262.082Z" fill="white"/>
<path d="M275.882 500.149C256.755 535.128 218.303 550.725 190.066 535.286C161.83 519.846 154.21 479.056 173.337 444.077C192.463 409.099 230.916 393.501 259.152 408.941C287.389 424.381 295.008 465.171 275.882 500.149Z" fill="white" stroke="#846642"/>
<path d="M261.794 492.171C252.255 509.618 238.238 522.449 223.307 529.104C208.377 535.758 192.563 536.226 179.367 529.011C166.172 521.796 158.032 508.229 155.577 492.069C153.122 475.908 156.36 457.183 165.9 439.736C175.44 422.289 189.457 409.458 204.388 402.803C219.318 396.149 235.132 395.681 248.327 402.896C261.523 410.111 269.663 423.678 272.118 439.838C274.573 455.999 271.334 474.725 261.794 492.171Z" fill="white" stroke="#846642"/>
<path d="M256.439 489.523C246.484 507.73 231.865 521.127 216.299 528.081C200.733 535.035 184.248 535.537 170.499 528.019C156.75 520.501 148.276 506.351 145.73 489.494C143.184 472.636 146.574 453.099 156.53 434.892C166.486 416.685 181.104 403.287 196.671 396.333C212.237 389.38 228.721 388.878 242.471 396.396C256.22 403.914 264.693 418.063 267.239 434.92C269.785 451.778 266.395 471.315 256.439 489.523Z" fill="white" stroke="#846642"/>
<path d="M248.694 485.001C238.757 503.175 224.155 516.543 208.6 523.475C193.046 530.407 176.569 530.896 162.819 523.378C149.07 515.859 140.589 501.723 138.031 484.887C135.474 468.051 138.848 448.544 148.785 430.37C158.723 412.196 173.325 398.829 188.879 391.897C204.433 384.965 220.911 384.476 234.66 391.994C248.41 399.512 256.89 413.648 259.448 430.484C262.006 447.32 258.632 466.827 248.694 485.001Z" fill="white" stroke="#846642"/>
<path d="M236.867 478.533C229.272 492.422 218.116 502.633 206.238 507.927C194.36 513.22 181.789 513.589 171.305 507.856C160.821 502.124 154.348 491.342 152.395 478.485C150.441 465.628 153.017 450.725 160.611 436.837C168.206 422.949 179.362 412.737 191.24 407.443C203.118 402.15 215.689 401.781 226.173 407.514C236.657 413.246 243.13 424.028 245.083 436.885C247.037 449.742 244.461 464.645 236.867 478.533Z" stroke="#846642"/>
<path d="M230.182 474.879C223.912 486.344 214.703 494.772 204.903 499.14C195.103 503.507 184.74 503.808 176.102 499.085C167.464 494.361 162.125 485.475 160.513 474.867C158.902 464.259 161.027 451.958 167.296 440.493C173.566 429.027 182.775 420.6 192.576 416.232C202.376 411.864 212.739 411.563 221.376 416.287C230.014 421.01 235.353 429.896 236.965 440.504C238.577 451.112 236.451 463.413 230.182 474.879Z" stroke="#846642"/>
<path d="M228.637 474.034C222.673 484.941 213.913 492.956 204.592 497.11C195.271 501.264 185.418 501.549 177.206 497.059C168.995 492.569 163.917 484.12 162.384 474.031C160.852 463.942 162.873 452.242 168.837 441.335C174.8 430.428 183.56 422.413 192.881 418.258C202.202 414.104 212.055 413.82 220.267 418.31C228.479 422.8 233.556 431.249 235.089 441.338C236.622 451.427 234.601 463.127 228.637 474.034Z" stroke="#846642"/>
<path d="M227.096 473.191C221.438 483.539 213.128 491.143 204.286 495.083C195.445 499.023 186.102 499.293 178.316 495.035C170.53 490.778 165.714 482.766 164.26 473.197C162.806 463.627 164.723 452.527 170.382 442.179C176.04 431.831 184.35 424.228 193.192 420.287C202.033 416.347 211.376 416.078 219.162 420.335C226.948 424.592 231.764 432.604 233.218 442.173C234.672 451.744 232.755 462.843 227.096 473.191Z" stroke="#846642"/>
<path d="M225.551 472.347C220.199 482.136 212.338 489.328 203.976 493.055C195.614 496.782 186.78 497.035 179.42 493.011C172.06 488.986 167.506 481.412 166.131 472.361C164.756 463.31 166.569 452.811 171.922 443.022C177.274 433.234 185.135 426.042 193.497 422.315C201.859 418.588 210.693 418.335 218.053 422.359C225.412 426.383 229.966 433.957 231.341 443.008C232.717 452.059 230.904 462.559 225.551 472.347Z" stroke="#846642"/>
<path d="M224.011 471.504C218.964 480.734 211.553 487.514 203.67 491.027C195.788 494.54 187.463 494.778 180.53 490.986C173.596 487.195 169.303 480.058 168.007 471.527C166.711 462.994 168.42 453.096 173.467 443.866C178.514 434.636 185.925 427.856 193.808 424.343C201.69 420.83 210.014 420.592 216.948 424.384C223.882 428.175 228.174 435.312 229.47 443.843C230.767 452.376 229.058 462.274 224.011 471.504Z" stroke="#846642"/>
<path d="M222.47 470.661C217.729 479.331 210.767 485.7 203.363 489C195.961 492.299 188.146 492.521 181.638 488.962C175.13 485.404 171.099 478.705 169.882 470.692C168.665 462.679 170.27 453.381 175.011 444.71C179.752 436.039 186.714 429.671 194.117 426.371C201.52 423.072 209.335 422.85 215.842 426.408C222.35 429.967 226.381 436.666 227.598 444.679C228.816 452.692 227.211 461.99 222.47 470.661Z" stroke="#846642"/>
<path d="M218.817 468.902C215.197 475.523 209.883 480.382 204.238 482.898C198.593 485.414 192.646 485.578 187.7 482.874C182.755 480.169 179.684 475.074 178.756 468.965C177.827 462.854 179.051 455.758 182.671 449.137C186.291 442.516 191.605 437.657 197.251 435.141C202.895 432.625 208.842 432.461 213.788 435.166C218.733 437.87 221.804 442.965 222.732 449.075C223.661 455.185 222.437 462.281 218.817 468.902Z" stroke="#846642"/>
<path d="M216.814 467.569C213.194 474.189 207.88 479.049 202.235 481.565C196.59 484.08 190.644 484.245 185.698 481.54C180.752 478.836 177.681 473.741 176.753 467.631C175.825 461.521 177.048 454.425 180.668 447.804C184.289 441.183 189.603 436.324 195.248 433.808C200.892 431.292 206.839 431.128 211.785 433.832C216.731 436.536 219.801 441.631 220.73 447.741C221.658 453.851 220.435 460.948 216.814 467.569Z" fill="white" stroke="#846642"/>
<path d="M207.555 462.507C205.769 465.774 203.151 468.163 200.383 469.397C197.615 470.63 194.726 470.7 192.336 469.393C189.946 468.087 188.446 465.616 187.991 462.621C187.536 459.624 188.134 456.131 189.921 452.864C191.707 449.598 194.325 447.208 197.093 445.975C199.861 444.741 202.75 444.671 205.14 445.978C207.53 447.285 209.03 449.755 209.485 452.751C209.94 455.747 209.341 459.24 207.555 462.507Z" stroke="#846642"/>
<path d="M167 718L150.5 708.501L138.707 715.108M167 718L154.924 724.501M167 718L166.5 725L154.811 731.652M154.924 724.501L138.707 715.108M154.924 724.501L154.811 731.652M138.707 715.108L138.707 722.251L154.811 731.652" stroke="#846642"/>
<ellipse cx="141.68" cy="720.917" rx="1.48392" ry="1.75503" transform="rotate(-6.74959 141.68 720.917)" fill="white" stroke="#846642"/>
<ellipse cx="145.978" cy="723.417" rx="1.48392" ry="1.75503" transform="rotate(-6.74959 145.978 723.417)" fill="white" stroke="#846642"/>
<ellipse cx="150.28" cy="725.964" rx="1.48392" ry="1.75503" transform="rotate(-6.74959 150.28 725.964)" fill="white" stroke="#846642"/>
<path d="M160 578L143.5 568.5L137.235 575.841M160 578L153.451 585.233M160 578L160 582.5L153.339 589.385M153.451 585.233L137.235 575.841M153.451 585.233L153.339 589.385M137.235 575.841L137.235 579.983L153.339 589.385" stroke="#846642"/>
<ellipse cx="141.066" cy="579.846" rx="1.33671" ry="1.58093" transform="rotate(-6.74959 141.066 579.846)" fill="white" stroke="#846642"/>
<ellipse cx="144.937" cy="582.098" rx="1.33671" ry="1.58093" transform="rotate(-6.74959 144.937 582.098)" fill="white" stroke="#846642"/>
<ellipse cx="148.813" cy="584.392" rx="1.33671" ry="1.58093" transform="rotate(-6.74959 148.813 584.392)" fill="white" stroke="#846642"/>
<path d="M149 584L145.253 597.514C136.858 627.787 135.35 659.555 140.841 690.487L146.639 723.151C147.077 725.617 149.712 727.017 152 726V726" stroke="#846642"/>
<path d="M145 581.5L144.573 582.692C132.406 616.63 129.405 653.176 135.872 688.644L141.617 720.155C142.067 722.623 144.708 724.019 147 723V723" stroke="#846642"/>
<path d="M141 579.5L135.775 595.422C125.457 626.87 123.967 660.547 131.468 692.783L137.384 718.204C137.963 720.692 140.665 722.038 143 721V721" stroke="#846642"/>
</svg>
