<svg width="500" height="500" viewBox="0 0 500 500" fill="none" xmlns="http://www.w3.org/2000/svg">
<path d="M499.5 250C499.5 387.795 387.795 499.5 250 499.5C112.205 499.5 0.500122 387.795 0.500122 250C0.500122 112.205 112.205 0.5 250 0.5C387.795 0.5 499.5 112.205 499.5 250Z" stroke="#846642"/>
<g clip-path="url(#clip0_5454_8872)">
<path fill-rule="evenodd" clip-rule="evenodd" d="M294.475 398.27C291.739 397.394 288.793 397.404 286.062 398.298C283.332 399.192 280.959 400.924 279.285 403.243C277.612 405.563 276.725 408.35 276.753 411.202C276.78 414.054 277.721 416.824 279.439 419.111C281.157 421.398 283.563 423.084 286.31 423.926C289.057 424.768 292.003 424.722 294.722 423.794C297.441 422.866 299.792 421.106 301.436 418.766L304.266 420.723C302.204 423.658 299.254 425.867 295.844 427.031C292.433 428.194 288.738 428.252 285.292 427.196C281.846 426.14 278.828 424.025 276.673 421.156C274.518 418.287 273.338 414.813 273.303 411.235C273.268 407.657 274.381 404.161 276.48 401.251C278.579 398.342 281.556 396.169 284.981 395.048C288.406 393.927 292.101 393.914 295.534 395.013C298.966 396.111 301.958 398.263 304.077 401.159L301.285 403.169C299.596 400.861 297.211 399.146 294.475 398.27ZM292.232 405.169C290.97 404.765 289.612 404.77 288.352 405.182C287.093 405.594 285.999 406.393 285.227 407.462C284.456 408.532 284.047 409.817 284.059 411.132C284.072 412.448 284.506 413.725 285.298 414.78C286.09 415.834 287.2 416.612 288.467 417C289.734 417.388 291.092 417.367 292.346 416.939C293.599 416.511 294.684 415.699 295.442 414.62L298.272 416.578C297.096 418.252 295.413 419.512 293.468 420.176C291.522 420.839 289.414 420.873 287.449 420.27C285.483 419.668 283.761 418.461 282.532 416.825C281.302 415.188 280.629 413.206 280.61 411.165C280.59 409.124 281.224 407.13 282.422 405.47C283.619 403.811 285.318 402.571 287.271 401.932C289.225 401.292 291.333 401.285 293.291 401.912C295.249 402.538 296.956 403.766 298.164 405.417L295.372 407.428C294.593 406.364 293.494 405.573 292.232 405.169Z" stroke="#846642"/>
<path d="M273.026 409.257H265.935V397.917H274.345L276.933 394.495H262.485V427.226L265.935 424.941V412.68H273.026V409.257Z" stroke="#846642"/>
</g>
<g clip-path="url(#clip1_5454_8872)">
<path d="M212.007 421.353V425.087C211.643 425.112 211.279 425.125 210.915 425.125C206.826 425.125 202.905 423.511 200.014 420.639C197.123 417.767 195.5 413.873 195.5 409.812C195.5 405.752 197.123 401.858 200.014 398.986C202.905 396.114 206.826 394.5 210.915 394.5C211.279 394.5 211.643 394.513 212.007 394.538V398.272C211.642 398.246 211.276 398.236 210.91 398.244C207.826 398.245 204.867 399.463 202.685 401.631C200.502 403.8 199.275 406.743 199.275 409.812C199.275 412.882 200.502 415.825 202.685 417.994C204.867 420.162 207.826 421.38 210.91 421.381C211.276 421.389 211.642 421.379 212.007 421.353Z" stroke="#846642"/>
<path d="M235.879 407.941H227.088H226.466L226.6 407.333C227.169 404.756 228.607 402.45 230.676 400.797C232.742 399.145 235.314 398.245 237.966 398.244C238.332 398.236 238.698 398.246 239.062 398.272V394.538C238.699 394.513 238.335 394.5 237.971 394.5C233.882 394.5 229.96 396.114 227.07 398.986C224.179 401.858 222.556 405.752 222.556 409.812C222.556 413.873 224.179 417.767 227.07 420.639C229.96 423.511 233.882 425.125 237.971 425.125C238.335 425.125 238.699 425.112 239.062 425.087V421.353C238.698 421.379 238.332 421.389 237.966 421.381M235.879 407.941L237.971 420.881M235.879 407.941V411.684M235.879 407.941L236.379 411.684M237.966 421.381C237.964 421.381 237.962 421.381 237.96 421.381L237.971 420.881M237.966 421.381C237.967 421.381 237.969 421.381 237.971 421.381L237.971 420.881M237.966 421.381C235.314 421.38 232.742 420.48 230.676 418.828C228.607 417.175 227.169 414.869 226.6 412.292L226.466 411.684H227.088H235.879M237.971 420.881C235.431 420.881 232.967 420.019 230.988 418.437C229.143 416.963 227.823 414.947 227.211 412.684H227.088V412.184L227.576 412.077C227.584 412.113 227.593 412.148 227.601 412.184H235.879V411.684M235.879 411.684H236.379M236.379 411.684V407.941V411.684ZM239.062 420.851C239.229 420.839 239.396 420.822 239.562 420.802V421.306L239.062 420.851Z" stroke="#846642"/>
</g>
<path d="M124.538 250.36C121.154 250.36 119.042 247.816 119.042 243.832C119.042 239.704 121.418 237.304 124.49 237.304C126.242 237.304 127.586 238.168 128.378 239.344H128.426V232.84H130.37V250H128.426V248.488H128.378C127.442 249.688 126.29 250.36 124.538 250.36ZM124.61 248.728C127.37 248.728 128.546 246.664 128.546 243.856C128.546 240.976 127.154 238.96 124.586 238.96C122.234 238.96 121.034 241.072 121.034 243.856C121.034 246.664 122.234 248.728 124.61 248.728ZM138.308 250.336C134.516 250.336 132.308 247.408 132.308 243.808C132.308 240.208 134.66 237.28 138.188 237.28C141.908 237.28 143.9 240.16 143.9 244.264H134.3C134.444 246.784 135.812 248.704 138.308 248.704C140.108 248.704 141.308 247.84 141.74 246.16H143.636C143.06 248.824 141.116 250.336 138.308 250.336ZM138.188 238.816C135.884 238.816 134.636 240.544 134.348 242.8H141.812C141.692 240.328 140.42 238.816 138.188 238.816ZM150.504 250.36C147.096 250.36 145.2 248.752 145.008 245.968H147C147.264 248.128 148.704 248.728 150.552 248.728C152.592 248.728 153.432 247.84 153.432 246.688C153.432 245.296 152.472 244.936 150.192 244.456C147.744 243.952 145.56 243.448 145.56 240.736C145.56 238.672 147.144 237.328 150.024 237.328C153.096 237.328 154.608 238.792 154.896 241.216H152.904C152.712 239.584 151.824 238.864 149.976 238.864C148.2 238.864 147.48 239.656 147.48 240.64C147.48 241.984 148.68 242.248 150.816 242.68C153.312 243.184 155.4 243.736 155.4 246.592C155.4 249.088 153.36 250.36 150.504 250.36ZM157.261 250V237.592H159.205V250H157.261ZM157.261 235.24V232.84H159.205V235.24H157.261ZM166.799 254.128C163.583 254.128 161.759 252.832 161.543 250.696H163.343C163.535 252.064 164.831 252.592 166.751 252.592C169.031 252.592 170.303 251.56 170.303 249.4V247.648H170.255C169.343 248.824 168.359 249.568 166.583 249.568C163.367 249.568 161.159 247 161.159 243.424C161.159 239.56 163.583 237.304 166.463 237.304C168.263 237.304 169.415 238 170.255 239.176H170.303V237.592H172.247V249.328C172.247 252.592 170.087 254.128 166.799 254.128ZM166.679 247.936C169.535 247.936 170.447 245.944 170.447 243.328C170.447 240.616 169.295 238.936 166.655 238.936C164.327 238.936 163.151 240.76 163.151 243.448C163.151 246.16 164.375 247.936 166.679 247.936ZM176.83 237.592V239.224H176.878C177.766 238.048 179.014 237.304 180.814 237.304C183.406 237.304 184.99 238.72 184.99 241.288V250H183.046V241.456C183.046 239.848 181.99 238.936 180.238 238.936C178.27 238.936 176.83 240.328 176.83 242.368V250H174.886V237.592H176.83ZM192.87 250.336C189.078 250.336 186.87 247.408 186.87 243.808C186.87 240.208 189.222 237.28 192.75 237.28C196.47 237.28 198.462 240.16 198.462 244.264H188.862C189.006 246.784 190.374 248.704 192.87 248.704C194.67 248.704 195.87 247.84 196.302 246.16H198.198C197.622 248.824 195.678 250.336 192.87 250.336ZM192.75 238.816C190.446 238.816 189.198 240.544 188.91 242.8H196.374C196.254 240.328 194.982 238.816 192.75 238.816ZM205.163 250.36C201.779 250.36 199.667 247.816 199.667 243.832C199.667 239.704 202.043 237.304 205.115 237.304C206.867 237.304 208.211 238.168 209.003 239.344H209.051V232.84H210.995V250H209.051V248.488H209.003C208.067 249.688 206.915 250.36 205.163 250.36ZM205.235 248.728C207.995 248.728 209.171 246.664 209.171 243.856C209.171 240.976 207.779 238.96 205.211 238.96C202.859 238.96 201.659 241.072 201.659 243.856C201.659 246.664 202.859 248.728 205.235 248.728ZM223.353 250.36C221.673 250.36 220.449 249.76 219.441 248.368H219.393V250H217.449V232.84H219.393V239.368H219.441C220.377 238.096 221.625 237.304 223.425 237.304C226.569 237.304 228.705 239.704 228.705 243.832C228.705 247.816 226.713 250.36 223.353 250.36ZM223.209 248.728C225.585 248.728 226.713 246.664 226.713 243.856C226.713 241.072 225.585 238.96 223.233 238.96C220.521 238.96 219.273 241.168 219.273 243.856C219.273 246.64 220.569 248.728 223.209 248.728ZM231.994 254.104C231.25 254.104 230.77 254.056 230.242 253.84V252.112H230.338C230.602 252.256 231.01 252.376 231.658 252.376C232.474 252.376 233.026 252.064 233.506 250.864L233.986 249.64L229.138 237.592H231.25L234.178 245.32C234.562 246.352 235.018 247.744 235.018 247.744H235.066C235.066 247.744 235.498 246.352 235.882 245.32L238.714 237.592H240.778L235.474 251.008C234.466 253.576 233.506 254.104 231.994 254.104ZM255.812 250H253.868V248.296H253.82C252.932 249.496 251.876 250.288 250.076 250.288C247.532 250.288 245.9 248.752 245.9 246.184V237.592H247.844V246.136C247.844 247.744 248.876 248.68 250.628 248.68C252.596 248.68 253.868 247.192 253.868 245.224V237.592H255.812V250ZM260.385 237.592V239.224H260.433C261.321 238.048 262.569 237.304 264.369 237.304C266.961 237.304 268.545 238.72 268.545 241.288V250H266.601V241.456C266.601 239.848 265.545 238.936 263.793 238.936C261.825 238.936 260.385 240.328 260.385 242.368V250H258.441V237.592H260.385ZM275.921 250.36C272.537 250.36 270.425 247.816 270.425 243.832C270.425 239.704 272.801 237.304 275.873 237.304C277.625 237.304 278.969 238.168 279.761 239.344H279.809V232.84H281.753V250H279.809V248.488H279.761C278.825 249.688 277.673 250.36 275.921 250.36ZM275.993 248.728C278.753 248.728 279.929 246.664 279.929 243.856C279.929 240.976 278.537 238.96 275.969 238.96C273.617 238.96 272.417 241.072 272.417 243.856C272.417 246.664 273.617 248.728 275.993 248.728ZM289.69 250.336C285.898 250.336 283.69 247.408 283.69 243.808C283.69 240.208 286.042 237.28 289.57 237.28C293.29 237.28 295.282 240.16 295.282 244.264H285.682C285.826 246.784 287.194 248.704 289.69 248.704C291.49 248.704 292.69 247.84 293.122 246.16H295.018C294.442 248.824 292.498 250.336 289.69 250.336ZM289.57 238.816C287.266 238.816 286.018 240.544 285.73 242.8H293.194C293.074 240.328 291.802 238.816 289.57 238.816ZM299.127 237.592V239.656H299.175C299.919 238.456 301.215 237.448 302.871 237.448C303.231 237.448 303.423 237.496 303.663 237.592V239.464H303.591C303.303 239.368 303.111 239.344 302.727 239.344C300.807 239.344 299.127 240.784 299.127 243.112V250H297.183V237.592H299.127ZM309.23 250V237.592H311.174V250H309.23ZM309.23 235.24V232.84H311.174V235.24H309.23ZM315.768 237.592V239.224H315.816C316.704 238.048 317.952 237.304 319.752 237.304C322.344 237.304 323.928 238.72 323.928 241.288V250H321.984V241.456C321.984 239.848 320.928 238.936 319.176 238.936C317.208 238.936 315.768 240.328 315.768 242.368V250H313.824V237.592H315.768ZM330.324 250V237.592H332.268V250H330.324ZM330.324 235.24V232.84H332.268V235.24H330.324ZM339.622 250.36C336.214 250.36 334.318 248.752 334.126 245.968H336.118C336.382 248.128 337.822 248.728 339.67 248.728C341.71 248.728 342.55 247.84 342.55 246.688C342.55 245.296 341.59 244.936 339.31 244.456C336.862 243.952 334.678 243.448 334.678 240.736C334.678 238.672 336.262 237.328 339.142 237.328C342.214 237.328 343.726 238.792 344.014 241.216H342.022C341.83 239.584 340.942 238.864 339.094 238.864C337.318 238.864 336.598 239.656 336.598 240.64C336.598 241.984 337.798 242.248 339.934 242.68C342.43 243.184 344.518 243.736 344.518 246.592C344.518 249.088 342.478 250.36 339.622 250.36ZM348.323 237.592V239.656H348.371C349.115 238.456 350.411 237.448 352.067 237.448C352.427 237.448 352.619 237.496 352.859 237.592V239.464H352.787C352.499 239.368 352.307 239.344 351.923 239.344C350.003 239.344 348.323 240.784 348.323 243.112V250H346.379V237.592H348.323ZM363.88 250.12C362.608 250.12 361.936 249.544 361.744 248.272H361.72C360.976 249.232 359.704 250.24 357.592 250.24C355.24 250.24 353.392 249.136 353.392 246.784C353.392 243.856 355.696 243.256 358.792 242.776C360.544 242.512 361.768 242.344 361.768 241C361.768 239.608 360.76 238.816 358.984 238.816C356.968 238.816 355.96 239.68 355.888 241.552H354.016C354.088 239.152 355.672 237.352 358.96 237.352C361.6 237.352 363.544 238.336 363.544 241.288V247.192C363.544 248.2 363.784 248.752 364.864 248.512H364.936V249.928C364.696 250.024 364.384 250.12 363.88 250.12ZM358.024 248.752C360.616 248.752 361.792 246.856 361.792 245.416V243.304C361.144 243.712 360.016 244.024 358.96 244.216C357.016 244.576 355.456 244.912 355.456 246.736C355.456 248.392 356.752 248.752 358.024 248.752ZM371.675 250.336C367.883 250.336 365.675 247.408 365.675 243.808C365.675 240.208 368.027 237.28 371.555 237.28C375.275 237.28 377.267 240.16 377.267 244.264H367.667C367.811 246.784 369.179 248.704 371.675 248.704C373.475 248.704 374.675 247.84 375.107 246.16H377.003C376.427 248.824 374.483 250.336 371.675 250.336ZM371.555 238.816C369.251 238.816 368.003 240.544 367.715 242.8H375.179C375.059 240.328 373.787 238.816 371.555 238.816ZM379.24 250V232.84H381.184V250H379.24ZM166.173 276.12C164.901 276.12 164.229 275.544 164.037 274.272H164.013C163.269 275.232 161.997 276.24 159.885 276.24C157.533 276.24 155.685 275.136 155.685 272.784C155.685 269.856 157.989 269.256 161.085 268.776C162.837 268.512 164.061 268.344 164.061 267C164.061 265.608 163.053 264.816 161.277 264.816C159.261 264.816 158.253 265.68 158.181 267.552H156.309C156.381 265.152 157.965 263.352 161.253 263.352C163.893 263.352 165.837 264.336 165.837 267.288V273.192C165.837 274.2 166.077 274.752 167.157 274.512H167.229V275.928C166.989 276.024 166.677 276.12 166.173 276.12ZM160.317 274.752C162.909 274.752 164.085 272.856 164.085 271.416V269.304C163.437 269.712 162.309 270.024 161.253 270.216C159.309 270.576 157.749 270.912 157.749 272.736C157.749 274.392 159.045 274.752 160.317 274.752ZM173.368 276.36C169.96 276.36 168.064 274.752 167.872 271.968H169.864C170.128 274.128 171.568 274.728 173.416 274.728C175.456 274.728 176.296 273.84 176.296 272.688C176.296 271.296 175.336 270.936 173.056 270.456C170.608 269.952 168.424 269.448 168.424 266.736C168.424 264.672 170.008 263.328 172.888 263.328C175.96 263.328 177.472 264.792 177.76 267.216H175.768C175.576 265.584 174.688 264.864 172.84 264.864C171.064 264.864 170.344 265.656 170.344 266.64C170.344 267.984 171.544 268.248 173.68 268.68C176.176 269.184 178.264 269.736 178.264 272.592C178.264 275.088 176.224 276.36 173.368 276.36ZM184.829 276.36C181.421 276.36 179.525 274.752 179.333 271.968H181.325C181.589 274.128 183.029 274.728 184.877 274.728C186.917 274.728 187.757 273.84 187.757 272.688C187.757 271.296 186.797 270.936 184.517 270.456C182.069 269.952 179.885 269.448 179.885 266.736C179.885 264.672 181.469 263.328 184.349 263.328C187.421 263.328 188.933 264.792 189.221 267.216H187.229C187.037 265.584 186.149 264.864 184.301 264.864C182.525 264.864 181.805 265.656 181.805 266.64C181.805 267.984 183.005 268.248 185.141 268.68C187.637 269.184 189.725 269.736 189.725 272.592C189.725 275.088 187.685 276.36 184.829 276.36ZM197.124 276.336C193.332 276.336 191.124 273.408 191.124 269.808C191.124 266.208 193.476 263.28 197.004 263.28C200.724 263.28 202.716 266.16 202.716 270.264H193.116C193.26 272.784 194.628 274.704 197.124 274.704C198.924 274.704 200.124 273.84 200.556 272.16H202.452C201.876 274.824 199.932 276.336 197.124 276.336ZM197.004 264.816C194.7 264.816 193.452 266.544 193.164 268.8H200.628C200.508 266.328 199.236 264.816 197.004 264.816ZM204.617 276V263.592H206.561V265.368H206.609C207.377 264.168 208.697 263.304 210.257 263.304C211.769 263.304 212.969 264.072 213.497 265.512H213.545C214.337 264.096 215.825 263.304 217.337 263.304C219.545 263.304 221.105 264.72 221.105 267.288V276H219.161V267.384C219.161 265.848 218.129 264.936 216.881 264.936C215.273 264.936 213.833 266.328 213.833 268.272V276H211.889V267.384C211.889 265.848 211.025 264.936 209.753 264.936C208.241 264.936 206.561 266.328 206.561 268.272V276H204.617ZM229.576 276.36C227.896 276.36 226.672 275.76 225.664 274.368H225.616V276H223.672V258.84H225.616V265.368H225.664C226.6 264.096 227.848 263.304 229.648 263.304C232.792 263.304 234.928 265.704 234.928 269.832C234.928 273.816 232.936 276.36 229.576 276.36ZM229.432 274.728C231.808 274.728 232.936 272.664 232.936 269.856C232.936 267.072 231.808 264.96 229.456 264.96C226.744 264.96 225.496 267.168 225.496 269.856C225.496 272.64 226.792 274.728 229.432 274.728ZM236.939 276V258.84H238.883V276H236.939ZM246.905 276.336C243.113 276.336 240.905 273.408 240.905 269.808C240.905 266.208 243.257 263.28 246.785 263.28C250.505 263.28 252.497 266.16 252.497 270.264H242.897C243.041 272.784 244.409 274.704 246.905 274.704C248.705 274.704 249.905 273.84 250.337 272.16H252.233C251.657 274.824 249.713 276.336 246.905 276.336ZM246.785 264.816C244.481 264.816 243.233 266.544 242.945 268.8H250.409C250.289 266.328 249.017 264.816 246.785 264.816ZM259.198 276.36C255.814 276.36 253.702 273.816 253.702 269.832C253.702 265.704 256.078 263.304 259.15 263.304C260.902 263.304 262.246 264.168 263.038 265.344H263.086V258.84H265.03V276H263.086V274.488H263.038C262.102 275.688 260.95 276.36 259.198 276.36ZM259.27 274.728C262.03 274.728 263.206 272.664 263.206 269.856C263.206 266.976 261.814 264.96 259.246 264.96C256.894 264.96 255.694 267.072 255.694 269.856C255.694 272.664 256.894 274.728 259.27 274.728ZM271.484 276V263.592H273.428V276H271.484ZM271.484 261.24V258.84H273.428V261.24H271.484ZM278.022 263.592V265.224H278.07C278.958 264.048 280.206 263.304 282.006 263.304C284.598 263.304 286.182 264.72 286.182 267.288V276H284.238V267.456C284.238 265.848 283.182 264.936 281.43 264.936C279.462 264.936 278.022 266.328 278.022 268.368V276H276.078V263.592H278.022ZM297.882 276.336C294.186 276.336 291.882 273.408 291.882 269.808C291.882 266.208 294.186 263.28 297.882 263.28C300.81 263.28 302.754 264.96 303.186 267.6H301.218C300.93 265.92 299.754 264.888 297.882 264.888C295.242 264.888 293.874 267.072 293.874 269.808C293.874 272.544 295.242 274.704 297.882 274.704C299.898 274.704 301.098 273.552 301.266 271.632H303.186C302.922 274.608 300.978 276.336 297.882 276.336ZM306.967 258.84V265.224H307.015C307.903 264.048 309.151 263.304 310.951 263.304C313.543 263.304 315.127 264.72 315.127 267.288V276H313.183V267.456C313.183 265.848 312.127 264.936 310.375 264.936C308.407 264.936 306.967 266.328 306.967 268.368V276H305.023V258.84H306.967ZM317.703 276V263.592H319.647V276H317.703ZM317.703 261.24V258.84H319.647V261.24H317.703ZM324.241 263.592V265.224H324.289C325.177 264.048 326.425 263.304 328.225 263.304C330.817 263.304 332.401 264.72 332.401 267.288V276H330.457V267.456C330.457 265.848 329.401 264.936 327.649 264.936C325.681 264.936 324.241 266.328 324.241 268.368V276H322.297V263.592H324.241ZM344.72 276.12C343.448 276.12 342.776 275.544 342.584 274.272H342.56C341.816 275.232 340.544 276.24 338.432 276.24C336.08 276.24 334.232 275.136 334.232 272.784C334.232 269.856 336.536 269.256 339.632 268.776C341.384 268.512 342.608 268.344 342.608 267C342.608 265.608 341.6 264.816 339.824 264.816C337.808 264.816 336.8 265.68 336.728 267.552H334.856C334.928 265.152 336.512 263.352 339.8 263.352C342.44 263.352 344.384 264.336 344.384 267.288V273.192C344.384 274.2 344.624 274.752 345.704 274.512H345.776V275.928C345.536 276.024 345.224 276.12 344.72 276.12ZM338.864 274.752C341.456 274.752 342.632 272.856 342.632 271.416V269.304C341.984 269.712 340.856 270.024 339.8 270.216C337.856 270.576 336.296 270.912 336.296 272.736C336.296 274.392 337.592 274.752 338.864 274.752Z" fill="#846642"/>
<path d="M235.954 110.176V108.592H237.658V106.6C237.658 104.464 238.882 103.696 240.946 103.696C241.354 103.696 241.666 103.72 241.93 103.744V105.4C241.594 105.376 241.498 105.376 241.306 105.376C240.058 105.376 239.602 105.688 239.602 106.696V108.592H241.906V110.176H239.602V121H237.658V110.176H235.954ZM248.753 121.336C245.057 121.336 242.753 118.408 242.753 114.808C242.753 111.208 245.057 108.28 248.753 108.28C252.473 108.28 254.729 111.208 254.729 114.808C254.729 118.408 252.473 121.336 248.753 121.336ZM248.753 119.704C251.393 119.704 252.737 117.544 252.737 114.808C252.737 112.072 251.393 109.888 248.753 109.888C246.113 109.888 244.745 112.072 244.745 114.808C244.745 117.544 246.113 119.704 248.753 119.704ZM258.612 108.592V110.656H258.66C259.404 109.456 260.7 108.448 262.356 108.448C262.716 108.448 262.908 108.496 263.148 108.592V110.464H263.076C262.788 110.368 262.596 110.344 262.212 110.344C260.292 110.344 258.612 111.784 258.612 114.112V121H256.668V108.592H258.612Z" fill="#846642"/>
<path d="M75.3675 268.252H81.9602V239.789H75.3675V256.625C75.3675 260.682 72.8037 263.105 68.5917 263.105C64.1355 263.105 62.6094 260.077 62.6094 256.625V239.789H56.0167V258.381C56.0167 264.498 58.6416 269.04 65.5395 269.04C70.362 269.04 74.0246 266.557 75.3065 260.44H75.3675V268.252Z" fill="#846642"/>
<path d="M56 229H82V235.542H56V229Z" fill="#846642"/>
<path d="M284.003 79.9068C274.531 84.824 262.045 87.3115 249.5 87.3115C236.955 87.3115 224.469 84.824 214.997 79.9068C205.498 74.9756 201.082 68.6909 201.082 62.6967C201.082 56.7025 205.498 50.4179 214.997 45.4867C224.469 40.5694 236.955 38.082 249.5 38.082C262.045 38.082 274.531 40.5694 284.003 45.4867C293.502 50.4179 297.918 56.7025 297.918 62.6967C297.918 68.6909 293.502 74.9756 284.003 79.9068Z" stroke="#846642" stroke-width="2.16393"/>
<path d="M276.83 72.5985V56.4049H278.984V72.5985H276.83ZM276.83 54.4199V51.3208H278.984V54.4199H276.83Z" fill="#846642"/>
<path d="M251.646 72.5986V56.4049H253.707V60.9947L253.8 61.0339V72.5986H251.646ZM261.815 62.148C261.815 61.2065 261.673 60.4272 261.388 59.81C261.103 59.1875 260.685 58.7246 260.136 58.4213C259.587 58.1179 258.918 57.9662 258.13 57.9662C257.373 57.9662 256.669 58.1702 256.016 58.5782C255.363 58.9809 254.831 59.6138 254.422 60.4769C254.018 61.3399 253.81 62.4252 253.8 63.7329H252.323V60.9555H253.147C253.375 59.9669 253.73 59.1039 254.212 58.3664C254.694 57.6289 255.3 57.0561 256.031 56.6481C256.767 56.2349 257.607 56.0283 258.55 56.0283C259.706 56.0283 260.69 56.2794 261.504 56.7815C262.318 57.2784 262.929 57.9688 263.339 58.8528C263.754 59.7315 263.961 60.7436 263.961 61.8891V72.5986H261.815V62.148ZM271.976 62.148C271.976 61.2065 271.834 60.4272 271.548 59.81C271.269 59.1875 270.854 58.7246 270.305 58.4213C269.76 58.1179 269.089 57.9662 268.291 57.9662C267.524 57.9662 266.814 58.1702 266.161 58.5782C265.508 58.9809 264.979 59.6138 264.575 60.4769C264.176 61.3399 263.971 62.4252 263.961 63.7329H262.468V61.2693L263.02 61.2458C263.248 60.2258 263.616 59.3235 264.124 58.539C264.637 57.7544 265.282 57.1398 266.06 56.6952C266.837 56.2506 267.716 56.0283 268.695 56.0283C269.861 56.0283 270.851 56.2715 271.665 56.758C272.484 57.2444 273.098 57.927 273.508 58.8057C273.922 59.6844 274.13 60.7122 274.13 61.8891V72.5986H271.976V62.148Z" fill="#846642"/>
<path d="M242.457 72.9752C240.964 72.9752 239.656 72.6273 238.531 71.9317C237.412 71.2308 236.546 70.2422 235.934 68.966C235.328 67.6897 235.025 66.2017 235.025 64.5017C235.025 62.828 235.323 61.353 235.919 60.0767C236.515 58.7953 237.367 57.8015 238.477 57.0953C239.586 56.384 240.887 56.0283 242.379 56.0283C243.913 56.0283 245.23 56.3997 246.329 57.1424C247.427 57.8799 248.262 58.892 248.832 60.1787C249.402 61.4602 249.687 62.9064 249.687 64.5174C249.687 64.6273 249.687 64.7397 249.687 64.8548C249.687 64.9699 249.687 65.0876 249.687 65.2079H236.043V63.4033H248.42L247.471 63.9839C247.461 62.8123 247.259 61.7714 246.865 60.8613C246.471 59.946 245.891 59.2268 245.124 58.7037C244.356 58.1807 243.434 57.9191 242.356 57.9191C241.314 57.9191 240.407 58.1676 239.635 58.6645C238.868 59.1614 238.272 59.8858 237.847 60.8378C237.427 61.7897 237.209 62.9404 237.194 64.2899V64.5488C237.194 65.9506 237.404 67.1405 237.824 68.1186C238.243 69.0915 238.847 69.829 239.635 70.3311C240.428 70.8333 241.376 71.0843 242.48 71.0843C243.294 71.0843 244.02 70.9379 244.657 70.645C245.3 70.3468 245.834 69.9258 246.259 69.3818C246.684 68.8326 246.984 68.1866 247.16 67.4439H249.337C249.104 68.5371 248.679 69.4995 248.062 70.3311C247.451 71.1628 246.668 71.8114 245.714 72.2769C244.761 72.7424 243.675 72.9752 242.457 72.9752Z" fill="#846642"/>
<path d="M230.893 62.1716C230.893 61.2301 230.734 60.4482 230.418 59.8257C230.102 59.1981 229.646 58.7326 229.05 58.4292C228.454 58.1206 227.726 57.9663 226.866 57.9663C226.052 57.9663 225.29 58.1677 224.58 58.5704C223.87 58.9679 223.292 59.5825 222.846 60.4142C222.406 61.2458 222.18 62.2841 222.17 63.5289H220.669V60.9477L221.47 60.9555C221.698 59.9983 222.082 59.151 222.621 58.4135C223.16 57.6708 223.836 57.0876 224.65 56.6639C225.464 56.2402 226.373 56.0284 227.379 56.0284C228.56 56.0284 229.574 56.2559 230.418 56.711C231.268 57.166 231.916 57.8355 232.362 58.7195C232.813 59.5982 233.038 60.6626 233.038 61.9127V72.5986H230.893V62.1716ZM220.016 72.5986V50.2539H222.17V72.5986H220.016Z" fill="#846642"/>
<path d="M222.642 155.836C217.784 157.559 214.699 167.361 211.768 165.003C208.264 162.184 217.084 149.247 215.278 146.503C214.37 145.121 211.645 150.521 209.413 154.51C206.609 159.522 202.098 167.389 199.451 164.869C196.002 161.584 213.549 132.801 211.165 130.4C210.102 129.329 207.931 133.091 205.302 137.914L203.985 137.928C207.072 131.783 211.094 124.071 213.742 126.438C217.668 129.848 200 160 202.78 161.249C203.97 161.658 206.195 157.369 207.94 154.202C209.562 151.26 214.927 140.178 217.574 143.126C220.635 146.536 212.103 160.003 214.882 161.249C215.892 161.686 217.894 156.982 222.653 154.214L222.642 155.836Z" fill="#846642"/>
<path d="M282.402 170.611C282.707 170.617 283.008 170.621 283.306 170.621C283.604 170.621 283.898 170.621 284.189 170.621C284.907 170.621 285.523 170.493 286.037 170.238C286.552 169.982 286.985 169.616 287.337 169.139C287.696 168.668 288.01 168.073 288.281 167.354L289.581 163.916L289.5 166.487L280.889 143.892H283.946L288.647 156.808C289.06 157.984 289.456 159.117 289.835 160.206C290.214 161.294 290.59 162.4 290.962 163.523L290.139 163.553C290.539 162.276 290.928 161.052 291.307 159.883C291.686 158.713 292.035 157.678 292.353 156.778L296.892 143.892H299.907L291.074 167.757C290.6 169.034 290.058 170.049 289.449 170.802C288.846 171.562 288.126 172.116 287.286 172.466C286.454 172.822 285.442 173 284.25 173C283.952 173 283.641 172.994 283.316 172.98C282.998 172.967 282.693 172.95 282.402 172.93V170.611Z" fill="#846642"/>
<path d="M269.814 165.186C267.973 165.186 266.362 164.736 264.981 163.835C263.6 162.934 262.534 161.664 261.783 160.024C261.031 158.377 260.656 156.468 260.656 154.297C260.656 152.126 261.031 150.22 261.783 148.58C262.534 146.934 263.6 145.66 264.981 144.759C266.362 143.858 267.973 143.408 269.814 143.408C271.588 143.408 273.124 143.858 274.424 144.759C275.724 145.653 276.719 146.917 277.409 148.55C278.106 150.177 278.462 152.066 278.475 154.216V154.297C278.475 156.461 278.13 158.367 277.44 160.014C276.756 161.654 275.761 162.928 274.454 163.835C273.155 164.736 271.608 165.186 269.814 165.186ZM270.281 162.756C271.655 162.756 272.847 162.414 273.855 161.728C274.871 161.042 275.649 160.061 276.191 158.784C276.739 157.507 277.013 156.011 277.013 154.297C277.013 152.583 276.739 151.088 276.191 149.81C275.649 148.533 274.871 147.552 273.855 146.866C272.847 146.181 271.655 145.838 270.281 145.838C268.927 145.838 267.746 146.191 266.738 146.897C265.729 147.596 264.951 148.594 264.402 149.891C263.854 151.182 263.58 152.687 263.58 154.408C263.58 156.129 263.851 157.618 264.392 158.875C264.94 160.125 265.719 161.086 266.727 161.758C267.736 162.424 268.921 162.756 270.281 162.756ZM277.033 164.702V158.996H277.267V149.538H276.912V135.987H279.724V164.702H277.033Z" fill="#846642"/>
<path d="M241.053 164.702V143.892H243.744V149.79L243.866 149.841V164.702H241.053ZM255.258 151.303C255.258 150.093 255.052 149.088 254.639 148.288C254.226 147.482 253.63 146.883 252.852 146.493C252.074 146.097 251.123 145.899 249.999 145.899C248.936 145.899 247.941 146.157 247.014 146.675C246.086 147.186 245.332 147.976 244.749 149.044C244.174 150.113 243.88 151.447 243.866 153.047H241.906V149.74H242.952C243.25 148.51 243.751 147.421 244.455 146.473C245.159 145.519 246.042 144.769 247.105 144.225C248.168 143.68 249.356 143.408 250.669 143.408C252.212 143.408 253.536 143.701 254.639 144.285C255.749 144.87 256.595 145.731 257.178 146.866C257.766 147.996 258.061 149.364 258.061 150.97V164.702H255.258V151.303Z" fill="#846642"/>
<path d="M237.959 164.813C237.113 164.813 236.429 164.686 235.908 164.43C235.394 164.168 235.015 163.775 234.771 163.251C234.527 162.72 234.405 162.037 234.405 161.204L234.324 159.601V152.14V151.172V149.296C234.324 148.523 234.158 147.875 233.827 147.35C233.495 146.819 232.95 146.416 232.192 146.141C231.44 145.865 230.449 145.727 229.217 145.727C227.89 145.727 226.817 145.875 225.998 146.171C225.179 146.467 224.566 146.94 224.16 147.592C223.754 148.244 223.52 149.112 223.46 150.194H220.688C220.749 148.762 221.073 147.545 221.662 146.544C222.251 145.542 223.165 144.769 224.404 144.225C225.649 143.68 227.254 143.408 229.217 143.408C231.038 143.408 232.53 143.654 233.695 144.144C234.866 144.628 235.719 145.307 236.253 146.181C236.795 147.055 237.066 148.083 237.066 149.266V161.063C237.066 161.392 237.116 161.664 237.218 161.879C237.319 162.094 237.475 162.256 237.685 162.363C237.895 162.471 238.169 162.525 238.507 162.525C238.67 162.525 238.839 162.525 239.015 162.525C239.198 162.518 239.381 162.511 239.563 162.504V164.702C239.333 164.736 239.076 164.763 238.792 164.783C238.514 164.803 238.237 164.813 237.959 164.813ZM226.952 165.186C225.47 165.186 224.191 164.944 223.114 164.46C222.038 163.976 221.216 163.284 220.647 162.383C220.078 161.476 219.794 160.404 219.794 159.167C219.794 158.018 220.048 157.013 220.556 156.152C221.063 155.292 221.879 154.58 223.003 154.015C224.126 153.444 225.585 153.057 227.379 152.855L230.598 152.493C231.518 152.378 232.249 152.197 232.791 151.948C233.332 151.693 233.722 151.353 233.959 150.93C234.202 150.506 234.324 149.962 234.324 149.296L235.411 149.538C235.411 150.688 235.289 151.595 235.045 152.261C234.801 152.926 234.365 153.44 233.735 153.803C233.106 154.166 232.195 154.422 231.004 154.57L227.836 154.973C226.597 155.127 225.599 155.379 224.84 155.729C224.089 156.072 223.541 156.519 223.196 157.07C222.857 157.621 222.688 158.293 222.688 159.086C222.688 159.859 222.857 160.535 223.196 161.113C223.534 161.684 224.045 162.131 224.729 162.454C225.412 162.77 226.259 162.928 227.267 162.928C228.547 162.928 229.718 162.689 230.78 162.212C231.85 161.735 232.706 160.999 233.349 160.004C233.999 159.009 234.324 157.772 234.324 156.294H235.431V158.502C235.14 159.94 234.615 161.16 233.857 162.162C233.106 163.156 232.148 163.909 230.983 164.42C229.819 164.931 228.476 165.186 226.952 165.186Z" fill="#846642"/>
<path d="M441.769 262.096L441.769 262.093L441.769 262.076L441.769 262.074L441.769 262.072L441.769 262.072C441.757 260.667 440.652 259.5 439.252 259.5C437.855 259.5 436.753 260.661 436.735 262.061L436.735 262.067L436.735 262.067V262.078V263.575C436.38 262.669 435.563 262 434.5 262C433.782 262 433.21 262.315 432.831 262.821C432.464 263.311 432.299 263.952 432.299 264.608C432.299 264.608 432.299 264.608 432.299 264.608L432.298 277.372L429.968 274.952C429.953 274.937 429.939 274.921 429.923 274.906L429.89 274.871L429.89 274.871C429.871 274.851 429.85 274.832 429.829 274.815C429.386 274.411 428.802 274.162 428.16 274.162C426.752 274.162 425.643 275.342 425.643 276.757C425.643 277.405 425.874 278.001 426.259 278.458C426.277 278.482 426.296 278.505 426.317 278.527L432.785 285.244L438.525 291.343L438.673 291.5H438.889H444.568H444.784L444.932 291.342L450.507 285.401L450.643 285.257V285.059V274.681L450.643 274.678L450.643 274.671L450.643 274.671V274.663V267.734H450.643L450.643 267.723L450.643 267.72C450.643 267.719 450.643 267.718 450.643 267.717C450.635 267.081 450.487 266.424 450.149 265.909C449.8 265.375 449.245 265 448.5 265C447.452 265 446.585 265.657 446.206 266.569V264.383H446.206L446.206 264.372L446.206 264.368C446.206 264.367 446.206 264.366 446.206 264.365C446.188 262.965 445.086 261.804 443.689 261.804C442.97 261.804 442.403 262.126 442.03 262.633C441.927 262.774 441.84 262.926 441.769 263.087V262.112V262.111L441.769 262.096Z" stroke="#846642"/>
<g clip-path="url(#clip2_5454_8872)">
<path d="M426.205 239.746C426.768 230.952 433.447 223.833 441.5 223.833C449.475 223.833 456.101 230.813 456.777 239.488C456.826 240.116 456.404 240.694 455.766 240.864C443.633 244.097 431.869 242.78 426.964 240.958C426.477 240.776 426.17 240.291 426.205 239.746Z" stroke="#846642"/>
<path d="M427.333 236.667H424.254C423.149 236.667 422.254 237.562 422.254 238.667V243C422.254 244.104 421.359 245 420.254 245H414" stroke="#846642"/>
</g>
<defs>
<clipPath id="clip0_5454_8872">
<rect width="43.125" height="35.9375" fill="white" transform="translate(261.469 393)"/>
</clipPath>
<clipPath id="clip1_5454_8872">
<rect width="44.5625" height="31.625" fill="white" transform="translate(195 394)"/>
</clipPath>
<clipPath id="clip2_5454_8872">
<rect width="40" height="40" fill="white" transform="translate(419 215)"/>
</clipPath>
</defs>
</svg>
