<svg width="289" height="135" viewBox="0 0 289 135" fill="none" xmlns="http://www.w3.org/2000/svg">
<path d="M67.6493 85.6992C53.7484 90.6484 44.9205 118.803 36.5343 112.031C26.5072 103.933 51.7461 66.773 46.5782 58.8904C43.979 54.923 36.1815 70.4332 29.7965 81.8892C21.7729 96.2853 8.86503 118.883 1.29029 111.645C-8.57941 102.21 41.6292 19.534 34.8101 12.6384C31.7667 9.56096 25.5562 20.3688 18.031 34.2209L14.2648 34.2618C23.0981 16.6121 34.6064 -5.5406 42.1823 1.2579C53.4164 11.0529 2.86085 97.6606 10.816 101.248C14.2208 102.421 20.5865 90.103 25.582 81.0053C30.2222 72.5547 45.5723 40.7239 53.1482 49.192C61.9057 58.987 37.4921 97.6668 45.4459 101.248C48.3346 102.504 54.0625 88.9895 67.6807 81.0406L67.6493 85.6992Z" fill="#CDC5B6"/>
<path d="M238.646 128.136C239.518 128.156 240.38 128.165 241.232 128.165C242.084 128.165 242.927 128.165 243.759 128.165C245.813 128.165 247.575 127.799 249.047 127.065C250.519 126.331 251.759 125.279 252.766 123.908C253.793 122.557 254.693 120.848 255.468 118.782L259.187 108.907L258.955 116.292L234.317 51.3915H243.062L256.514 88.4897C257.696 91.8684 258.829 95.1216 259.913 98.2493C260.998 101.377 262.073 104.553 263.138 107.777L260.785 107.864C261.928 104.196 263.041 100.682 264.126 97.3226C265.211 93.9632 266.208 90.9899 267.119 88.4028L280.106 51.3915H288.735L263.458 119.941C262.102 123.609 260.553 126.524 258.809 128.687C257.085 130.868 255.023 132.461 252.621 133.465C250.238 134.488 247.343 135 243.934 135C243.082 135 242.191 134.981 241.261 134.942C240.351 134.903 239.479 134.855 238.646 134.797V128.136Z" fill="#CDC5B6"/>
<path d="M202.627 112.556C197.358 112.556 192.748 111.262 188.797 108.675C184.846 106.088 181.795 102.439 179.645 97.728C177.495 92.9978 176.42 87.5147 176.42 81.2785C176.42 75.0424 177.495 69.5689 179.645 64.858C181.795 60.1278 184.846 56.4692 188.797 53.8821C192.748 51.2949 197.358 50.0014 202.627 50.0014C207.701 50.0014 212.098 51.2949 215.817 53.8821C219.536 56.4499 222.383 60.0796 224.359 64.7711C226.354 69.4434 227.371 74.8686 227.409 81.0468V81.2785C227.409 87.4953 226.422 92.9689 224.446 97.6991C222.49 102.41 219.642 106.069 215.904 108.675C212.185 111.262 207.759 112.556 202.627 112.556ZM203.963 105.576C207.895 105.576 211.304 104.592 214.19 102.622C217.095 100.653 219.323 97.8342 220.872 94.1659C222.441 90.4976 223.226 86.2018 223.226 81.2785C223.226 76.3553 222.441 72.0595 220.872 68.3912C219.323 64.7229 217.095 61.9041 214.19 59.9348C211.304 57.9655 207.895 56.9808 203.963 56.9808C200.089 56.9808 196.709 57.9944 193.823 60.0216C190.937 62.0296 188.71 64.8966 187.141 68.6229C185.572 72.3298 184.788 76.6545 184.788 81.5971C184.788 86.5397 185.562 90.8161 187.112 94.4265C188.681 98.0176 190.908 100.778 193.794 102.709C196.68 104.621 200.07 105.576 203.963 105.576ZM223.284 111.166V94.774H223.952V67.6093H222.935V28.6866H230.983V111.166H223.284Z" fill="#CDC5B6"/>
<path d="M120.331 111.166V51.3915H128.03V68.3333L128.379 68.4781V111.166H120.331ZM160.977 72.6773C160.977 69.2021 160.386 66.3157 159.205 64.0182C158.023 61.7014 156.319 59.9831 154.092 58.8632C151.864 57.7241 149.143 57.1546 145.927 57.1546C142.886 57.1546 140.039 57.8979 137.386 59.3845C134.732 60.8519 132.572 63.1204 130.907 66.1902C129.26 69.26 128.418 73.0924 128.379 77.6875H122.772V68.1885H125.764C126.616 64.6553 128.05 61.5276 130.064 58.8053C132.078 56.0638 134.606 53.911 137.647 52.3472C140.688 50.7833 144.087 50.0014 147.845 50.0014C152.261 50.0014 156.048 50.8412 159.205 52.5209C162.382 54.2006 164.803 56.6719 166.468 59.9348C168.154 63.1783 168.996 67.1073 168.996 71.7216V111.166H160.977V72.6773Z" fill="#CDC5B6"/>
<path d="M111.477 111.484C109.056 111.484 107.1 111.117 105.608 110.384C104.136 109.631 103.051 108.501 102.354 106.995C101.657 105.47 101.308 103.51 101.308 101.116L101.076 96.5117V75.081V72.3009V66.9142C101.076 64.6939 100.601 62.8308 99.6522 61.3249C98.7031 59.7996 97.1438 58.6412 94.9745 57.8496C92.8245 57.0581 89.9869 56.6623 86.4618 56.6623C82.6654 56.6623 79.5954 57.087 77.2517 57.9365C74.908 58.786 73.1551 60.1472 71.993 62.0199C70.8308 63.8927 70.1626 66.3833 69.9883 69.4917H62.0566C62.2309 65.3793 63.1606 61.8848 64.8458 59.008C66.5309 56.1313 69.1457 53.911 72.6903 52.3472C76.2542 50.7833 80.8447 50.0014 86.4618 50.0014C91.6721 50.0014 95.943 50.7061 99.2745 52.1155C102.625 53.5056 105.066 55.4556 106.596 57.9655C108.146 60.4754 108.92 63.4293 108.92 66.8273V100.711C108.92 101.657 109.066 102.439 109.356 103.057C109.647 103.675 110.092 104.138 110.693 104.447C111.293 104.756 112.077 104.91 113.046 104.91C113.511 104.91 113.995 104.91 114.499 104.91C115.022 104.891 115.545 104.872 116.068 104.852V111.166C115.409 111.262 114.673 111.339 113.859 111.397C113.065 111.455 112.271 111.484 111.477 111.484ZM79.9828 112.556C75.7409 112.556 72.0801 111.861 69.0005 110.471C65.9208 109.08 63.5674 107.092 61.9404 104.505C60.3134 101.898 59.4999 98.8189 59.4999 95.2664C59.4999 91.9649 60.2262 89.0785 61.6789 86.6073C63.1316 84.136 65.4656 82.0894 68.6809 80.4677C71.8961 78.8266 76.0702 77.7164 81.203 77.1372L90.4131 76.0947C93.0473 75.7664 95.1391 75.2452 96.6887 74.5308C98.2382 73.7971 99.3519 72.8221 100.03 71.6058C100.727 70.3895 101.076 68.8256 101.076 66.9142L104.185 67.6093C104.185 70.9108 103.836 73.5172 103.139 75.4286C102.441 77.3399 101.192 78.8169 99.3907 79.8595C97.5893 80.9021 94.9842 81.6357 91.5752 82.0605L82.5104 83.2189C78.9659 83.663 76.1089 84.387 73.9396 85.3909C71.7896 86.3756 70.2207 87.6595 69.2329 89.2426C68.2644 90.8258 67.7802 92.7565 67.7802 95.0347C67.7802 97.255 68.2644 99.1954 69.2329 100.856C70.2013 102.497 71.6637 103.781 73.62 104.707C75.5763 105.615 77.9974 106.069 80.8834 106.069C84.5442 106.069 87.8951 105.383 90.936 104.012C93.9964 102.642 96.4466 100.528 98.2866 97.6701C100.146 94.8127 101.076 91.2602 101.076 87.0127H104.243V93.355C103.41 97.4867 101.909 100.991 99.7393 103.868C97.5893 106.725 94.8486 108.887 91.5171 110.355C88.1856 111.822 84.3408 112.556 79.9828 112.556Z" fill="#CDC5B6"/>
</svg>
