<?xml version="1.0" encoding="UTF-8"?>
<svg id="_Слой_1" data-name=" Слой 1" xmlns="http://www.w3.org/2000/svg" xmlns:xlink="http://www.w3.org/1999/xlink" version="1.1" viewBox="0 0 500 500">
  <defs>
    <style>
      .cls-1 {
        fill: #f44a2b;
      }

      .cls-1, .cls-2, .cls-3 {
        stroke-width: 0px;
      }

      .cls-4 {
        clip-path: url(#clippath);
      }

      .cls-2, .cls-5, .cls-6 {
        fill: none;
      }

      .cls-7 {
        clip-path: url(#clippath-1);
      }

      .cls-8 {
        clip-path: url(#clippath-2);
      }

      .cls-3 {
        fill: #f4492b;
      }

      .cls-5 {
        stroke-width: 2.2px;
      }

      .cls-5, .cls-6 {
        stroke: #f4492b;
      }
    </style>
    <clipPath id="clippath">
      <rect class="cls-2" x="261.5" y="393" width="43.1" height="35.9"/>
    </clipPath>
    <clipPath id="clippath-1">
      <rect class="cls-2" x="195" y="394" width="44.6" height="31.6"/>
    </clipPath>
    <clipPath id="clippath-2">
      <rect class="cls-2" x="419" y="215" width="40" height="40"/>
    </clipPath>
  </defs>
  <path class="cls-6" d="M499.5,250c0,137.8-111.7,249.5-249.5,249.5S.5,387.8.5,250,112.2.5,250,.5s249.5,111.7,249.5,249.5Z"/>
  <g class="cls-4">
    <g>
      <path class="cls-6" d="M294.5,398.3c-2.7-.9-5.7-.9-8.4,0-2.7.9-5.1,2.6-6.8,4.9-1.7,2.3-2.6,5.1-2.5,8,0,2.9,1,5.6,2.7,7.9s4.1,4,6.9,4.8c2.7.8,5.7.8,8.4-.1,2.7-.9,5.1-2.7,6.7-5l2.8,2c-2.1,2.9-5,5.1-8.4,6.3-3.4,1.2-7.1,1.2-10.6.2-3.4-1.1-6.5-3.2-8.6-6-2.2-2.9-3.3-6.3-3.4-9.9,0-3.6,1.1-7.1,3.2-10s5.1-5.1,8.5-6.2,7.1-1.1,10.6,0c3.4,1.1,6.4,3.3,8.5,6.1l-2.8,2c-1.7-2.3-4.1-4-6.8-4.9h0ZM292.2,405.2c-1.3-.4-2.6-.4-3.9,0s-2.4,1.2-3.1,2.3c-.8,1.1-1.2,2.4-1.2,3.7s.4,2.6,1.2,3.6,1.9,1.8,3.2,2.2c1.3.4,2.6.4,3.9,0s2.3-1.2,3.1-2.3l2.8,2c-1.2,1.7-2.9,2.9-4.8,3.6s-4.1.7-6,0c-2-.6-3.7-1.8-4.9-3.4-1.2-1.6-1.9-3.6-1.9-5.7s.6-4,1.8-5.7c1.2-1.7,2.9-2.9,4.8-3.5,2-.6,4.1-.6,6,0,2,.6,3.7,1.9,4.9,3.5l-2.8,2c-.8-1.1-1.9-1.9-3.1-2.3h0Z"/>
      <path class="cls-6" d="M273,409.3h-7.1v-11.3h8.4l2.6-3.4h-14.4v32.7l3.5-2.3v-12.3h7.1v-3.4h-.1Z"/>
    </g>
  </g>
  <g class="cls-7">
    <g>
      <path class="cls-6" d="M212,421.4v3.7h-1.1c-4.1,0-8-1.6-10.9-4.5s-4.5-6.8-4.5-10.8,1.6-8,4.5-10.8c2.9-2.9,6.8-4.5,10.9-4.5s.7,0,1.1,0v3.7h-1.1c-3.1,0-6,1.2-8.2,3.4-2.2,2.2-3.4,5.1-3.4,8.2s1.2,6,3.4,8.2,5.1,3.4,8.2,3.4h1.1Z"/>
      <path class="cls-6" d="M235.9,407.9h-9.4v-.6c.7-2.6,2.1-4.9,4.2-6.5,2.1-1.7,4.6-2.6,7.3-2.6h1.1v-3.7h-1.1c-4.1,0-8,1.6-10.9,4.5s-4.5,6.8-4.5,10.8,1.6,8,4.5,10.8c2.9,2.9,6.8,4.5,10.9,4.5s.7,0,1.1,0v-3.7h-1.1M235.9,407.9h0v3.7M238,420.9v.5h0v-.5M238,421.4h0v-.5M238,421.4c-2.7,0-5.2-.9-7.3-2.6s-3.5-4-4.1-6.5v-.6c-.1,0,.5,0,.5,0h8.8M235.9,411.7h.5"/>
    </g>
  </g>
  <path class="cls-3" d="M124.5,250.4c-1.7,0-3-.6-4-1.8s-1.5-2.8-1.5-4.8.5-3.6,1.5-4.8,2.3-1.8,3.9-1.8,3,.7,3.9,2h0v-6.5h1.9v17.2h-1.9v-1.5h0c-1,1.2-2.3,1.9-3.8,1.9h0ZM124.6,248.7c1.3,0,2.3-.4,3-1.3.7-.9,1-2.1,1-3.6s-.4-2.7-1.1-3.6c-.7-.9-1.7-1.3-2.9-1.3s-2,.5-2.6,1.4-.9,2.1-.9,3.5.3,2.6.9,3.5,1.5,1.3,2.7,1.3h-.1ZM138.3,250.3c-1.8,0-3.3-.6-4.4-1.8-1.1-1.2-1.6-2.8-1.6-4.7s.5-3.4,1.6-4.6c1.1-1.3,2.5-1.9,4.2-1.9s3.2.6,4.2,1.9c1,1.3,1.5,3,1.5,5.1h-9.6c0,1.3.5,2.4,1.2,3.2s1.7,1.2,2.9,1.2c1.9,0,3-.8,3.4-2.5h1.9c-.3,1.3-.9,2.4-1.8,3.1-.9.7-2.1,1.1-3.5,1.1h0ZM140.8,239.9c-.6-.7-1.5-1.1-2.6-1.1s-2,.4-2.6,1.1c-.6.7-1,1.7-1.2,2.9h7.5c0-1.2-.4-2.2-1-2.9h0ZM150.5,250.4c-1.7,0-3-.4-4-1.1-.9-.8-1.4-1.9-1.5-3.3h2c.2,1.8,1.4,2.8,3.6,2.8s1.7-.2,2.2-.6c.5-.4.7-.9.7-1.5s-.2-1.1-.7-1.4c-.5-.3-1.3-.6-2.5-.8-.5-.1-.9-.2-1.2-.3-.3,0-.6-.2-1.1-.3-.4-.1-.7-.3-1-.5-.2-.2-.5-.4-.7-.6-.2-.2-.4-.5-.5-.9,0-.4-.1-.7-.1-1.2,0-1.1.4-1.9,1.2-2.5s1.9-.9,3.3-.9c2.9,0,4.6,1.3,4.9,3.9h-2c0-.8-.4-1.4-.8-1.8-.5-.4-1.2-.6-2.1-.6s-1.5.2-1.9.5-.6.7-.6,1.3.2,1,.7,1.3c.5.2,1.4.5,2.6.7.8.2,1.4.3,1.8.5.4.1.9.3,1.4.6s.8.6,1.1,1.1.3,1,.3,1.7c0,1.2-.4,2.2-1.3,2.8-.9.6-2.1,1-3.6,1h-.2,0ZM157.3,250v-12.4h1.9v12.4h-1.9ZM157.3,235.2v-2.4h1.9v2.4h-1.9ZM166.8,254.1c-1.6,0-2.8-.3-3.7-.9-.9-.6-1.4-1.4-1.5-2.5h1.8c.2,1.3,1.3,1.9,3.4,1.9s3.6-1.1,3.6-3.2v-1.8h0c-.5.6-1,1.1-1.6,1.4-.6.3-1.3.5-2.1.5-1.6,0-2.9-.6-3.9-1.7-1-1.2-1.5-2.6-1.5-4.4s.5-3.4,1.5-4.5,2.3-1.7,3.8-1.7,2.9.6,3.8,1.9h0v-1.6h1.9v11.7c0,1.6-.5,2.8-1.5,3.6s-2.3,1.2-4,1.2h0ZM166.7,247.9c2.5,0,3.8-1.5,3.8-4.6s-1.3-4.4-3.8-4.4-2,.4-2.6,1.2-.9,1.9-.9,3.3.3,2.5.9,3.3c.6.8,1.5,1.2,2.6,1.2ZM176.8,237.6v1.6h0c1-1.3,2.3-1.9,3.9-1.9s2.3.3,3.1,1c.7.7,1.1,1.7,1.1,3v8.7h-1.9v-8.5c0-.8-.2-1.4-.7-1.8-.5-.4-1.2-.7-2.1-.7s-1.8.3-2.4,1-1,1.5-1,2.5v7.6h-1.9v-12.4h1.9,0ZM192.9,250.3c-1.8,0-3.3-.6-4.4-1.8-1.1-1.2-1.6-2.8-1.6-4.7s.5-3.4,1.6-4.6c1.1-1.3,2.5-1.9,4.2-1.9s3.2.6,4.2,1.9c1,1.3,1.5,3,1.5,5.1h-9.6c0,1.3.5,2.4,1.2,3.2s1.7,1.2,2.9,1.2c1.9,0,3-.8,3.4-2.5h1.9c-.3,1.3-.9,2.4-1.8,3.1-.9.7-2.1,1.1-3.5,1.1h0ZM195.3,239.9c-.6-.7-1.5-1.1-2.6-1.1s-2,.4-2.6,1.1c-.6.7-1,1.7-1.2,2.9h7.5c0-1.2-.4-2.2-1-2.9h0ZM205.2,250.4c-1.7,0-3-.6-4-1.8s-1.5-2.8-1.5-4.8.5-3.6,1.5-4.8,2.3-1.8,3.9-1.8,3,.7,3.9,2h0v-6.5h1.9v17.2h-1.9v-1.5h0c-1,1.2-2.3,1.9-3.8,1.9h0ZM205.2,248.7c1.3,0,2.3-.4,3-1.3.7-.9,1-2.1,1-3.6s-.4-2.7-1.1-3.6c-.7-.9-1.7-1.3-2.9-1.3s-2,.5-2.6,1.4-.9,2.1-.9,3.5.3,2.6.9,3.5c.6.9,1.5,1.3,2.7,1.3h0ZM223.4,250.4c-1.6,0-3-.7-3.9-2h0v1.6h-1.9v-17.2h1.9v6.5h0c1-1.4,2.3-2.1,4-2.1s2.9.6,3.8,1.8c1,1.2,1.4,2.7,1.4,4.8s-.5,3.6-1.4,4.8-2.2,1.8-3.9,1.8h0ZM223.2,248.7c1.2,0,2-.4,2.6-1.3.6-.9.9-2.1.9-3.6s-.3-2.6-.9-3.5c-.6-.9-1.5-1.4-2.6-1.4s-2.3.5-3,1.4-1,2.1-1,3.5.3,2.6,1,3.5,1.6,1.3,2.9,1.3h.1ZM232,254.1c-.7,0-1.3,0-1.8-.3v-1.7h0c.3.2.8.3,1.3.3s.8-.1,1.1-.3.5-.6.8-1.2l.5-1.2-4.8-12h2.1l2.9,7.7.8,2.4h0c.3-.9.6-1.7.8-2.4l2.8-7.7h2.1l-5.3,13.4c-.5,1.2-1,2-1.5,2.4s-1.2.6-2,.6h.2,0ZM255.8,250h-1.9v-1.7h0c-1,1.3-2.2,2-3.7,2s-2.3-.4-3-1.1c-.8-.7-1.1-1.7-1.1-3v-8.6h1.9v8.5c0,.8.2,1.4.7,1.9.5.4,1.2.7,2.1.7s1.8-.3,2.4-1c.6-.7.9-1.5.9-2.5v-7.6h1.9v12.4h-.2,0ZM260.4,237.6v1.6h0c1-1.3,2.3-1.9,3.9-1.9s2.3.3,3.1,1c.7.7,1.1,1.7,1.1,3v8.7h-1.9v-8.5c0-.8-.2-1.4-.7-1.8-.5-.4-1.2-.7-2.1-.7s-1.8.3-2.4,1c-.6.6-1,1.5-1,2.5v7.6h-1.9v-12.4h1.9ZM275.9,250.4c-1.7,0-3-.6-4-1.8s-1.5-2.8-1.5-4.8.5-3.6,1.5-4.8,2.3-1.8,3.9-1.8,3,.7,3.9,2h0v-6.5h1.9v17.2h-1.9v-1.5h0c-1,1.2-2.3,1.9-3.8,1.9h0ZM276,248.7c1.3,0,2.3-.4,3-1.3.7-.9,1-2.1,1-3.6s-.4-2.7-1.1-3.6c-.7-.9-1.7-1.3-2.9-1.3s-2,.5-2.6,1.4-.9,2.1-.9,3.5.3,2.6.9,3.5,1.5,1.3,2.7,1.3h-.1ZM289.7,250.3c-1.8,0-3.3-.6-4.4-1.8s-1.6-2.8-1.6-4.7.5-3.4,1.6-4.6c1.1-1.3,2.5-1.9,4.2-1.9s3.2.6,4.2,1.9c1,1.3,1.5,3,1.5,5.1h-9.6c0,1.3.5,2.4,1.2,3.2s1.7,1.2,2.9,1.2c1.9,0,3-.8,3.4-2.5h1.9c-.3,1.3-.9,2.4-1.8,3.1-.9.7-2.1,1.1-3.5,1.1h0ZM292.2,239.9c-.6-.7-1.5-1.1-2.6-1.1s-2,.4-2.6,1.1c-.6.7-1,1.7-1.2,2.9h7.5c0-1.2-.4-2.2-1-2.9h0ZM299.1,237.6v2.1h0c.4-.7.9-1.2,1.6-1.6.6-.4,1.4-.6,2.1-.6s.6,0,.8.1v1.9h0c-.2,0-.5-.1-.9-.1-1,0-1.8.4-2.5,1.1-.7.7-1.1,1.6-1.1,2.7v6.9h-1.9v-12.4h1.9ZM309.2,250v-12.4h1.9v12.4h-1.9ZM309.2,235.2v-2.4h1.9v2.4h-1.9ZM315.8,237.6v1.6h0c1-1.3,2.3-1.9,3.9-1.9s2.3.3,3.1,1,1.1,1.7,1.1,3v8.7h-1.9v-8.5c0-.8-.2-1.4-.7-1.8-.5-.4-1.2-.7-2.1-.7s-1.8.3-2.4,1c-.6.6-1,1.5-1,2.5v7.6h-1.9v-12.4h1.9ZM330.3,250v-12.4h1.9v12.4h-1.9ZM330.3,235.2v-2.4h1.9v2.4h-1.9ZM339.6,250.4c-1.7,0-3-.4-4-1.1-.9-.8-1.4-1.9-1.5-3.3h2c.2,1.8,1.4,2.8,3.6,2.8s1.7-.2,2.2-.6c.5-.4.7-.9.7-1.5s-.2-1.1-.7-1.4c-.5-.3-1.3-.6-2.5-.8-.5-.1-.9-.2-1.2-.3-.3,0-.6-.2-1.1-.3-.4-.1-.7-.3-1-.5-.2-.2-.5-.4-.7-.6-.2-.2-.4-.5-.5-.9,0-.4-.1-.7-.1-1.2,0-1.1.4-1.9,1.2-2.5.8-.6,1.9-.9,3.3-.9,2.9,0,4.6,1.3,4.9,3.9h-2c0-.8-.4-1.4-.8-1.8-.5-.4-1.2-.6-2.1-.6s-1.5.2-1.9.5-.6.7-.6,1.3.2,1,.7,1.3c.5.2,1.4.5,2.6.7.8.2,1.4.3,1.8.5.4.1.9.3,1.4.6s.8.6,1.1,1.1.3,1,.3,1.7c0,1.2-.4,2.2-1.3,2.8s-2.1,1-3.6,1h-.2,0ZM348.3,237.6v2.1h0c.4-.7.9-1.2,1.6-1.6.6-.4,1.4-.6,2.1-.6s.6,0,.8.1v1.9h0c-.2,0-.5-.1-.9-.1-1,0-1.8.4-2.5,1.1-.7.7-1.1,1.6-1.1,2.7v6.9h-1.9v-12.4h1.9ZM363.9,250.1c-1.2,0-1.9-.6-2.1-1.8h0c-1,1.3-2.4,2-4.1,2s-2.2-.3-3-.9c-.8-.6-1.2-1.4-1.2-2.6s0-1.1.3-1.5c.2-.4.4-.8.7-1,.3-.3.7-.5,1.2-.7s1-.4,1.5-.5,1.1-.2,1.8-.3c.5,0,.8-.1,1-.1s.5-.1.8-.2c.3,0,.5-.2.7-.3.1-.1.2-.3.4-.5s.2-.4.2-.7c0-.7-.2-1.2-.7-1.6-.5-.4-1.2-.6-2-.6-2,0-3,.9-3.1,2.7h-1.9c0-1.3.5-2.3,1.3-3,.8-.8,2.1-1.2,3.6-1.2,3.1,0,4.6,1.3,4.6,3.9v5.9c0,.5,0,.9.3,1.2.2.2.5.3,1.1.2h0v1.4c-.3.1-.7.2-1.1.2h-.3,0ZM358,248.8c1.2,0,2.1-.3,2.8-1,.7-.7,1-1.5,1-2.3v-2.1c-.6.4-1.5.7-2.8.9-.5,0-.9.2-1.1.2-.3,0-.6.1-.9.3-.4.1-.6.3-.8.4-.2.2-.3.4-.5.6-.1.3-.2.6-.2.9,0,1.3.9,2,2.6,2h-.1ZM371.7,250.3c-1.8,0-3.3-.6-4.4-1.8s-1.6-2.8-1.6-4.7.5-3.4,1.6-4.6c1.1-1.3,2.5-1.9,4.2-1.9s3.2.6,4.2,1.9c1,1.3,1.5,3,1.5,5.1h-9.6c0,1.3.5,2.4,1.2,3.2s1.7,1.2,2.9,1.2c1.9,0,3-.8,3.4-2.5h1.9c-.3,1.3-.9,2.4-1.8,3.1-.9.7-2.1,1.1-3.5,1.1h0ZM374.1,239.9c-.6-.7-1.5-1.1-2.6-1.1s-2,.4-2.6,1.1c-.6.7-1,1.7-1.2,2.9h7.5c0-1.2-.4-2.2-1-2.9h0ZM379.2,250v-17.2h1.9v17.2h-1.9ZM166.2,276.1c-1.2,0-1.9-.6-2.1-1.8h0c-1,1.3-2.4,2-4.1,2s-2.2-.3-3-.9-1.2-1.4-1.2-2.6,0-1.1.3-1.5c.2-.4.4-.8.7-1,.3-.3.7-.5,1.2-.7s1-.4,1.5-.5,1.1-.2,1.8-.3c.5,0,.8-.1,1-.1s.5-.1.8-.2c.3,0,.5-.2.7-.3.1-.1.2-.3.4-.5.1-.2.2-.4.2-.7,0-.7-.2-1.2-.7-1.6s-1.2-.6-2-.6c-2,0-3,.9-3.1,2.7h-1.9c0-1.3.5-2.3,1.3-3,.8-.8,2.1-1.2,3.6-1.2,3.1,0,4.6,1.3,4.6,3.9v5.9c0,.5,0,.9.3,1.2.2.2.5.3,1.1.2h0v1.4c-.3.1-.7.2-1.1.2h-.3ZM160.3,274.8c1.2,0,2.1-.3,2.8-1s1-1.5,1-2.3v-2.1c-.6.4-1.5.7-2.8.9-.5,0-.9.2-1.1.2-.3,0-.6.1-.9.3-.4.1-.6.3-.8.4-.2.2-.3.4-.5.6-.1.3-.2.6-.2.9,0,1.3.9,2,2.6,2h-.1ZM173.4,276.4c-1.7,0-3-.4-4-1.1-.9-.8-1.4-1.9-1.5-3.3h2c.2,1.8,1.4,2.8,3.6,2.8s1.7-.2,2.2-.6.7-.9.7-1.5-.2-1.1-.7-1.4-1.3-.6-2.5-.8c-.5-.1-.9-.2-1.2-.3-.3,0-.6-.2-1.1-.3-.4-.1-.7-.3-1-.5-.2-.2-.5-.4-.7-.6s-.4-.5-.5-.9c0-.4-.1-.7-.1-1.2,0-1.1.4-1.9,1.2-2.5s1.9-.9,3.3-.9c2.9,0,4.6,1.3,4.9,3.9h-2c0-.8-.4-1.4-.8-1.8-.5-.4-1.2-.6-2.1-.6s-1.5.2-1.9.5-.6.7-.6,1.3.2,1,.7,1.3c.5.2,1.4.5,2.6.7.8.2,1.4.3,1.8.5.4.1.9.3,1.4.6.5.3.8.6,1.1,1.1.2.5.3,1,.3,1.7,0,1.2-.4,2.2-1.3,2.8-.9.6-2.1,1-3.6,1h-.2,0ZM184.8,276.4c-1.7,0-3-.4-4-1.1-.9-.8-1.4-1.9-1.5-3.3h2c.2,1.8,1.4,2.8,3.6,2.8s1.7-.2,2.2-.6.7-.9.7-1.5-.2-1.1-.7-1.4-1.3-.6-2.5-.8c-.5-.1-.9-.2-1.2-.3-.3,0-.6-.2-1.1-.3-.4-.1-.7-.3-1-.5-.2-.2-.5-.4-.7-.6s-.4-.5-.5-.9c0-.4-.1-.7-.1-1.2,0-1.1.4-1.9,1.2-2.5s1.9-.9,3.3-.9c2.9,0,4.6,1.3,4.9,3.9h-2c0-.8-.4-1.4-.8-1.8-.5-.4-1.2-.6-2.1-.6s-1.5.2-1.9.5-.6.7-.6,1.3.2,1,.7,1.3c.5.2,1.4.5,2.6.7.8.2,1.4.3,1.8.5.4.1.9.3,1.4.6.5.3.8.6,1.1,1.1.2.5.3,1,.3,1.7,0,1.2-.4,2.2-1.3,2.8-.9.6-2.1,1-3.6,1h-.2,0ZM197.1,276.3c-1.8,0-3.3-.6-4.4-1.8-1.1-1.2-1.6-2.8-1.6-4.7s.5-3.4,1.6-4.6c1.1-1.3,2.5-1.9,4.2-1.9s3.2.6,4.2,1.9,1.5,3,1.5,5.1h-9.6c0,1.3.5,2.4,1.2,3.2.7.8,1.7,1.2,2.9,1.2,1.9,0,3-.8,3.4-2.5h1.9c-.3,1.3-.9,2.4-1.8,3.1-.9.7-2.1,1.1-3.5,1.1h0ZM199.6,265.9c-.6-.7-1.5-1.1-2.6-1.1s-2,.4-2.6,1.1-1,1.7-1.2,2.9h7.5c0-1.2-.4-2.2-1-2.9h0ZM204.6,276v-12.4h1.9v1.8h0c.4-.6.9-1.1,1.6-1.5.6-.4,1.3-.6,2.1-.6,1.6,0,2.7.7,3.2,2.2h0c.4-.7.9-1.2,1.6-1.6.7-.4,1.4-.6,2.2-.6s2,.4,2.7,1.1,1,1.7,1,2.9v8.7h-1.9v-8.6c0-.8-.2-1.3-.7-1.8s-1-.7-1.6-.7-1.5.3-2.1,1c-.6.6-.9,1.4-.9,2.4v7.7h-1.9v-8.6c0-.8-.2-1.3-.6-1.8-.4-.4-.9-.7-1.5-.7s-1.5.3-2.2,1c-.7.6-1,1.4-1,2.4v7.7h-1.9ZM229.6,276.4c-1.6,0-3-.7-3.9-2h0v1.6h-1.9v-17.2h1.9v6.5h0c1-1.4,2.3-2.1,4-2.1s2.9.6,3.8,1.8c1,1.2,1.4,2.7,1.4,4.8s-.5,3.6-1.4,4.8c-.9,1.2-2.2,1.8-3.9,1.8h0ZM229.4,274.7c1.2,0,2-.4,2.6-1.3s.9-2.1.9-3.6-.3-2.6-.9-3.5c-.6-.9-1.5-1.4-2.6-1.4s-2.3.5-3,1.4-1,2.1-1,3.5.3,2.6,1,3.5,1.6,1.3,2.9,1.3h.1ZM236.9,276v-17.2h1.9v17.2h-1.9ZM246.9,276.3c-1.8,0-3.3-.6-4.4-1.8-1.1-1.2-1.6-2.8-1.6-4.7s.5-3.4,1.6-4.6c1.1-1.3,2.5-1.9,4.2-1.9s3.2.6,4.2,1.9,1.5,3,1.5,5.1h-9.6c0,1.3.5,2.4,1.2,3.2.7.8,1.7,1.2,2.9,1.2,1.9,0,3-.8,3.4-2.5h1.9c-.3,1.3-.9,2.4-1.8,3.1-.9.7-2.1,1.1-3.5,1.1h0ZM249.4,265.9c-.6-.7-1.5-1.1-2.6-1.1s-2,.4-2.6,1.1-1,1.7-1.2,2.9h7.5c0-1.2-.4-2.2-1-2.9h0ZM259.2,276.4c-1.7,0-3-.6-4-1.8-1-1.2-1.5-2.8-1.5-4.8s.5-3.6,1.5-4.8c1-1.2,2.3-1.8,3.9-1.8s3,.7,3.9,2h0v-6.5h1.9v17.2h-1.9v-1.5h0c-1,1.2-2.3,1.9-3.8,1.9h0ZM259.3,274.7c1.3,0,2.3-.4,3-1.3s1-2.1,1-3.6-.4-2.7-1.1-3.6-1.7-1.3-2.9-1.3-2,.5-2.6,1.4-.9,2.1-.9,3.5.3,2.6.9,3.5,1.5,1.3,2.7,1.3h-.1ZM271.5,276v-12.4h1.9v12.4h-1.9ZM271.5,261.2v-2.4h1.9v2.4h-1.9ZM278,263.6v1.6h0c1-1.3,2.3-1.9,3.9-1.9s2.3.3,3.1,1,1.1,1.7,1.1,3v8.7h-1.9v-8.5c0-.8-.2-1.4-.7-1.8s-1.2-.7-2.1-.7-1.8.3-2.4,1c-.6.6-1,1.5-1,2.5v7.6h-1.9v-12.4h1.9ZM297.9,276.3c-1.8,0-3.3-.6-4.4-1.9-1.1-1.2-1.6-2.8-1.6-4.7s.5-3.4,1.6-4.7c1.1-1.2,2.6-1.9,4.4-1.9s2.6.4,3.6,1.2c.9.8,1.5,1.8,1.7,3.1h-2c-.1-.8-.5-1.5-1.1-2s-1.3-.7-2.3-.7-2.3.5-3,1.4-1,2.1-1,3.5.3,2.6,1,3.5,1.7,1.4,3,1.4,1.8-.3,2.4-.8.9-1.3,1-2.3h1.9c-.1,1.5-.7,2.6-1.6,3.5-.9.8-2.2,1.2-3.7,1.2v.2h.1ZM307,258.8v6.4h0c1-1.3,2.3-1.9,3.9-1.9s2.3.3,3.1,1c.7.7,1.1,1.7,1.1,3v8.7h-1.9v-8.5c0-.8-.2-1.4-.7-1.8s-1.2-.7-2.1-.7-1.8.3-2.4,1-1,1.5-1,2.5v7.6h-1.9v-17.2h1.9ZM317.7,276v-12.4h1.9v12.4h-1.9ZM317.7,261.2v-2.4h1.9v2.4h-1.9ZM324.2,263.6v1.6h0c1-1.3,2.3-1.9,3.9-1.9s2.3.3,3.1,1,1.1,1.7,1.1,3v8.7h-1.9v-8.5c0-.8-.2-1.4-.7-1.8s-1.2-.7-2.1-.7-1.8.3-2.4,1c-.6.6-1,1.5-1,2.5v7.6h-1.9v-12.4h1.9ZM344.7,276.1c-1.2,0-1.9-.6-2.1-1.8h0c-1,1.3-2.4,2-4.1,2s-2.2-.3-3-.9-1.2-1.4-1.2-2.6,0-1.1.3-1.5c.2-.4.4-.8.7-1,.3-.3.7-.5,1.2-.7s1-.4,1.5-.5,1.1-.2,1.8-.3c.5,0,.8-.1,1-.1s.5-.1.8-.2c.3,0,.5-.2.7-.3.1-.1.2-.3.4-.5.1-.2.2-.4.2-.7,0-.7-.2-1.2-.7-1.6s-1.2-.6-2-.6c-2,0-3,.9-3.1,2.7h-1.9c0-1.3.5-2.3,1.3-3,.8-.8,2.1-1.2,3.6-1.2,3.1,0,4.6,1.3,4.6,3.9v5.9c0,.5,0,.9.3,1.2.2.2.5.3,1.1.2h0v1.4c-.3.1-.7.2-1.1.2h-.3,0ZM338.9,274.8c1.2,0,2.1-.3,2.8-1,.7-.7,1-1.5,1-2.3v-2.1c-.6.4-1.5.7-2.8.9-.5,0-.9.2-1.1.2-.3,0-.6.1-.9.3-.4.1-.6.3-.8.4s-.3.4-.5.6c-.1.3-.2.6-.2.9,0,1.3.9,2,2.6,2h-.1Z"/>
  <path class="cls-3" d="M236,110.2v-1.6h1.7v-2c0-1,.3-1.8.8-2.2.6-.5,1.4-.7,2.4-.7h1v1.7h-.6c-.6,0-1.1,0-1.3.3-.3.2-.4.5-.4,1v1.9h2.3v1.6h-2.3v10.8h-1.9v-10.8s-1.7,0-1.7,0ZM253.1,119.5c-1.1,1.2-2.5,1.9-4.3,1.9s-3.3-.6-4.4-1.9c-1.1-1.2-1.6-2.8-1.6-4.7s.5-3.4,1.6-4.7c1.1-1.2,2.6-1.9,4.4-1.9s3.3.6,4.3,1.9,1.6,2.8,1.6,4.7-.5,3.4-1.6,4.7ZM245.8,118.3c.7.9,1.7,1.4,3,1.4s2.3-.5,3-1.4,1-2.1,1-3.5-.4-2.6-1.1-3.5c-.7-.9-1.7-1.4-2.9-1.4s-2.3.5-3,1.4-1,2.1-1,3.5.3,2.6,1,3.5ZM258.6,108.6v2.1h0c.4-.7.9-1.2,1.6-1.6.6-.4,1.4-.6,2.1-.6h.8v1.9h-.9c-1,0-1.8.4-2.5,1.1s-1.1,1.6-1.1,2.7v6.9h-1.9v-12.4h1.9Z"/>
  <path class="cls-3" d="M75.4,268.3h6.6v-28.5h-6.6v16.8c0,4.1-2.6,6.5-6.8,6.5s-6-3-6-6.5v-16.8h-6.6v18.6c0,6.1,2.6,10.7,9.5,10.7s8.5-2.5,9.8-8.6h0v7.8h0Z"/>
  <path class="cls-3" d="M56,229h26v6.5h-26v-6.5Z"/>
  <path class="cls-5" d="M284,79.9c-9.5,4.9-22,7.4-34.5,7.4s-25-2.5-34.5-7.4-13.9-11.2-13.9-17.2,4.4-12.3,13.9-17.2,22-7.4,34.5-7.4,25,2.5,34.5,7.4,13.9,11.2,13.9,17.2-4.4,12.3-13.9,17.2Z"/>
  <path class="cls-3" d="M276.8,72.6v-16.2h2.2v16.2h-2.2ZM276.8,54.4v-3.1h2.2v3.1h-2.2Z"/>
  <path class="cls-3" d="M251.6,72.6v-16.2h2.1v4.6h0v11.6h-2.2,0ZM261.8,62.1c0-.9-.1-1.7-.4-2.3s-.7-1.1-1.3-1.4c-.5-.3-1.2-.5-2-.5s-1.5.2-2.1.6c-.7.4-1.2,1-1.6,1.9-.4.9-.6,1.9-.6,3.3h-1.5v-2.8h.8c.2-1,.6-1.9,1.1-2.6.5-.7,1.1-1.3,1.8-1.7.7-.4,1.6-.6,2.5-.6s2.1.3,3,.8c.8.5,1.4,1.2,1.8,2.1.4.9.6,1.9.6,3v10.7h-2.1v-10.5ZM272,62.1c0-.9-.1-1.7-.4-2.3s-.7-1.1-1.2-1.4c-.5-.3-1.2-.5-2-.5s-1.5.2-2.1.6c-.7.4-1.2,1-1.6,1.9s-.6,1.9-.6,3.3h-1.5v-2.5h.6c.2-1,.6-1.9,1.1-2.7s1.2-1.4,1.9-1.8c.8-.4,1.7-.7,2.6-.7s2.2.2,3,.7,1.4,1.2,1.8,2c.4.9.6,1.9.6,3.1v10.7h-2.2v-10.5h0Z"/>
  <path class="cls-3" d="M242.5,73c-1.5,0-2.8-.3-3.9-1-1.1-.7-2-1.7-2.6-3s-.9-2.8-.9-4.5.3-3.1.9-4.4c.6-1.3,1.4-2.3,2.6-3,1.1-.7,2.4-1.1,3.9-1.1s2.9.4,3.9,1.1c1.1.7,1.9,1.7,2.5,3s.9,2.7.9,4.3v.7h-13.6v-1.8h12.4l-.9.6c0-1.2-.2-2.2-.6-3.1-.4-.9-1-1.6-1.7-2.2-.8-.5-1.7-.8-2.8-.8s-1.9.2-2.7.7-1.4,1.2-1.8,2.2c-.4,1-.6,2.1-.7,3.5v.3c0,1.4.2,2.6.6,3.6.4,1,1,1.7,1.8,2.2s1.7.8,2.8.8,1.5,0,2.2-.4c.6-.3,1.2-.7,1.6-1.3.4-.5.7-1.2.9-1.9h2.2c-.2,1.1-.7,2.1-1.3,2.9s-1.4,1.5-2.3,1.9c-1,.5-2,.7-3.3.7h0Z"/>
  <path class="cls-3" d="M230.9,62.2c0-.9-.2-1.7-.5-2.3s-.8-1.1-1.4-1.4c-.6-.3-1.3-.5-2.2-.5s-1.6.2-2.3.6c-.7.4-1.3,1-1.7,1.8s-.7,1.9-.7,3.1h-1.5v-2.6h.8c.2-.9.6-1.8,1.2-2.5.5-.7,1.2-1.3,2-1.7s1.7-.6,2.7-.6,2.2.2,3,.7c.9.5,1.5,1.1,1.9,2,.5.9.7,1.9.7,3.2v10.7h-2.1v-10.4h.1ZM220,72.6v-22.3h2.2v22.3h-2.2Z"/>
  <path class="cls-3" d="M222.6,155.8c-4.9,1.7-7.9,11.5-10.9,9.2-3.5-2.8,5.3-15.8,3.5-18.5-.9-1.4-3.6,4-5.9,8-2.8,5-7.3,12.9-10,10.4-3.4-3.3,14.1-32.1,11.7-34.5-1.1-1.1-3.2,2.7-5.9,7.5h-1.3c3.1-6.1,7.1-13.8,9.8-11.5,3.9,3.4-13.7,33.6-11,34.8,1.2.4,3.4-3.9,5.2-7,1.6-2.9,7-14,9.6-11.1,3.1,3.4-5.5,16.9-2.7,18.1,1,.4,3-4.3,7.8-7v1.6h0Z"/>
  <path class="cls-3" d="M282.4,170.6h1.8c.7,0,1.3-.1,1.8-.4.5-.3.9-.6,1.3-1.1s.7-1.1.9-1.8l1.3-3.4v2.6l-8.7-22.6h3.1l4.7,12.9c.4,1.2.8,2.3,1.2,3.4s.8,2.2,1.1,3.3h-.8c.4-1.2.8-2.5,1.2-3.6.4-1.2.7-2.2,1-3.1l4.5-12.9h3l-8.8,23.9c-.5,1.3-1,2.3-1.6,3-.6.8-1.3,1.3-2.2,1.7-.8.4-1.8.5-3,.5s-.6,0-.9,0h-.9v-2.3h0Z"/>
  <path class="cls-3" d="M269.8,165.2c-1.8,0-3.5-.5-4.8-1.4-1.4-.9-2.4-2.2-3.2-3.8-.8-1.6-1.1-3.6-1.1-5.7s.4-4.1,1.1-5.7c.8-1.6,1.8-2.9,3.2-3.8,1.4-.9,3-1.4,4.8-1.4s3.3.4,4.6,1.4c1.3.9,2.3,2.2,3,3.8s1.1,3.5,1.1,5.7h0c0,2.2-.3,4.2-1,5.8s-1.7,2.9-3,3.8c-1.3.9-2.8,1.4-4.6,1.4h-.1ZM270.3,162.8c1.4,0,2.6-.3,3.6-1s1.8-1.7,2.3-2.9c.5-1.3.8-2.8.8-4.5s-.3-3.2-.8-4.5-1.3-2.3-2.3-2.9c-1-.7-2.2-1-3.6-1s-2.5.4-3.5,1.1c-1,.7-1.8,1.7-2.3,3s-.8,2.8-.8,4.5.3,3.2.8,4.5c.5,1.2,1.3,2.2,2.3,2.9s2.2,1,3.6,1v-.2h-.1ZM277,164.7v-5.7h.2v-9.5h-.4v-13.6h2.8v28.7h-2.7.1Z"/>
  <path class="cls-3" d="M241.1,164.7v-20.8h2.7v5.9h.1v14.9h-2.8ZM255.3,151.3c0-1.2-.2-2.2-.6-3-.4-.8-1-1.4-1.8-1.8-.8-.4-1.7-.6-2.9-.6s-2.1.3-3,.8-1.7,1.3-2.3,2.4c-.6,1.1-.9,2.4-.9,4h-2v-3.3h1c.3-1.2.8-2.3,1.5-3.3s1.6-1.7,2.6-2.2c1.1-.5,2.3-.8,3.6-.8s2.9.3,4,.9c1.1.6,2,1.4,2.5,2.6.6,1.1.9,2.5.9,4.1v13.7h-2.8v-13.4h.2Z"/>
  <path class="cls-3" d="M238,164.8c-.8,0-1.5-.1-2.1-.4-.5-.3-.9-.7-1.1-1.2-.2-.5-.4-1.2-.4-2v-11.9c0-.8-.2-1.4-.5-1.9s-.9-.9-1.6-1.2c-.8-.3-1.7-.4-3-.4s-2.4.1-3.2.4c-.8.3-1.4.8-1.8,1.4-.4.7-.6,1.5-.7,2.6h-2.8c0-1.4.4-2.6,1-3.6s1.5-1.8,2.7-2.3,2.8-.8,4.8-.8,3.3.2,4.5.7,2,1.2,2.6,2c.5.9.8,1.9.8,3.1v11.8c0,.3,0,.6.2.8.1.2.3.4.5.5s.5.2.8.2h1v2.2h-1.7ZM227,165.2c-1.5,0-2.8-.2-3.8-.7-1.1-.5-1.9-1.2-2.5-2.1-.6-.9-.9-2-.9-3.2s.3-2.2.8-3c.5-.9,1.3-1.6,2.4-2.1,1.1-.6,2.6-1,4.4-1.2l3.2-.4c.9-.1,1.7-.3,2.2-.5.5-.3.9-.6,1.2-1,.2-.4.4-1,.4-1.6l1.1.2c0,1.2-.1,2.1-.4,2.7-.2.7-.7,1.2-1.3,1.5-.6.4-1.5.6-2.7.8l-3.2.4c-1.2.2-2.2.4-3,.8-.8.3-1.3.8-1.6,1.3-.3.6-.5,1.2-.5,2s.2,1.4.5,2,.8,1,1.5,1.3,1.5.5,2.5.5,2.5-.2,3.5-.7c1.1-.5,1.9-1.2,2.6-2.2.6-1,1-2.2,1-3.7h1.1v2.2c-.3,1.4-.8,2.7-1.6,3.7s-1.7,1.7-2.9,2.3c-1.2.5-2.5.8-4,.8h0Z"/>
  <path class="cls-6" d="M442,262.6c-.1.1-.2.3-.3.5v-1h0c0-1.4-1.1-2.6-2.5-2.6s-2.5,1.2-2.5,2.6h0v1.5c-.4-.9-1.2-1.6-2.2-1.6s-1.3.3-1.7.8c-.4.5-.5,1.1-.5,1.8h0v12.8l-2.3-2.4h0c-.4-.4-1-.7-1.7-.7-1.4,0-2.5,1.2-2.5,2.6s.2,1.2.6,1.7h0l6.5,6.7,5.7,6.1v.2h6.3v-.2c.1,0,5.7-5.9,5.7-5.9h.1v-10.7h0v-6.9h0c0-.7-.2-1.3-.5-1.8s-.9-.9-1.6-.9-1.9.7-2.3,1.6v-2.2h0c0-1.4-1.1-2.6-2.5-2.6s-1.3.3-1.7.8v-.2h-.1Z"/>
  <g class="cls-8">
    <g>
      <path class="cls-6" d="M426.2,239.7c.6-8.8,7.2-15.9,15.3-15.9s14.6,7,15.3,15.7c0,.6-.4,1.2-1,1.4-12.1,3.2-23.9,1.9-28.8,0-.5-.2-.8-.7-.8-1.2Z"/>
      <path class="cls-6" d="M427.3,236.7h-3.1c-1.1,0-2,.9-2,2v4.3c0,1.1-.9,2-2,2h-6.3"/>
    </g>
  </g>
  <polyline class="cls-1" points="235.3 407.4 236.4 407.4 236.4 408.4"/>
</svg>