<svg width="44" height="36" viewBox="0 0 44 36" fill="none" xmlns="http://www.w3.org/2000/svg">
<g clip-path="url(#clip0_3914_5125)">
<path fill-rule="evenodd" clip-rule="evenodd" d="M33.4749 5.2704C30.7386 4.3948 27.7926 4.40469 25.0623 5.29865C22.332 6.19261 19.9589 7.92436 18.2855 10.2438C16.6121 12.5632 15.7252 15.3503 15.7528 18.2025C15.7804 21.0546 16.7211 23.8243 18.4391 26.1114C20.157 28.3986 22.5633 30.0848 25.3104 30.9266C28.0574 31.7683 31.0031 31.7221 33.722 30.7945C36.4408 29.867 38.7921 28.1061 40.4363 25.7662L43.2665 27.7234C41.204 30.6586 38.2545 32.8675 34.8439 34.0311C31.4333 35.1947 27.7382 35.2527 24.2922 34.1967C20.8462 33.1408 17.8277 31.0255 15.6727 28.1565C13.5177 25.2875 12.3376 21.8132 12.303 18.2353C12.2683 14.6575 13.3809 11.1613 15.48 8.25178C17.5791 5.34222 20.5561 3.16988 23.981 2.04847C27.4059 0.927072 31.1015 0.914662 34.534 2.01303C37.9665 3.11141 40.9582 5.26371 43.0771 8.1591L40.2853 10.1699C38.5962 7.86177 36.2112 6.146 33.4749 5.2704ZM31.2319 12.1693C29.97 11.7656 28.6115 11.7701 27.3525 12.1823C26.0934 12.5946 24.999 13.3932 24.2274 14.4627C23.4557 15.5323 23.0467 16.8176 23.0594 18.1328C23.0721 19.4481 23.5059 20.7253 24.2981 21.78C25.0903 22.8347 26.2 23.6123 27.4668 24.0005C28.7336 24.3887 30.0919 24.3674 31.3457 23.9396C32.5995 23.5119 33.6838 22.6999 34.442 21.6208L37.2722 23.5781C36.0957 25.2525 34.4132 26.5125 32.4676 27.1762C30.5221 27.8399 28.4143 27.873 26.4486 27.2706C24.4829 26.6683 22.761 25.4617 21.5317 23.8251C20.3024 22.1885 19.6293 20.2066 19.6096 18.1657C19.5898 16.1247 20.2245 14.1304 21.4219 12.4707C22.6193 10.811 24.3175 9.57183 26.2712 8.93216C28.2249 8.29249 30.333 8.28543 32.291 8.91199C34.249 9.53856 35.9556 10.7663 37.1643 12.418L34.3724 14.4287C33.5935 13.3644 32.4937 12.5731 31.2319 12.1693Z" stroke="#F4492B"/>
<path d="M12.0263 16.2577H4.9348V4.91774H13.345L15.9325 1.49512H1.4848V34.2265L4.9348 31.9419V19.6803H12.0263V16.2577Z" stroke="#F4492B"/>
</g>
<defs>
<clipPath id="clip0_3914_5125">
<rect width="43.125" height="35.9375" fill="white" transform="translate(0.46875)"/>
</clipPath>
</defs>
</svg>
