<?xml version="1.0" encoding="UTF-8"?>
<svg id="_Слой_1" data-name="Слой 1" xmlns="http://www.w3.org/2000/svg" xmlns:xlink="http://www.w3.org/1999/xlink" version="1.1" viewBox="0 0 500 500">
  <defs>
    <style>
      .cls-1 {
        fill: #f44a2b;
      }

      .cls-1, .cls-2, .cls-3 {
        stroke-width: 0px;
      }

      .cls-4 {
        clip-path: url(#clippath);
      }

      .cls-2, .cls-5, .cls-6 {
        fill: none;
      }

      .cls-7 {
        clip-path: url(#clippath-1);
      }

      .cls-3 {
        fill: #f4492b;
      }

      .cls-5 {
        stroke-width: 1.8px;
      }

      .cls-5, .cls-6 {
        stroke: #f4492b;
      }
    </style>
    <clipPath id="clippath">
      <rect class="cls-2" x="261.5" y="393" width="43.1" height="35.9"/>
    </clipPath>
    <clipPath id="clippath-1">
      <rect class="cls-2" x="195" y="394" width="44.6" height="31.6"/>
    </clipPath>
  </defs>
  <path class="cls-6" d="M499.5,250c0,137.8-111.7,249.5-249.5,249.5S.5,387.8.5,250,112.2.5,250,.5s249.5,111.7,249.5,249.5Z"/>
  <g class="cls-4">
    <g>
      <path class="cls-6" d="M294.5,398.3c-2.7-.9-5.7-.9-8.4,0-2.7.9-5.1,2.6-6.8,4.9-1.7,2.3-2.6,5.1-2.5,8,0,2.9,1,5.6,2.7,7.9,1.7,2.3,4.1,4,6.9,4.8,2.7.8,5.7.8,8.4-.1,2.7-.9,5.1-2.7,6.7-5l2.8,2c-2.1,2.9-5,5.1-8.4,6.3-3.4,1.2-7.1,1.2-10.6.2-3.4-1.1-6.5-3.2-8.6-6-2.2-2.9-3.3-6.3-3.4-9.9,0-3.6,1.1-7.1,3.2-10,2.1-2.9,5.1-5.1,8.5-6.2,3.4-1.1,7.1-1.1,10.6,0,3.4,1.1,6.4,3.3,8.5,6.1l-2.8,2c-1.7-2.3-4.1-4-6.8-4.9ZM292.2,405.2c-1.3-.4-2.6-.4-3.9,0-1.3.4-2.4,1.2-3.1,2.3-.8,1.1-1.2,2.4-1.2,3.7,0,1.3.4,2.6,1.2,3.6s1.9,1.8,3.2,2.2c1.3.4,2.6.4,3.9,0,1.3-.4,2.3-1.2,3.1-2.3l2.8,2c-1.2,1.7-2.9,2.9-4.8,3.6-1.9.7-4.1.7-6,0-2-.6-3.7-1.8-4.9-3.4-1.2-1.6-1.9-3.6-1.9-5.7,0-2,.6-4,1.8-5.7,1.2-1.7,2.9-2.9,4.8-3.5,2-.6,4.1-.6,6,0,2,.6,3.7,1.9,4.9,3.5l-2.8,2c-.8-1.1-1.9-1.9-3.1-2.3Z"/>
      <path class="cls-6" d="M273,409.3h-7.1v-11.3h8.4l2.6-3.4h-14.4v32.7l3.5-2.3v-12.3h7.1v-3.4Z"/>
    </g>
  </g>
  <g class="cls-7">
    <g>
      <path class="cls-6" d="M212,421.4v3.7c-.4,0-.7,0-1.1,0-4.1,0-8-1.6-10.9-4.5-2.9-2.9-4.5-6.8-4.5-10.8s1.6-8,4.5-10.8c2.9-2.9,6.8-4.5,10.9-4.5s.7,0,1.1,0v3.7c-.4,0-.7,0-1.1,0-3.1,0-6,1.2-8.2,3.4-2.2,2.2-3.4,5.1-3.4,8.2s1.2,6,3.4,8.2c2.2,2.2,5.1,3.4,8.2,3.4.4,0,.7,0,1.1,0Z"/>
      <path class="cls-6" d="M235.9,407.9h-9.4v-.6c.7-2.6,2.1-4.9,4.2-6.5,2.1-1.7,4.6-2.6,7.3-2.6.4,0,.7,0,1.1,0v-3.7c-.4,0-.7,0-1.1,0-4.1,0-8,1.6-10.9,4.5-2.9,2.9-4.5,6.8-4.5,10.8s1.6,8,4.5,10.8c2.9,2.9,6.8,4.5,10.9,4.5s.7,0,1.1,0v-3.7c-.4,0-.7,0-1.1,0M235.9,407.9v3.7M238,421.4h0v-.5M238,421.4h0v-.5M238,421.4c-2.7,0-5.2-.9-7.3-2.6-2.1-1.7-3.5-4-4.1-6.5v-.6c-.1,0,.5,0,.5,0h8.8M235.9,411.7h.5"/>
    </g>
  </g>
  <path class="cls-3" d="M124.5,250.4c-1.7,0-3-.6-4-1.8-1-1.2-1.5-2.8-1.5-4.8s.5-3.6,1.5-4.8c1-1.2,2.3-1.8,3.9-1.8s3,.7,3.9,2h0v-6.5h1.9v17.2h-1.9v-1.5h0c-1,1.2-2.3,1.9-3.8,1.9ZM124.6,248.7c1.3,0,2.3-.4,3-1.3.7-.9,1-2.1,1-3.6s-.4-2.7-1.1-3.6c-.7-.9-1.7-1.3-2.9-1.3s-2,.5-2.6,1.4c-.6.9-.9,2.1-.9,3.5s.3,2.6.9,3.5c.6.9,1.5,1.3,2.7,1.3ZM138.3,250.3c-1.8,0-3.3-.6-4.4-1.8-1.1-1.2-1.6-2.8-1.6-4.7s.5-3.4,1.6-4.6c1.1-1.3,2.5-1.9,4.2-1.9s3.2.6,4.2,1.9c1,1.3,1.5,3,1.5,5.1h-9.6c0,1.3.5,2.4,1.2,3.2.7.8,1.7,1.2,2.9,1.2,1.9,0,3-.8,3.4-2.5h1.9c-.3,1.3-.9,2.4-1.8,3.1-.9.7-2.1,1.1-3.5,1.1ZM140.8,239.9c-.6-.7-1.5-1.1-2.6-1.1s-2,.4-2.6,1.1c-.6.7-1,1.7-1.2,2.9h7.5c0-1.2-.4-2.2-1-2.9ZM150.5,250.4c-1.7,0-3-.4-4-1.1-.9-.8-1.4-1.9-1.5-3.3h2c.2,1.8,1.4,2.8,3.6,2.8s1.7-.2,2.2-.6c.5-.4.7-.9.7-1.5s-.2-1.1-.7-1.4c-.5-.3-1.3-.6-2.5-.8-.5-.1-.9-.2-1.2-.3-.3,0-.6-.2-1.1-.3-.4-.1-.7-.3-1-.5-.2-.2-.5-.4-.7-.6-.2-.2-.4-.5-.5-.9,0-.4-.1-.7-.1-1.2,0-1.1.4-1.9,1.2-2.5.8-.6,1.9-.9,3.3-.9,2.9,0,4.6,1.3,4.9,3.9h-2c0-.8-.4-1.4-.8-1.8-.5-.4-1.2-.6-2.1-.6s-1.5.2-1.9.5c-.4.3-.6.7-.6,1.3s.2,1,.7,1.3c.5.2,1.4.5,2.6.7.8.2,1.4.3,1.8.5.4.1.9.3,1.4.6.5.3.8.6,1.1,1.1s.3,1,.3,1.7c0,1.2-.4,2.2-1.3,2.8-.9.6-2.1,1-3.6,1ZM157.3,250v-12.4h1.9v12.4h-1.9ZM157.3,235.2v-2.4h1.9v2.4h-1.9ZM166.8,254.1c-1.6,0-2.8-.3-3.7-.9-.9-.6-1.4-1.4-1.5-2.5h1.8c.2,1.3,1.3,1.9,3.4,1.9s3.6-1.1,3.6-3.2v-1.8h0c-.5.6-1,1.1-1.6,1.4-.6.3-1.3.5-2.1.5-1.6,0-2.9-.6-3.9-1.7-1-1.2-1.5-2.6-1.5-4.4s.5-3.4,1.5-4.5c1-1.1,2.3-1.7,3.8-1.7s2.9.6,3.8,1.9h0v-1.6h1.9v11.7c0,1.6-.5,2.8-1.5,3.6-1,.8-2.3,1.2-4,1.2ZM166.7,247.9c2.5,0,3.8-1.5,3.8-4.6s-1.3-4.4-3.8-4.4-2,.4-2.6,1.2c-.6.8-.9,1.9-.9,3.3s.3,2.5.9,3.3c.6.8,1.5,1.2,2.6,1.2ZM176.8,237.6v1.6h0c1-1.3,2.3-1.9,3.9-1.9s2.3.3,3.1,1c.7.7,1.1,1.7,1.1,3v8.7h-1.9v-8.5c0-.8-.2-1.4-.7-1.8-.5-.4-1.2-.7-2.1-.7s-1.8.3-2.4,1-1,1.5-1,2.5v7.6h-1.9v-12.4h1.9ZM192.9,250.3c-1.8,0-3.3-.6-4.4-1.8-1.1-1.2-1.6-2.8-1.6-4.7s.5-3.4,1.6-4.6c1.1-1.3,2.5-1.9,4.2-1.9s3.2.6,4.2,1.9c1,1.3,1.5,3,1.5,5.1h-9.6c0,1.3.5,2.4,1.2,3.2.7.8,1.7,1.2,2.9,1.2,1.9,0,3-.8,3.4-2.5h1.9c-.3,1.3-.9,2.4-1.8,3.1-.9.7-2.1,1.1-3.5,1.1ZM195.3,239.9c-.6-.7-1.5-1.1-2.6-1.1s-2,.4-2.6,1.1c-.6.7-1,1.7-1.2,2.9h7.5c0-1.2-.4-2.2-1-2.9ZM205.2,250.4c-1.7,0-3-.6-4-1.8-1-1.2-1.5-2.8-1.5-4.8s.5-3.6,1.5-4.8,2.3-1.8,3.9-1.8,3,.7,3.9,2h0v-6.5h1.9v17.2h-1.9v-1.5h0c-1,1.2-2.3,1.9-3.8,1.9ZM205.2,248.7c1.3,0,2.3-.4,3-1.3.7-.9,1-2.1,1-3.6s-.4-2.7-1.1-3.6c-.7-.9-1.7-1.3-2.9-1.3s-2,.5-2.6,1.4c-.6.9-.9,2.1-.9,3.5s.3,2.6.9,3.5c.6.9,1.5,1.3,2.7,1.3ZM223.4,250.4c-1.6,0-3-.7-3.9-2h0v1.6h-1.9v-17.2h1.9v6.5h0c1-1.4,2.3-2.1,4-2.1s2.9.6,3.8,1.8c1,1.2,1.4,2.7,1.4,4.8s-.5,3.6-1.4,4.8c-.9,1.2-2.2,1.8-3.9,1.8ZM223.2,248.7c1.2,0,2-.4,2.6-1.3.6-.9.9-2.1.9-3.6s-.3-2.6-.9-3.5c-.6-.9-1.5-1.4-2.6-1.4s-2.3.5-3,1.4c-.7.9-1,2.1-1,3.5s.3,2.6,1,3.5c.7.9,1.6,1.3,2.9,1.3ZM232,254.1c-.7,0-1.3,0-1.8-.3v-1.7h0c.3.2.8.3,1.3.3s.8-.1,1.1-.3c.3-.2.5-.6.8-1.2l.5-1.2-4.8-12h2.1l2.9,7.7.8,2.4h0c.3-.9.6-1.7.8-2.4l2.8-7.7h2.1l-5.3,13.4c-.5,1.2-1,2-1.5,2.4-.5.4-1.2.6-2,.6ZM255.8,250h-1.9v-1.7h0c-1,1.3-2.2,2-3.7,2s-2.3-.4-3-1.1c-.8-.7-1.1-1.7-1.1-3v-8.6h1.9v8.5c0,.8.2,1.4.7,1.9.5.4,1.2.7,2.1.7s1.8-.3,2.4-1c.6-.7.9-1.5.9-2.5v-7.6h1.9v12.4ZM260.4,237.6v1.6h0c1-1.3,2.3-1.9,3.9-1.9s2.3.3,3.1,1c.7.7,1.1,1.7,1.1,3v8.7h-1.9v-8.5c0-.8-.2-1.4-.7-1.8-.5-.4-1.2-.7-2.1-.7s-1.8.3-2.4,1c-.6.6-1,1.5-1,2.5v7.6h-1.9v-12.4h1.9ZM275.9,250.4c-1.7,0-3-.6-4-1.8-1-1.2-1.5-2.8-1.5-4.8s.5-3.6,1.5-4.8,2.3-1.8,3.9-1.8,3,.7,3.9,2h0v-6.5h1.9v17.2h-1.9v-1.5h0c-1,1.2-2.3,1.9-3.8,1.9ZM276,248.7c1.3,0,2.3-.4,3-1.3.7-.9,1-2.1,1-3.6s-.4-2.7-1.1-3.6c-.7-.9-1.7-1.3-2.9-1.3s-2,.5-2.6,1.4c-.6.9-.9,2.1-.9,3.5s.3,2.6.9,3.5c.6.9,1.5,1.3,2.7,1.3ZM289.7,250.3c-1.8,0-3.3-.6-4.4-1.8-1.1-1.2-1.6-2.8-1.6-4.7s.5-3.4,1.6-4.6c1.1-1.3,2.5-1.9,4.2-1.9s3.2.6,4.2,1.9c1,1.3,1.5,3,1.5,5.1h-9.6c0,1.3.5,2.4,1.2,3.2.7.8,1.7,1.2,2.9,1.2,1.9,0,3-.8,3.4-2.5h1.9c-.3,1.3-.9,2.4-1.8,3.1-.9.7-2.1,1.1-3.5,1.1ZM292.2,239.9c-.6-.7-1.5-1.1-2.6-1.1s-2,.4-2.6,1.1c-.6.7-1,1.7-1.2,2.9h7.5c0-1.2-.4-2.2-1-2.9ZM299.1,237.6v2.1h0c.4-.7.9-1.2,1.6-1.6.6-.4,1.4-.6,2.1-.6s.6,0,.8.1v1.9h0c-.2,0-.5-.1-.9-.1-1,0-1.8.4-2.5,1.1-.7.7-1.1,1.6-1.1,2.7v6.9h-1.9v-12.4h1.9ZM309.2,250v-12.4h1.9v12.4h-1.9ZM309.2,235.2v-2.4h1.9v2.4h-1.9ZM315.8,237.6v1.6h0c1-1.3,2.3-1.9,3.9-1.9s2.3.3,3.1,1,1.1,1.7,1.1,3v8.7h-1.9v-8.5c0-.8-.2-1.4-.7-1.8-.5-.4-1.2-.7-2.1-.7s-1.8.3-2.4,1c-.6.6-1,1.5-1,2.5v7.6h-1.9v-12.4h1.9ZM330.3,250v-12.4h1.9v12.4h-1.9ZM330.3,235.2v-2.4h1.9v2.4h-1.9ZM339.6,250.4c-1.7,0-3-.4-4-1.1-.9-.8-1.4-1.9-1.5-3.3h2c.2,1.8,1.4,2.8,3.6,2.8s1.7-.2,2.2-.6c.5-.4.7-.9.7-1.5s-.2-1.1-.7-1.4c-.5-.3-1.3-.6-2.5-.8-.5-.1-.9-.2-1.2-.3-.3,0-.6-.2-1.1-.3-.4-.1-.7-.3-1-.5-.2-.2-.5-.4-.7-.6-.2-.2-.4-.5-.5-.9,0-.4-.1-.7-.1-1.2,0-1.1.4-1.9,1.2-2.5.8-.6,1.9-.9,3.3-.9,2.9,0,4.6,1.3,4.9,3.9h-2c0-.8-.4-1.4-.8-1.8-.5-.4-1.2-.6-2.1-.6s-1.5.2-1.9.5c-.4.3-.6.7-.6,1.3s.2,1,.7,1.3c.5.2,1.4.5,2.6.7.8.2,1.4.3,1.8.5.4.1.9.3,1.4.6.5.3.8.6,1.1,1.1s.3,1,.3,1.7c0,1.2-.4,2.2-1.3,2.8-.9.6-2.1,1-3.6,1ZM348.3,237.6v2.1h0c.4-.7.9-1.2,1.6-1.6.6-.4,1.4-.6,2.1-.6s.6,0,.8.1v1.9h0c-.2,0-.5-.1-.9-.1-1,0-1.8.4-2.5,1.1-.7.7-1.1,1.6-1.1,2.7v6.9h-1.9v-12.4h1.9ZM363.9,250.1c-1.2,0-1.9-.6-2.1-1.8h0c-1,1.3-2.4,2-4.1,2s-2.2-.3-3-.9c-.8-.6-1.2-1.4-1.2-2.6s0-1.1.3-1.5c.2-.4.4-.8.7-1,.3-.3.7-.5,1.2-.7.5-.2,1-.4,1.5-.5.5-.1,1.1-.2,1.8-.3.5,0,.8-.1,1-.1.2,0,.5-.1.8-.2.3,0,.5-.2.7-.3.1-.1.2-.3.4-.5s.2-.4.2-.7c0-.7-.2-1.2-.7-1.6-.5-.4-1.2-.6-2-.6-2,0-3,.9-3.1,2.7h-1.9c0-1.3.5-2.3,1.3-3,.8-.8,2.1-1.2,3.6-1.2,3.1,0,4.6,1.3,4.6,3.9v5.9c0,.5,0,.9.3,1.2.2.2.5.3,1.1.2h0v1.4c-.3.1-.7.2-1.1.2ZM358,248.8c1.2,0,2.1-.3,2.8-1,.7-.7,1-1.5,1-2.3v-2.1c-.6.4-1.5.7-2.8.9-.5,0-.9.2-1.1.2-.3,0-.6.1-.9.3-.4.1-.6.3-.8.4-.2.2-.3.4-.5.6-.1.3-.2.6-.2.9,0,1.3.9,2,2.6,2ZM371.7,250.3c-1.8,0-3.3-.6-4.4-1.8-1.1-1.2-1.6-2.8-1.6-4.7s.5-3.4,1.6-4.6c1.1-1.3,2.5-1.9,4.2-1.9s3.2.6,4.2,1.9c1,1.3,1.5,3,1.5,5.1h-9.6c0,1.3.5,2.4,1.2,3.2.7.8,1.7,1.2,2.9,1.2,1.9,0,3-.8,3.4-2.5h1.9c-.3,1.3-.9,2.4-1.8,3.1-.9.7-2.1,1.1-3.5,1.1ZM374.1,239.9c-.6-.7-1.5-1.1-2.6-1.1s-2,.4-2.6,1.1c-.6.7-1,1.7-1.2,2.9h7.5c0-1.2-.4-2.2-1-2.9ZM379.2,250v-17.2h1.9v17.2h-1.9ZM166.2,276.1c-1.2,0-1.9-.6-2.1-1.8h0c-1,1.3-2.4,2-4.1,2s-2.2-.3-3-.9c-.8-.6-1.2-1.4-1.2-2.6s0-1.1.3-1.5c.2-.4.4-.8.7-1,.3-.3.7-.5,1.2-.7.5-.2,1-.4,1.5-.5.5-.1,1.1-.2,1.8-.3.5,0,.8-.1,1-.1.2,0,.5-.1.8-.2.3,0,.5-.2.7-.3.1-.1.2-.3.4-.5.1-.2.2-.4.2-.7,0-.7-.2-1.2-.7-1.6-.5-.4-1.2-.6-2-.6-2,0-3,.9-3.1,2.7h-1.9c0-1.3.5-2.3,1.3-3,.8-.8,2.1-1.2,3.6-1.2,3.1,0,4.6,1.3,4.6,3.9v5.9c0,.5,0,.9.3,1.2.2.2.5.3,1.1.2h0v1.4c-.3.1-.7.2-1.1.2ZM160.3,274.8c1.2,0,2.1-.3,2.8-1,.7-.7,1-1.5,1-2.3v-2.1c-.6.4-1.5.7-2.8.9-.5,0-.9.2-1.1.2-.3,0-.6.1-.9.3-.4.1-.6.3-.8.4-.2.2-.3.4-.5.6-.1.3-.2.6-.2.9,0,1.3.9,2,2.6,2ZM173.4,276.4c-1.7,0-3-.4-4-1.1-.9-.8-1.4-1.9-1.5-3.3h2c.2,1.8,1.4,2.8,3.6,2.8s1.7-.2,2.2-.6c.5-.4.7-.9.7-1.5s-.2-1.1-.7-1.4c-.5-.3-1.3-.6-2.5-.8-.5-.1-.9-.2-1.2-.3-.3,0-.6-.2-1.1-.3-.4-.1-.7-.3-1-.5-.2-.2-.5-.4-.7-.6-.2-.2-.4-.5-.5-.9,0-.4-.1-.7-.1-1.2,0-1.1.4-1.9,1.2-2.5.8-.6,1.9-.9,3.3-.9,2.9,0,4.6,1.3,4.9,3.9h-2c0-.8-.4-1.4-.8-1.8-.5-.4-1.2-.6-2.1-.6s-1.5.2-1.9.5c-.4.3-.6.7-.6,1.3s.2,1,.7,1.3c.5.2,1.4.5,2.6.7.8.2,1.4.3,1.8.5.4.1.9.3,1.4.6.5.3.8.6,1.1,1.1.2.5.3,1,.3,1.7,0,1.2-.4,2.2-1.3,2.8-.9.6-2.1,1-3.6,1ZM184.8,276.4c-1.7,0-3-.4-4-1.1-.9-.8-1.4-1.9-1.5-3.3h2c.2,1.8,1.4,2.8,3.6,2.8s1.7-.2,2.2-.6c.5-.4.7-.9.7-1.5s-.2-1.1-.7-1.4c-.5-.3-1.3-.6-2.5-.8-.5-.1-.9-.2-1.2-.3-.3,0-.6-.2-1.1-.3-.4-.1-.7-.3-1-.5-.2-.2-.5-.4-.7-.6-.2-.2-.4-.5-.5-.9,0-.4-.1-.7-.1-1.2,0-1.1.4-1.9,1.2-2.5.8-.6,1.9-.9,3.3-.9,2.9,0,4.6,1.3,4.9,3.9h-2c0-.8-.4-1.4-.8-1.8-.5-.4-1.2-.6-2.1-.6s-1.5.2-1.9.5c-.4.3-.6.7-.6,1.3s.2,1,.7,1.3c.5.2,1.4.5,2.6.7.8.2,1.4.3,1.8.5.4.1.9.3,1.4.6.5.3.8.6,1.1,1.1.2.5.3,1,.3,1.7,0,1.2-.4,2.2-1.3,2.8-.9.6-2.1,1-3.6,1ZM197.1,276.3c-1.8,0-3.3-.6-4.4-1.8-1.1-1.2-1.6-2.8-1.6-4.7s.5-3.4,1.6-4.6c1.1-1.3,2.5-1.9,4.2-1.9s3.2.6,4.2,1.9c1,1.3,1.5,3,1.5,5.1h-9.6c0,1.3.5,2.4,1.2,3.2.7.8,1.7,1.2,2.9,1.2,1.9,0,3-.8,3.4-2.5h1.9c-.3,1.3-.9,2.4-1.8,3.1-.9.7-2.1,1.1-3.5,1.1ZM199.6,265.9c-.6-.7-1.5-1.1-2.6-1.1s-2,.4-2.6,1.1c-.6.7-1,1.7-1.2,2.9h7.5c0-1.2-.4-2.2-1-2.9ZM204.6,276v-12.4h1.9v1.8h0c.4-.6.9-1.1,1.6-1.5.6-.4,1.3-.6,2.1-.6,1.6,0,2.7.7,3.2,2.2h0c.4-.7.9-1.2,1.6-1.6.7-.4,1.4-.6,2.2-.6,1.1,0,2,.4,2.7,1.1.7.7,1,1.7,1,2.9v8.7h-1.9v-8.6c0-.8-.2-1.3-.7-1.8-.4-.4-1-.7-1.6-.7s-1.5.3-2.1,1c-.6.6-.9,1.4-.9,2.4v7.7h-1.9v-8.6c0-.8-.2-1.3-.6-1.8-.4-.4-.9-.7-1.5-.7s-1.5.3-2.2,1c-.7.6-1,1.4-1,2.4v7.7h-1.9ZM229.6,276.4c-1.6,0-3-.7-3.9-2h0v1.6h-1.9v-17.2h1.9v6.5h0c1-1.4,2.3-2.1,4-2.1s2.9.6,3.8,1.8c1,1.2,1.4,2.7,1.4,4.8s-.5,3.6-1.4,4.8c-.9,1.2-2.2,1.8-3.9,1.8ZM229.4,274.7c1.2,0,2-.4,2.6-1.3.6-.9.9-2.1.9-3.6s-.3-2.6-.9-3.5c-.6-.9-1.5-1.4-2.6-1.4s-2.3.5-3,1.4c-.7.9-1,2.1-1,3.5s.3,2.6,1,3.5,1.6,1.3,2.9,1.3ZM236.9,276v-17.2h1.9v17.2h-1.9ZM246.9,276.3c-1.8,0-3.3-.6-4.4-1.8-1.1-1.2-1.6-2.8-1.6-4.7s.5-3.4,1.6-4.6c1.1-1.3,2.5-1.9,4.2-1.9s3.2.6,4.2,1.9c1,1.3,1.5,3,1.5,5.1h-9.6c0,1.3.5,2.4,1.2,3.2.7.8,1.7,1.2,2.9,1.2,1.9,0,3-.8,3.4-2.5h1.9c-.3,1.3-.9,2.4-1.8,3.1-.9.7-2.1,1.1-3.5,1.1ZM249.4,265.9c-.6-.7-1.5-1.1-2.6-1.1s-2,.4-2.6,1.1c-.6.7-1,1.7-1.2,2.9h7.5c0-1.2-.4-2.2-1-2.9ZM259.2,276.4c-1.7,0-3-.6-4-1.8-1-1.2-1.5-2.8-1.5-4.8s.5-3.6,1.5-4.8c1-1.2,2.3-1.8,3.9-1.8s3,.7,3.9,2h0v-6.5h1.9v17.2h-1.9v-1.5h0c-1,1.2-2.3,1.9-3.8,1.9ZM259.3,274.7c1.3,0,2.3-.4,3-1.3.7-.9,1-2.1,1-3.6s-.4-2.7-1.1-3.6c-.7-.9-1.7-1.3-2.9-1.3s-2,.5-2.6,1.4c-.6.9-.9,2.1-.9,3.5s.3,2.6.9,3.5c.6.9,1.5,1.3,2.7,1.3ZM271.5,276v-12.4h1.9v12.4h-1.9ZM271.5,261.2v-2.4h1.9v2.4h-1.9ZM278,263.6v1.6h0c1-1.3,2.3-1.9,3.9-1.9s2.3.3,3.1,1,1.1,1.7,1.1,3v8.7h-1.9v-8.5c0-.8-.2-1.4-.7-1.8-.5-.4-1.2-.7-2.1-.7s-1.8.3-2.4,1c-.6.6-1,1.5-1,2.5v7.6h-1.9v-12.4h1.9ZM297.9,276.3c-1.8,0-3.3-.6-4.4-1.9-1.1-1.2-1.6-2.8-1.6-4.7s.5-3.4,1.6-4.7c1.1-1.2,2.6-1.9,4.4-1.9s2.6.4,3.6,1.2c.9.8,1.5,1.8,1.7,3.1h-2c-.1-.8-.5-1.5-1.1-2s-1.3-.7-2.3-.7-2.3.5-3,1.4c-.7.9-1,2.1-1,3.5s.3,2.6,1,3.5c.7.9,1.7,1.4,3,1.4s1.8-.3,2.4-.8c.6-.5.9-1.3,1-2.3h1.9c-.1,1.5-.7,2.6-1.6,3.5-.9.8-2.2,1.2-3.7,1.2ZM307,258.8v6.4h0c1-1.3,2.3-1.9,3.9-1.9s2.3.3,3.1,1c.7.7,1.1,1.7,1.1,3v8.7h-1.9v-8.5c0-.8-.2-1.4-.7-1.8-.5-.4-1.2-.7-2.1-.7s-1.8.3-2.4,1-1,1.5-1,2.5v7.6h-1.9v-17.2h1.9ZM317.7,276v-12.4h1.9v12.4h-1.9ZM317.7,261.2v-2.4h1.9v2.4h-1.9ZM324.2,263.6v1.6h0c1-1.3,2.3-1.9,3.9-1.9s2.3.3,3.1,1,1.1,1.7,1.1,3v8.7h-1.9v-8.5c0-.8-.2-1.4-.7-1.8-.5-.4-1.2-.7-2.1-.7s-1.8.3-2.4,1c-.6.6-1,1.5-1,2.5v7.6h-1.9v-12.4h1.9ZM344.7,276.1c-1.2,0-1.9-.6-2.1-1.8h0c-1,1.3-2.4,2-4.1,2s-2.2-.3-3-.9c-.8-.6-1.2-1.4-1.2-2.6s0-1.1.3-1.5c.2-.4.4-.8.7-1,.3-.3.7-.5,1.2-.7.5-.2,1-.4,1.5-.5.5-.1,1.1-.2,1.8-.3.5,0,.8-.1,1-.1.2,0,.5-.1.8-.2.3,0,.5-.2.7-.3.1-.1.2-.3.4-.5.1-.2.2-.4.2-.7,0-.7-.2-1.2-.7-1.6-.5-.4-1.2-.6-2-.6-2,0-3,.9-3.1,2.7h-1.9c0-1.3.5-2.3,1.3-3,.8-.8,2.1-1.2,3.6-1.2,3.1,0,4.6,1.3,4.6,3.9v5.9c0,.5,0,.9.3,1.2.2.2.5.3,1.1.2h0v1.4c-.3.1-.7.2-1.1.2ZM338.9,274.8c1.2,0,2.1-.3,2.8-1,.7-.7,1-1.5,1-2.3v-2.1c-.6.4-1.5.7-2.8.9-.5,0-.9.2-1.1.2-.3,0-.6.1-.9.3-.4.1-.6.3-.8.4s-.3.4-.5.6c-.1.3-.2.6-.2.9,0,1.3.9,2,2.6,2Z"/>
  <path class="cls-3" d="M237,110.2v-1.6h1.7v-2c0-1,.3-1.8.8-2.2.6-.5,1.4-.7,2.4-.7s.6,0,1,0v1.7c-.2,0-.4,0-.6,0-.6,0-1.1,0-1.3.3-.3.2-.4.5-.4,1v1.9h2.3v1.6h-2.3v10.8h-1.9v-10.8h-1.7ZM254.1,119.5c-1.1,1.2-2.5,1.9-4.3,1.9s-3.3-.6-4.4-1.9c-1.1-1.2-1.6-2.8-1.6-4.7s.5-3.4,1.6-4.7c1.1-1.2,2.6-1.9,4.4-1.9s3.3.6,4.3,1.9,1.6,2.8,1.6,4.7-.5,3.4-1.6,4.7ZM246.8,118.3c.7.9,1.7,1.4,3,1.4s2.3-.5,3-1.4c.7-.9,1-2.1,1-3.5s-.4-2.6-1.1-3.5c-.7-.9-1.7-1.4-2.9-1.4s-2.3.5-3,1.4c-.7.9-1,2.1-1,3.5s.3,2.6,1,3.5ZM259.6,108.6v2.1h0c.4-.7.9-1.2,1.6-1.6.6-.4,1.4-.6,2.1-.6s.6,0,.8.1v1.9h0c-.2,0-.5-.1-.9-.1-1,0-1.8.4-2.5,1.1-.7.7-1.1,1.6-1.1,2.7v6.9h-1.9v-12.4h1.9Z"/>
  <path class="cls-3" d="M75.4,268.3h6.6v-28.5h-6.6v16.8c0,4.1-2.6,6.5-6.8,6.5s-6-3-6-6.5v-16.8h-6.6v18.6c0,6.1,2.6,10.7,9.5,10.7s8.5-2.5,9.8-8.6h0v7.8Z"/>
  <path class="cls-3" d="M56,229h26v6.5h-26v-6.5Z"/>
  <path class="cls-5" d="M285.6,78.5c-9.8,5.8-22.7,8.7-35.6,8.7s-25.8-2.9-35.6-8.7c-9.8-5.8-14.5-13.2-14.5-20.5s4.7-14.7,14.5-20.5c9.8-5.8,22.7-8.7,35.6-8.7s25.8,2.9,35.6,8.7c9.8,5.8,14.5,13.2,14.5,20.5s-4.7,14.7-14.5,20.5Z"/>
  <path class="cls-3" d="M278.2,69.6v-18.9h2.2v18.9h-2.2ZM278.2,48.3v-3.6h2.2v3.6h-2.2Z"/>
  <path class="cls-3" d="M252.2,69.6v-18.9h2.1v5.4h0v13.5h-2.2ZM262.7,57.4c0-1.1-.1-2-.4-2.7-.3-.7-.7-1.3-1.3-1.6-.6-.4-1.3-.5-2.1-.5s-1.5.2-2.2.7c-.7.5-1.2,1.2-1.6,2.2-.4,1-.6,2.3-.6,3.8h-1.5v-3.2h.8c.2-1.2.6-2.2,1.1-3,.5-.9,1.1-1.5,1.9-2,.8-.5,1.6-.7,2.6-.7s2.2.3,3,.9c.8.6,1.5,1.4,1.9,2.4.4,1,.6,2.2.6,3.5v12.5h-2.2v-12.2ZM273.2,57.4c0-1.1-.1-2-.4-2.7-.3-.7-.7-1.3-1.3-1.6-.6-.4-1.3-.5-2.1-.5s-1.5.2-2.2.7c-.7.5-1.2,1.2-1.6,2.2-.4,1-.6,2.3-.6,3.8h-1.5v-2.9h.6c.2-1.2.6-2.3,1.1-3.2.5-.9,1.2-1.6,2-2.2.8-.5,1.7-.8,2.7-.8s2.2.3,3.1.9c.8.6,1.5,1.4,1.9,2.4.4,1,.6,2.2.6,3.6v12.5h-2.2v-12.2Z"/>
  <path class="cls-3" d="M242.7,70c-1.5,0-2.9-.4-4-1.2-1.2-.8-2-2-2.7-3.5-.6-1.5-.9-3.2-.9-5.2s.3-3.7.9-5.2c.6-1.5,1.5-2.7,2.6-3.5,1.1-.8,2.5-1.2,4-1.2s2.9.4,4.1,1.3c1.1.9,2,2,2.6,3.5.6,1.5.9,3.2.9,5.1v.8h-14.1v-2.1h12.8l-1,.7c0-1.4-.2-2.6-.6-3.6-.4-1.1-1-1.9-1.8-2.5-.8-.6-1.7-.9-2.9-.9s-2,.3-2.8.9c-.8.6-1.4,1.4-1.8,2.5-.4,1.1-.7,2.5-.7,4v.3c0,1.6.2,3,.6,4.2.4,1.1,1.1,2,1.9,2.6.8.6,1.8.9,2.9.9s1.6-.2,2.2-.5c.7-.3,1.2-.8,1.7-1.5.4-.6.7-1.4.9-2.3h2.2c-.2,1.3-.7,2.4-1.3,3.4-.6,1-1.4,1.7-2.4,2.3-1,.5-2.1.8-3.4.8Z"/>
  <path class="cls-3" d="M230.8,57.4c0-1.1-.2-2-.5-2.7-.3-.7-.8-1.3-1.4-1.6-.6-.4-1.4-.5-2.2-.5s-1.6.2-2.4.7c-.7.5-1.3,1.2-1.8,2.2-.5,1-.7,2.2-.7,3.6h-1.5v-3h.8c.2-1.1.6-2.1,1.2-3,.6-.9,1.3-1.5,2.1-2,.8-.5,1.8-.7,2.8-.7s2.3.3,3.1.8c.9.5,1.5,1.3,2,2.3.5,1,.7,2.3.7,3.7v12.5h-2.2v-12.2ZM219.6,69.6v-26.1h2.2v26.1h-2.2Z"/>
  <path class="cls-3" d="M223.6,155.8c-4.9,1.7-7.9,11.5-10.9,9.2-3.5-2.8,5.3-15.8,3.5-18.5-.9-1.4-3.6,4-5.9,8-2.8,5-7.3,12.9-10,10.4-3.4-3.3,14.1-32.1,11.7-34.5-1.1-1.1-3.2,2.7-5.9,7.5h-1.3c3.1-6.1,7.1-13.8,9.8-11.5,3.9,3.4-13.7,33.6-11,34.8,1.2.4,3.4-3.9,5.2-7,1.6-2.9,7-14,9.6-11.1,3.1,3.4-5.5,16.9-2.7,18.1,1,.4,3-4.3,7.8-7v1.6Z"/>
  <path class="cls-3" d="M283.4,170.6c.3,0,.6,0,.9,0h.9c.7,0,1.3-.1,1.8-.4.5-.3.9-.6,1.3-1.1.4-.5.7-1.1.9-1.8l1.3-3.4v2.6c0,0-8.7-22.6-8.7-22.6h3.1l4.7,12.9c.4,1.2.8,2.3,1.2,3.4s.8,2.2,1.1,3.3h-.8c.4-1.2.8-2.5,1.2-3.6.4-1.2.7-2.2,1-3.1l4.5-12.9h3l-8.8,23.9c-.5,1.3-1,2.3-1.6,3-.6.8-1.3,1.3-2.2,1.7-.8.4-1.8.5-3,.5s-.6,0-.9,0c-.3,0-.6,0-.9,0v-2.3Z"/>
  <path class="cls-3" d="M270.8,165.2c-1.8,0-3.5-.5-4.8-1.4-1.4-.9-2.4-2.2-3.2-3.8-.8-1.6-1.1-3.6-1.1-5.7s.4-4.1,1.1-5.7c.8-1.6,1.8-2.9,3.2-3.8,1.4-.9,3-1.4,4.8-1.4s3.3.4,4.6,1.4c1.3.9,2.3,2.2,3,3.8.7,1.6,1.1,3.5,1.1,5.7h0c0,2.2-.3,4.2-1,5.8-.7,1.6-1.7,2.9-3,3.8-1.3.9-2.8,1.4-4.6,1.4ZM271.3,162.8c1.4,0,2.6-.3,3.6-1,1-.7,1.8-1.7,2.3-2.9.5-1.3.8-2.8.8-4.5s-.3-3.2-.8-4.5c-.5-1.3-1.3-2.3-2.3-2.9-1-.7-2.2-1-3.6-1s-2.5.4-3.5,1.1c-1,.7-1.8,1.7-2.3,3-.5,1.3-.8,2.8-.8,4.5s.3,3.2.8,4.5c.5,1.2,1.3,2.2,2.3,2.9,1,.7,2.2,1,3.6,1ZM278,164.7v-5.7h.2v-9.5h-.4v-13.6h2.8v28.7h-2.7Z"/>
  <path class="cls-3" d="M242.1,164.7v-20.8h2.7v5.9h.1v14.9h-2.8ZM256.3,151.3c0-1.2-.2-2.2-.6-3-.4-.8-1-1.4-1.8-1.8-.8-.4-1.7-.6-2.9-.6s-2.1.3-3,.8c-.9.5-1.7,1.3-2.3,2.4-.6,1.1-.9,2.4-.9,4h-2v-3.3h1c.3-1.2.8-2.3,1.5-3.3.7-1,1.6-1.7,2.6-2.2,1.1-.5,2.3-.8,3.6-.8s2.9.3,4,.9c1.1.6,2,1.4,2.5,2.6.6,1.1.9,2.5.9,4.1v13.7h-2.8v-13.4Z"/>
  <path class="cls-3" d="M239,164.8c-.8,0-1.5-.1-2.1-.4-.5-.3-.9-.7-1.1-1.2-.2-.5-.4-1.2-.4-2v-1.6c0,0,0-7.5,0-7.5v-2.8c0-.8-.2-1.4-.5-1.9-.3-.5-.9-.9-1.6-1.2-.8-.3-1.7-.4-3-.4s-2.4.1-3.2.4c-.8.3-1.4.8-1.8,1.4-.4.7-.6,1.5-.7,2.6h-2.8c0-1.4.4-2.6,1-3.6.6-1,1.5-1.8,2.7-2.3,1.2-.5,2.8-.8,4.8-.8s3.3.2,4.5.7c1.2.5,2,1.2,2.6,2,.5.9.8,1.9.8,3.1v11.8c0,.3,0,.6.2.8.1.2.3.4.5.5.2.1.5.2.8.2h.5c.2,0,.4,0,.5,0v2.2c-.2,0-.5,0-.8,0-.3,0-.6,0-.8,0ZM228,165.2c-1.5,0-2.8-.2-3.8-.7-1.1-.5-1.9-1.2-2.5-2.1-.6-.9-.9-2-.9-3.2s.3-2.2.8-3c.5-.9,1.3-1.6,2.4-2.1,1.1-.6,2.6-1,4.4-1.2l3.2-.4c.9-.1,1.7-.3,2.2-.5.5-.3.9-.6,1.2-1,.2-.4.4-1,.4-1.6l1.1.2c0,1.2-.1,2.1-.4,2.7-.2.7-.7,1.2-1.3,1.5-.6.4-1.5.6-2.7.8l-3.2.4c-1.2.2-2.2.4-3,.8-.8.3-1.3.8-1.6,1.3-.3.6-.5,1.2-.5,2s.2,1.4.5,2c.3.6.8,1,1.5,1.3.7.3,1.5.5,2.5.5s2.5-.2,3.5-.7c1.1-.5,1.9-1.2,2.6-2.2.6-1,1-2.2,1-3.7h1.1v2.2c-.3,1.4-.8,2.7-1.6,3.7-.8,1-1.7,1.7-2.9,2.3-1.2.5-2.5.8-4,.8Z"/>
  <path class="cls-6" d="M235.9,407.5"/>
  <rect class="cls-1" x="235.9" y="407.4" width=".5" height=".5"/>
</svg>