<svg width="102" height="60" viewBox="0 0 102 60" fill="none" xmlns="http://www.w3.org/2000/svg">
<path d="M86.6156 50.4535C76.824 56.2133 63.9357 59.1186 51 59.1186C38.0643 59.1186 25.176 56.2133 15.3844 50.4535C5.59012 44.6922 0.881355 37.2601 0.881355 30C0.881355 22.7399 5.59012 15.3078 15.3844 9.54647C25.176 3.78671 38.0643 0.881357 51 0.881357C63.9357 0.881357 76.824 3.78671 86.6156 9.54647C96.4099 15.3078 101.119 22.7399 101.119 30C101.119 37.2601 96.4099 44.6922 86.6156 50.4535Z" stroke="#F4492B" stroke-width="1.76271"/>
<path d="M79.1584 41.5607V22.6552H81.3771V41.5607H79.1584ZM79.1584 20.3378V16.7197H81.3771V20.3378H79.1584Z" fill="#F4492B"/>
<path d="M53.2115 41.56V22.6545H55.3341V28.0129L55.4303 28.0587V41.56H53.2115ZM63.6884 29.3594C63.6884 28.2602 63.5415 27.3503 63.2478 26.6298C62.9541 25.9031 62.5243 25.3627 61.9583 25.0085C61.3922 24.6544 60.7034 24.4773 59.8917 24.4773C59.1121 24.4773 58.3859 24.7154 57.7131 25.1917C57.0402 25.6619 56.4929 26.4008 56.071 27.4084C55.6545 28.4159 55.4409 29.683 55.4303 31.2096H53.9084V27.9671H54.7574C54.9924 26.813 55.3582 25.8054 55.8548 24.9444C56.3514 24.0834 56.9762 23.4148 57.7291 22.9385C58.4873 22.456 59.3524 22.2148 60.3243 22.2148C61.515 22.2148 62.5296 22.508 63.368 23.0942C64.2063 23.6743 64.8364 24.4803 65.2583 25.5123C65.6855 26.5382 65.8991 27.7198 65.8991 29.0571V41.56H63.6884V29.3594ZM74.1572 29.3594C74.1572 28.2602 74.0103 27.3503 73.7166 26.6298C73.4283 25.9031 73.0011 25.3627 72.4351 25.0085C71.8744 24.6544 71.1829 24.4773 70.3605 24.4773C69.5702 24.4773 68.8387 24.7154 68.1658 25.1917C67.493 25.6619 66.9484 26.4008 66.5318 27.4084C66.1207 28.4159 65.9098 29.683 65.8991 31.2096H64.3612V28.3335L64.9299 28.306C65.1648 27.1153 65.544 26.0619 66.0673 25.1459C66.5959 24.23 67.2607 23.5125 68.0617 22.9934C68.8627 22.4744 69.7678 22.2148 70.777 22.2148C71.9785 22.2148 72.9984 22.4988 73.8368 23.0667C74.6805 23.6346 75.3133 24.4315 75.7351 25.4574C76.1623 26.4832 76.3759 27.6832 76.3759 29.0571V41.56H74.1572V29.3594Z" fill="#F4492B"/>
<path d="M43.7436 41.9997C42.2057 41.9997 40.8574 41.5936 39.6986 40.7814C38.5452 39.9632 37.6534 38.8091 37.0233 37.3191C36.3986 35.8291 36.0862 34.0918 36.0862 32.1073C36.0862 30.1532 36.3932 28.4312 37.0073 26.9412C37.6214 25.4451 38.4998 24.2849 39.6425 23.4606C40.7853 22.6301 42.1256 22.2148 43.6635 22.2148C45.2441 22.2148 46.6004 22.6484 47.7324 23.5155C48.8645 24.3765 49.7242 25.5581 50.3116 27.0603C50.899 28.5564 51.1927 30.2448 51.1927 32.1256C51.1927 32.2538 51.1927 32.3851 51.1927 32.5194C51.1927 32.6538 51.1927 32.7912 51.1927 32.9316H37.1355V30.8249H49.8871L48.9099 31.5027C48.8992 30.1349 48.6909 28.9197 48.2851 27.8572C47.8793 26.7886 47.2812 25.9489 46.4909 25.3383C45.7006 24.7276 44.7501 24.4223 43.6394 24.4223C42.5661 24.4223 41.6316 24.7124 40.836 25.2925C40.0457 25.8726 39.4316 26.7183 38.9937 27.8297C38.5612 28.9411 38.3369 30.2845 38.3209 31.8599V32.1622C38.3209 33.7987 38.5372 35.1879 38.9697 36.3298C39.4022 37.4656 40.0243 38.3267 40.836 38.9129C41.653 39.4991 42.6302 39.7922 43.7676 39.7922C44.6059 39.7922 45.3535 39.6212 46.0103 39.2793C46.6725 38.9312 47.2225 38.4396 47.6603 37.8046C48.0982 37.1634 48.4079 36.4092 48.5895 35.5421H50.8322C50.5919 36.8184 50.1541 37.9419 49.5186 38.9129C48.8885 39.8838 48.0822 40.641 47.0997 41.1845C46.1171 41.7279 44.9984 41.9997 43.7436 41.9997Z" fill="#F4492B"/>
<path d="M31.8287 29.3871C31.8287 28.288 31.6658 27.3751 31.3401 26.6484C31.0144 25.9156 30.5445 25.3722 29.9304 25.018C29.3163 24.6577 28.566 24.4776 27.6796 24.4776C26.8413 24.4776 26.0563 24.7127 25.3247 25.1829C24.5932 25.6469 23.9978 26.3644 23.5386 27.3354C23.0847 28.3063 22.8524 29.5184 22.8417 30.9717H21.2958V27.9582L22.1208 27.9674C22.3558 26.8499 22.7509 25.8607 23.3063 24.9997C23.8616 24.1325 24.5585 23.4517 25.3968 22.9571C26.2352 22.4624 27.1723 22.2151 28.2083 22.2151C29.4258 22.2151 30.4697 22.4808 31.3401 23.012C32.2158 23.5433 32.8833 24.3249 33.3426 25.3569C33.8071 26.3828 34.0394 27.6254 34.0394 29.0849V41.5603H31.8287V29.3871ZM20.623 41.5603V15.4736H22.8417V41.5603H20.623Z" fill="#F4492B"/>
</svg>
