<svg width="45" height="32" viewBox="0 0 45 32" fill="none" xmlns="http://www.w3.org/2000/svg">
<path fill-rule="evenodd" clip-rule="evenodd" d="M17.5067 27.8087V31.5457C16.9779 31.5985 16.4467 31.625 15.9152 31.625C11.6942 31.625 7.64612 29.959 4.66145 26.9936C1.67677 24.0282 0 20.0062 0 15.8125C0 11.6188 1.67677 7.59679 4.66145 4.63137C7.64612 1.66596 11.6942 0 15.9152 0C16.4467 0 16.9779 0.0264535 17.5067 0.0792611V3.81627V4.82301C17.1746 4.78267 16.8409 4.75722 16.5067 4.74672C16.3096 4.74053 16.1124 4.73954 15.9152 4.74375C12.9605 4.74375 10.1268 5.90992 8.03757 7.98571C5.9483 10.0615 4.77455 12.8769 4.77455 15.8125C4.77455 18.7481 5.9483 21.5635 8.03757 23.6393C10.1268 25.7151 12.9605 26.8813 15.9152 26.8813C16.1124 26.8855 16.3096 26.8845 16.5067 26.8783C16.8409 26.8678 17.1746 26.8423 17.5067 26.802V27.8087ZM16.5067 1.01165V3.74627C16.3061 3.74048 16.1053 3.73964 15.9045 3.74375C12.6905 3.74656 9.60753 5.01621 7.33275 7.27632C5.05523 9.53914 3.77455 12.6096 3.77455 15.8125C3.77455 19.0154 5.05523 22.0859 7.33275 24.3487C9.60754 26.6088 12.6906 27.8785 15.9045 27.8812C16.1053 27.8854 16.3061 27.8845 16.5067 27.8787V30.6133C16.3097 30.6211 16.1124 30.625 15.9152 30.625C11.9573 30.625 8.16291 29.0628 5.36626 26.2842C2.56983 23.5058 1 19.7389 1 15.8125C1 11.8861 2.56983 8.11915 5.36626 5.34077C8.16291 2.56216 11.9573 1 15.9152 1C16.1124 1 16.3097 1.00389 16.5067 1.01165ZM35.9877 7.18751C34.2802 8.55204 33.0218 10.3813 32.3589 12.4406C32.2534 12.7684 32.163 13.1021 32.0882 13.4406H33.1148H40.3795H41.3795V14.4406V17.1844V18.1844H40.3795H33.1148H32.0882C32.163 18.5229 32.2534 18.8566 32.3589 19.1844C33.0218 21.2437 34.2802 23.073 35.9877 24.4375C37.967 26.0192 40.4309 26.8815 42.971 26.8813C43.1682 26.8855 43.3654 26.8845 43.5625 26.8783C43.8967 26.8678 44.2304 26.8423 44.5625 26.802V27.8087V31.5457C44.0337 31.5985 43.5025 31.625 42.971 31.625C38.75 31.625 34.7019 29.959 31.7173 26.9936C28.7326 24.0282 27.0558 20.0062 27.0558 15.8125C27.0558 11.6188 28.7326 7.59679 31.7173 4.63137C34.7019 1.66596 38.75 0 42.971 0C43.5025 0 44.0337 0.0264535 44.5625 0.0792611V3.81627V4.82301C44.2304 4.78267 43.8967 4.75722 43.5625 4.74672C43.3654 4.74053 43.1682 4.73954 42.971 4.74375C40.4309 4.74354 37.967 5.60577 35.9877 7.18751ZM32.0882 14.4406H40.3795V17.1844H32.0882H30.8433L31.1117 18.4C31.7055 21.0892 33.2062 23.4948 35.3634 25.2187C37.5177 26.9403 40.1978 27.8791 42.9604 27.8812C43.1611 27.8854 43.3619 27.8845 43.5625 27.8787V30.6133C43.3655 30.6211 43.1682 30.625 42.971 30.625C39.0131 30.625 35.2187 29.0628 32.4221 26.2842C29.6256 23.5058 28.0558 19.7389 28.0558 15.8125C28.0558 11.8861 29.6256 8.11915 32.4221 5.34077C35.2187 2.56216 39.0131 1 42.971 1C43.1682 1 43.3655 1.00389 43.5625 1.01165V3.74627C43.3619 3.74048 43.1611 3.73964 42.9604 3.74375C40.1977 3.74595 37.5177 4.68475 35.3634 6.40632C33.2062 8.13022 31.7055 10.5358 31.1117 13.225L30.8433 14.4406H32.0882Z" fill="#F4492B"/>
</svg>
