<svg width="500" height="500" viewBox="0 0 500 500" fill="none" xmlns="http://www.w3.org/2000/svg">
<path fill-rule="evenodd" clip-rule="evenodd" d="M250 499C387.519 499 499 387.519 499 250C499 112.481 387.519 1 250 1C112.481 1 1.00012 112.481 1.00012 250C1.00012 387.519 112.481 499 250 499ZM250 500C388.071 500 500 388.071 500 250C500 111.929 388.071 0 250 0C111.929 0 0.00012207 111.929 0.00012207 250C0.00012207 388.071 111.929 500 250 500Z" fill="#F4492B"/>
<path fill-rule="evenodd" clip-rule="evenodd" d="M284.458 394.381C288.001 393.219 291.824 393.206 295.375 394.345C298.925 395.483 302.021 397.715 304.213 400.718L304.51 401.124L300.893 403.735L300.599 403.333C298.964 401.094 296.655 399.428 294.005 398.578C291.354 397.729 288.501 397.738 285.857 398.606C283.212 399.474 280.914 401.154 279.294 403.405C277.674 405.655 276.816 408.359 276.843 411.125C276.869 413.892 277.78 416.579 279.443 418.798C281.106 421.017 283.436 422.653 286.097 423.47C288.758 424.288 291.611 424.243 294.244 423.342C296.877 422.442 299.154 420.733 300.746 418.463L301.031 418.056L304.698 420.597L304.409 421.009C302.275 424.053 299.223 426.343 295.695 427.549C292.167 428.755 288.345 428.816 284.78 427.721C281.215 426.626 278.092 424.433 275.862 421.458C274.025 419.007 272.873 416.131 272.503 413.119H265.968V425.24L261.5 428.205V393.799H277.527L274.171 398.247H265.968V408.671H272.53C272.912 405.849 273.981 403.149 275.663 400.814C277.835 397.796 280.915 395.544 284.458 394.381ZM272.097 409.671H264.968V397.247H273.673L275.52 394.799H262.5V426.341L264.968 424.703V412.119H272.097V409.671ZM295.069 395.297C291.719 394.223 288.112 394.235 284.77 395.332C281.427 396.428 278.522 398.553 276.474 401.398C274.426 404.243 273.341 407.661 273.375 411.158C273.409 414.656 274.56 418.053 276.662 420.858C278.765 423.663 281.71 425.732 285.073 426.765C288.437 427.798 292.043 427.741 295.372 426.603C298.541 425.519 301.302 423.509 303.296 420.842L301.272 419.439C299.577 421.683 297.243 423.374 294.567 424.289C291.735 425.257 288.666 425.305 285.803 424.426C282.941 423.547 280.433 421.787 278.643 419.398C276.852 417.008 275.871 414.115 275.843 411.135C275.814 408.155 276.739 405.243 278.483 402.82C280.227 400.398 282.7 398.589 285.545 397.656C288.39 396.722 291.459 396.712 294.31 397.626C297.002 398.49 299.369 400.136 301.107 402.347L303.103 400.906C301.058 398.277 298.259 396.32 295.069 395.297ZM286.76 401.316C288.824 400.639 291.051 400.631 293.12 401.295C295.188 401.958 296.992 403.258 298.27 405.008L298.566 405.414L294.949 408.025L294.656 407.623C293.935 406.637 292.918 405.903 291.75 405.528C290.582 405.154 289.324 405.158 288.159 405.54C286.993 405.923 285.981 406.664 285.267 407.655C284.554 408.646 284.176 409.837 284.187 411.055C284.199 412.273 284.6 413.457 285.333 414.434C286.065 415.412 287.092 416.133 288.265 416.493C289.437 416.853 290.695 416.833 291.855 416.437C293.016 416.04 294.019 415.287 294.72 414.287L295.005 413.88L298.672 416.421L298.384 416.833C297.14 418.606 295.362 419.941 293.306 420.643C291.251 421.346 289.024 421.381 286.947 420.743C284.871 420.106 283.051 418.828 281.752 417.094C280.452 415.361 279.74 413.261 279.72 411.098C279.699 408.935 280.37 406.822 281.636 405.064C282.901 403.306 284.696 401.993 286.76 401.316ZM292.814 402.247C290.947 401.648 288.936 401.655 287.072 402.266C285.208 402.878 283.589 404.062 282.447 405.648C281.305 407.234 280.701 409.139 280.719 411.088C280.738 413.038 281.38 414.931 282.552 416.494C283.724 418.058 285.366 419.212 287.241 419.787C289.116 420.363 291.127 420.332 292.983 419.697C294.679 419.117 296.166 418.061 297.265 416.662L295.238 415.258C294.44 416.234 293.381 416.972 292.179 417.383C290.819 417.848 289.345 417.871 287.971 417.449C286.597 417.027 285.393 416.182 284.532 415.034C283.672 413.887 283.201 412.497 283.187 411.065C283.174 409.633 283.618 408.234 284.456 407.071C285.293 405.907 286.481 405.039 287.847 404.59C289.213 404.142 290.686 404.137 292.055 404.576C293.265 404.964 294.338 405.682 295.155 406.643L297.154 405.2C296.028 403.822 294.522 402.794 292.814 402.247Z" fill="#F4492B"/>
<path fill-rule="evenodd" clip-rule="evenodd" d="M227.673 406.6C228.341 404.511 229.613 402.656 231.341 401.273C233.34 399.672 235.828 398.8 238.393 398.8C238.595 398.796 238.798 398.797 239 398.803C239.334 398.814 239.668 398.84 240 398.88V394.08C239.466 394.027 238.93 394 238.393 394C234.13 394 230.043 395.686 227.029 398.686C224.015 401.687 222.321 405.757 222.321 410C222.321 414.243 224.015 418.313 227.029 421.314C230.043 424.314 234.13 426 238.393 426C238.93 426 239.466 425.973 240 425.92V421.12C239.668 421.16 239.334 421.186 239 421.197C238.798 421.203 238.595 421.204 238.393 421.2C235.828 421.2 233.34 420.328 231.341 418.727C229.613 417.344 228.341 415.489 227.673 413.4C227.568 413.072 227.478 412.738 227.403 412.4H236.786V407.6H227.403C227.478 407.262 227.568 406.928 227.673 406.6ZM235.786 408.6H226.159L226.427 407.385C227.026 404.667 228.539 402.235 230.716 400.492C232.89 398.752 235.594 397.802 238.382 397.8C238.588 397.796 238.794 397.797 239 397.803V395.012C238.798 395.004 238.595 395 238.393 395C234.394 395 230.56 396.581 227.734 399.395C224.908 402.208 223.321 406.023 223.321 410C223.321 413.977 224.908 417.792 227.734 420.605C230.56 423.419 234.394 425 238.393 425C238.595 425 238.798 424.996 239 424.988V422.197C238.794 422.203 238.588 422.204 238.382 422.2C235.594 422.198 232.89 421.248 230.716 419.508C228.539 417.765 227.026 415.333 226.427 412.615L226.159 411.4H235.786V408.6ZM212.679 425.92V421.12C212.346 421.16 212.013 421.186 211.679 421.197C211.476 421.203 211.274 421.204 211.071 421.2C208.088 421.2 205.226 420.02 203.116 417.92C201.007 415.819 199.821 412.97 199.821 410C199.821 407.03 201.007 404.181 203.116 402.08C205.226 399.98 208.088 398.8 211.071 398.8C211.274 398.796 211.476 398.797 211.679 398.803C212.013 398.814 212.346 398.84 212.679 398.88V394.08C212.145 394.027 211.608 394 211.071 394C206.809 394 202.721 395.686 199.707 398.686C196.693 401.687 195 405.757 195 410C195 414.243 196.693 418.313 199.707 421.314C202.721 424.314 206.809 426 211.071 426C211.608 426 212.145 425.973 212.679 425.92ZM211.679 397.803V395.012C211.476 395.004 211.274 395 211.071 395C207.073 395 203.239 396.581 200.413 399.395C197.587 402.208 196 406.023 196 410C196 413.977 197.587 417.792 200.413 420.605C203.239 423.419 207.073 425 211.071 425C211.274 425 211.476 424.996 211.679 424.988V422.197C211.473 422.203 211.267 422.204 211.061 422.2C207.817 422.197 204.706 420.913 202.411 418.628C200.113 416.341 198.821 413.237 198.821 410C198.821 406.763 200.113 403.659 202.411 401.372C204.706 399.087 207.817 397.803 211.061 397.8C211.267 397.796 211.473 397.797 211.679 397.803Z" fill="#F4492B"/>
<path d="M344.72 276.12C343.448 276.12 342.776 275.544 342.584 274.272H342.56C341.816 275.232 340.544 276.24 338.432 276.24C336.08 276.24 334.232 275.136 334.232 272.784C334.232 269.856 336.536 269.256 339.632 268.776C341.384 268.512 342.608 268.344 342.608 267C342.608 265.608 341.6 264.816 339.824 264.816C337.808 264.816 336.8 265.68 336.728 267.552H334.856C334.928 265.152 336.512 263.352 339.8 263.352C342.44 263.352 344.384 264.336 344.384 267.288V273.192C344.384 274.2 344.624 274.752 345.704 274.512H345.776V275.928C345.536 276.024 345.224 276.12 344.72 276.12ZM338.864 274.752C341.456 274.752 342.632 272.856 342.632 271.416V269.304C341.984 269.712 340.856 270.024 339.8 270.216C337.856 270.576 336.296 270.912 336.296 272.736C336.296 274.392 337.592 274.752 338.864 274.752Z" fill="#F4492B"/>
<path d="M324.241 263.592V265.224H324.289C325.177 264.048 326.425 263.304 328.225 263.304C330.817 263.304 332.401 264.72 332.401 267.288V276H330.457V267.456C330.457 265.848 329.401 264.936 327.649 264.936C325.681 264.936 324.241 266.328 324.241 268.368V276H322.297V263.592H324.241Z" fill="#F4492B"/>
<path d="M317.703 276V263.592H319.647V276H317.703ZM317.703 261.24V258.84H319.647V261.24H317.703Z" fill="#F4492B"/>
<path d="M306.967 258.84V265.224H307.015C307.903 264.048 309.151 263.304 310.951 263.304C313.543 263.304 315.127 264.72 315.127 267.288V276H313.183V267.456C313.183 265.848 312.127 264.936 310.375 264.936C308.407 264.936 306.967 266.328 306.967 268.368V276H305.023V258.84H306.967Z" fill="#F4492B"/>
<path d="M297.882 276.336C294.186 276.336 291.882 273.408 291.882 269.808C291.882 266.208 294.186 263.28 297.882 263.28C300.81 263.28 302.754 264.96 303.186 267.6H301.218C300.93 265.92 299.754 264.888 297.882 264.888C295.242 264.888 293.874 267.072 293.874 269.808C293.874 272.544 295.242 274.704 297.882 274.704C299.898 274.704 301.098 273.552 301.266 271.632H303.186C302.922 274.608 300.978 276.336 297.882 276.336Z" fill="#F4492B"/>
<path d="M278.022 263.592V265.224H278.07C278.958 264.048 280.206 263.304 282.006 263.304C284.598 263.304 286.182 264.72 286.182 267.288V276H284.238V267.456C284.238 265.848 283.182 264.936 281.43 264.936C279.462 264.936 278.022 266.328 278.022 268.368V276H276.078V263.592H278.022Z" fill="#F4492B"/>
<path d="M271.484 276V263.592H273.428V276H271.484ZM271.484 261.24V258.84H273.428V261.24H271.484Z" fill="#F4492B"/>
<path d="M259.198 276.36C255.814 276.36 253.702 273.816 253.702 269.832C253.702 265.704 256.078 263.304 259.15 263.304C260.902 263.304 262.246 264.168 263.038 265.344H263.086V258.84H265.03V276H263.086V274.488H263.038C262.102 275.688 260.95 276.36 259.198 276.36ZM259.27 274.728C262.03 274.728 263.206 272.664 263.206 269.856C263.206 266.976 261.814 264.96 259.246 264.96C256.894 264.96 255.694 267.072 255.694 269.856C255.694 272.664 256.894 274.728 259.27 274.728Z" fill="#F4492B"/>
<path d="M246.905 276.336C243.113 276.336 240.905 273.408 240.905 269.808C240.905 266.208 243.257 263.28 246.785 263.28C250.505 263.28 252.497 266.16 252.497 270.264H242.897C243.041 272.784 244.409 274.704 246.905 274.704C248.705 274.704 249.905 273.84 250.337 272.16H252.233C251.657 274.824 249.713 276.336 246.905 276.336ZM246.785 264.816C244.481 264.816 243.233 266.544 242.945 268.8H250.409C250.289 266.328 249.017 264.816 246.785 264.816Z" fill="#F4492B"/>
<path d="M236.939 276V258.84H238.883V276H236.939Z" fill="#F4492B"/>
<path d="M229.576 276.36C227.896 276.36 226.672 275.76 225.664 274.368H225.616V276H223.672V258.84H225.616V265.368H225.664C226.6 264.096 227.848 263.304 229.648 263.304C232.792 263.304 234.928 265.704 234.928 269.832C234.928 273.816 232.936 276.36 229.576 276.36ZM229.432 274.728C231.808 274.728 232.936 272.664 232.936 269.856C232.936 267.072 231.808 264.96 229.456 264.96C226.744 264.96 225.496 267.168 225.496 269.856C225.496 272.64 226.792 274.728 229.432 274.728Z" fill="#F4492B"/>
<path d="M204.617 276V263.592H206.561V265.368H206.609C207.377 264.168 208.697 263.304 210.257 263.304C211.769 263.304 212.969 264.072 213.497 265.512H213.545C214.337 264.096 215.825 263.304 217.337 263.304C219.545 263.304 221.105 264.72 221.105 267.288V276H219.161V267.384C219.161 265.848 218.129 264.936 216.881 264.936C215.273 264.936 213.833 266.328 213.833 268.272V276H211.889V267.384C211.889 265.848 211.025 264.936 209.753 264.936C208.241 264.936 206.561 266.328 206.561 268.272V276H204.617Z" fill="#F4492B"/>
<path d="M197.124 276.336C193.332 276.336 191.124 273.408 191.124 269.808C191.124 266.208 193.476 263.28 197.004 263.28C200.724 263.28 202.716 266.16 202.716 270.264H193.116C193.26 272.784 194.628 274.704 197.124 274.704C198.924 274.704 200.124 273.84 200.556 272.16H202.452C201.876 274.824 199.932 276.336 197.124 276.336ZM197.004 264.816C194.7 264.816 193.452 266.544 193.164 268.8H200.628C200.508 266.328 199.236 264.816 197.004 264.816Z" fill="#F4492B"/>
<path d="M184.829 276.36C181.421 276.36 179.525 274.752 179.333 271.968H181.325C181.589 274.128 183.029 274.728 184.877 274.728C186.917 274.728 187.757 273.84 187.757 272.688C187.757 271.296 186.797 270.936 184.517 270.456C182.069 269.952 179.885 269.448 179.885 266.736C179.885 264.672 181.469 263.328 184.349 263.328C187.421 263.328 188.933 264.792 189.221 267.216H187.229C187.037 265.584 186.149 264.864 184.301 264.864C182.525 264.864 181.805 265.656 181.805 266.64C181.805 267.984 183.005 268.248 185.141 268.68C187.637 269.184 189.725 269.736 189.725 272.592C189.725 275.088 187.685 276.36 184.829 276.36Z" fill="#F4492B"/>
<path d="M173.368 276.36C169.96 276.36 168.064 274.752 167.872 271.968H169.864C170.128 274.128 171.568 274.728 173.416 274.728C175.456 274.728 176.296 273.84 176.296 272.688C176.296 271.296 175.336 270.936 173.056 270.456C170.608 269.952 168.424 269.448 168.424 266.736C168.424 264.672 170.008 263.328 172.888 263.328C175.96 263.328 177.472 264.792 177.76 267.216H175.768C175.576 265.584 174.688 264.864 172.84 264.864C171.064 264.864 170.344 265.656 170.344 266.64C170.344 267.984 171.544 268.248 173.68 268.68C176.176 269.184 178.264 269.736 178.264 272.592C178.264 275.088 176.224 276.36 173.368 276.36Z" fill="#F4492B"/>
<path d="M166.173 276.12C164.901 276.12 164.229 275.544 164.037 274.272H164.013C163.269 275.232 161.997 276.24 159.885 276.24C157.533 276.24 155.685 275.136 155.685 272.784C155.685 269.856 157.989 269.256 161.085 268.776C162.837 268.512 164.061 268.344 164.061 267C164.061 265.608 163.053 264.816 161.277 264.816C159.261 264.816 158.253 265.68 158.181 267.552H156.309C156.381 265.152 157.965 263.352 161.253 263.352C163.893 263.352 165.837 264.336 165.837 267.288V273.192C165.837 274.2 166.077 274.752 167.157 274.512H167.229V275.928C166.989 276.024 166.677 276.12 166.173 276.12ZM160.317 274.752C162.909 274.752 164.085 272.856 164.085 271.416V269.304C163.437 269.712 162.309 270.024 161.253 270.216C159.309 270.576 157.749 270.912 157.749 272.736C157.749 274.392 159.045 274.752 160.317 274.752Z" fill="#F4492B"/>
<path d="M385.38 250V232.84H387.324V250H385.38Z" fill="#F4492B"/>
<path d="M377.815 250.336C374.023 250.336 371.815 247.408 371.815 243.808C371.815 240.208 374.167 237.28 377.695 237.28C381.415 237.28 383.407 240.16 383.407 244.264H373.807C373.951 246.784 375.319 248.704 377.815 248.704C379.615 248.704 380.815 247.84 381.247 246.16H383.143C382.567 248.824 380.623 250.336 377.815 250.336ZM377.695 238.816C375.391 238.816 374.143 240.544 373.855 242.8H381.319C381.199 240.328 379.927 238.816 377.695 238.816Z" fill="#F4492B"/>
<path d="M370.021 250.12C368.749 250.12 368.077 249.544 367.885 248.272H367.861C367.117 249.232 365.845 250.24 363.733 250.24C361.381 250.24 359.533 249.136 359.533 246.784C359.533 243.856 361.837 243.256 364.933 242.776C366.685 242.512 367.909 242.344 367.909 241C367.909 239.608 366.901 238.816 365.125 238.816C363.109 238.816 362.101 239.68 362.029 241.552H360.157C360.229 239.152 361.813 237.352 365.101 237.352C367.741 237.352 369.685 238.336 369.685 241.288V247.192C369.685 248.2 369.925 248.752 371.005 248.512H371.077V249.928C370.837 250.024 370.525 250.12 370.021 250.12ZM364.165 248.752C366.757 248.752 367.933 246.856 367.933 245.416V243.304C367.285 243.712 366.157 244.024 365.101 244.216C363.157 244.576 361.597 244.912 361.597 246.736C361.597 248.392 362.893 248.752 364.165 248.752Z" fill="#F4492B"/>
<path d="M354.463 237.592V239.656H354.511C355.255 238.456 356.551 237.448 358.207 237.448C358.567 237.448 358.759 237.496 358.999 237.592V239.464H358.927C358.639 239.368 358.447 239.344 358.063 239.344C356.143 239.344 354.463 240.784 354.463 243.112V250H352.519V237.592H354.463Z" fill="#F4492B"/>
<path d="M345.762 250.36C342.354 250.36 340.458 248.752 340.266 245.968H342.258C342.522 248.128 343.962 248.728 345.81 248.728C347.85 248.728 348.69 247.84 348.69 246.688C348.69 245.296 347.73 244.936 345.45 244.456C343.002 243.952 340.818 243.448 340.818 240.736C340.818 238.672 342.402 237.328 345.282 237.328C348.354 237.328 349.866 238.792 350.154 241.216H348.162C347.97 239.584 347.082 238.864 345.234 238.864C343.458 238.864 342.738 239.656 342.738 240.64C342.738 241.984 343.938 242.248 346.074 242.68C348.57 243.184 350.658 243.736 350.658 246.592C350.658 249.088 348.618 250.36 345.762 250.36Z" fill="#F4492B"/>
<path d="M336.465 250V237.592H338.409V250H336.465ZM336.465 235.24V232.84H338.409V235.24H336.465Z" fill="#F4492B"/>
<path d="M321.909 237.592V239.224H321.957C322.845 238.048 324.093 237.304 325.893 237.304C328.485 237.304 330.069 238.72 330.069 241.288V250H328.125V241.456C328.125 239.848 327.069 238.936 325.317 238.936C323.349 238.936 321.909 240.328 321.909 242.368V250H319.965V237.592H321.909Z" fill="#F4492B"/>
<path d="M315.371 250V237.592H317.315V250H315.371ZM315.371 235.24V232.84H317.315V235.24H315.371Z" fill="#F4492B"/>
<path d="M304.058 250.336C300.266 250.336 298.058 247.408 298.058 243.808C298.058 240.208 300.41 237.28 303.938 237.28C307.658 237.28 309.65 240.16 309.65 244.264H300.05C300.194 246.784 301.562 248.704 304.058 248.704C305.858 248.704 307.058 247.84 307.49 246.16H309.386C308.81 248.824 306.866 250.336 304.058 250.336ZM303.938 238.816C301.634 238.816 300.386 240.544 300.098 242.8H307.562C307.442 240.328 306.17 238.816 303.938 238.816Z" fill="#F4492B"/>
<path d="M294.091 250V232.84H296.035V250H294.091Z" fill="#F4492B"/>
<path d="M286.878 250.336C283.182 250.336 280.878 247.408 280.878 243.808C280.878 240.208 283.182 237.28 286.878 237.28C289.806 237.28 291.75 238.96 292.182 241.6H290.214C289.926 239.92 288.75 238.888 286.878 238.888C284.238 238.888 282.87 241.072 282.87 243.808C282.87 246.544 284.238 248.704 286.878 248.704C288.894 248.704 290.094 247.552 290.262 245.632H292.182C291.918 248.608 289.974 250.336 286.878 250.336Z" fill="#F4492B"/>
<path d="M271.65 254.104C270.906 254.104 270.426 254.056 269.898 253.84V252.112H269.994C270.258 252.256 270.666 252.376 271.314 252.376C272.13 252.376 272.682 252.064 273.162 250.864L273.642 249.64L268.794 237.592H270.906L273.834 245.32C274.218 246.352 274.674 247.744 274.674 247.744H274.722C274.722 247.744 275.154 246.352 275.538 245.32L278.37 237.592H280.434L275.13 251.008C274.122 253.576 273.162 254.104 271.65 254.104Z" fill="#F4492B"/>
<path d="M262.925 250.336C259.229 250.336 256.925 247.408 256.925 243.808C256.925 240.208 259.229 237.28 262.925 237.28C265.853 237.28 267.797 238.96 268.229 241.6H266.261C265.973 239.92 264.797 238.888 262.925 238.888C260.285 238.888 258.917 241.072 258.917 243.808C258.917 246.544 260.285 248.704 262.925 248.704C264.941 248.704 266.141 247.552 266.309 245.632H268.229C267.965 248.608 266.021 250.336 262.925 250.336Z" fill="#F4492B"/>
<path d="M253.027 250V237.592H254.971V250H253.027ZM253.027 235.24V232.84H254.971V235.24H253.027Z" fill="#F4492B"/>
<path d="M245.736 250.36C244.056 250.36 242.832 249.76 241.824 248.368H241.776V250H239.832V232.84H241.776V239.368H241.824C242.76 238.096 244.008 237.304 245.808 237.304C248.952 237.304 251.088 239.704 251.088 243.832C251.088 247.816 249.096 250.36 245.736 250.36ZM245.592 248.728C247.968 248.728 249.096 246.664 249.096 243.856C249.096 241.072 247.968 238.96 245.616 238.96C242.904 238.96 241.656 241.168 241.656 243.856C241.656 246.64 242.952 248.728 245.592 248.728Z" fill="#F4492B"/>
<path d="M225.853 254.104C225.109 254.104 224.629 254.056 224.101 253.84V252.112H224.197C224.461 252.256 224.869 252.376 225.517 252.376C226.333 252.376 226.885 252.064 227.365 250.864L227.845 249.64L222.997 237.592H225.109L228.037 245.32C228.421 246.352 228.877 247.744 228.877 247.744H228.925C228.925 247.744 229.357 246.352 229.741 245.32L232.573 237.592H234.637L229.333 251.008C228.325 253.576 227.365 254.104 225.853 254.104Z" fill="#F4492B"/>
<path d="M217.212 250.36C215.532 250.36 214.308 249.76 213.3 248.368H213.252V250H211.308V232.84H213.252V239.368H213.3C214.236 238.096 215.484 237.304 217.284 237.304C220.428 237.304 222.564 239.704 222.564 243.832C222.564 247.816 220.572 250.36 217.212 250.36ZM217.068 248.728C219.444 248.728 220.572 246.664 220.572 243.856C220.572 241.072 219.444 238.96 217.092 238.96C214.38 238.96 213.132 241.168 213.132 243.856C213.132 246.64 214.428 248.728 217.068 248.728Z" fill="#F4492B"/>
<path d="M199.022 250.36C195.638 250.36 193.526 247.816 193.526 243.832C193.526 239.704 195.902 237.304 198.974 237.304C200.726 237.304 202.07 238.168 202.862 239.344H202.91V232.84H204.854V250H202.91V248.488H202.862C201.926 249.688 200.774 250.36 199.022 250.36ZM199.094 248.728C201.854 248.728 203.03 246.664 203.03 243.856C203.03 240.976 201.638 238.96 199.07 238.96C196.718 238.96 195.518 241.072 195.518 243.856C195.518 246.664 196.718 248.728 199.094 248.728Z" fill="#F4492B"/>
<path d="M186.729 250.336C182.937 250.336 180.729 247.408 180.729 243.808C180.729 240.208 183.081 237.28 186.609 237.28C190.329 237.28 192.321 240.16 192.321 244.264H182.721C182.865 246.784 184.233 248.704 186.729 248.704C188.529 248.704 189.729 247.84 190.161 246.16H192.057C191.481 248.824 189.537 250.336 186.729 250.336ZM186.609 238.816C184.305 238.816 183.057 240.544 182.769 242.8H190.233C190.113 240.328 188.841 238.816 186.609 238.816Z" fill="#F4492B"/>
<path d="M170.69 237.592V239.224H170.738C171.626 238.048 172.874 237.304 174.674 237.304C177.266 237.304 178.85 238.72 178.85 241.288V250H176.906V241.456C176.906 239.848 175.85 238.936 174.098 238.936C172.13 238.936 170.69 240.328 170.69 242.368V250H168.746V237.592H170.69Z" fill="#F4492B"/>
<path d="M160.659 254.128C157.443 254.128 155.619 252.832 155.403 250.696H157.203C157.395 252.064 158.691 252.592 160.611 252.592C162.891 252.592 164.163 251.56 164.163 249.4V247.648H164.115C163.203 248.824 162.219 249.568 160.443 249.568C157.227 249.568 155.019 247 155.019 243.424C155.019 239.56 157.443 237.304 160.323 237.304C162.123 237.304 163.275 238 164.115 239.176H164.163V237.592H166.107V249.328C166.107 252.592 163.947 254.128 160.659 254.128ZM160.539 247.936C163.395 247.936 164.307 245.944 164.307 243.328C164.307 240.616 163.155 238.936 160.515 238.936C158.187 238.936 157.011 240.76 157.011 243.448C157.011 246.16 158.235 247.936 160.539 247.936Z" fill="#F4492B"/>
<path d="M151.121 250V237.592H153.065V250H151.121ZM151.121 235.24V232.84H153.065V235.24H151.121Z" fill="#F4492B"/>
<path d="M144.364 250.36C140.956 250.36 139.06 248.752 138.868 245.968H140.86C141.124 248.128 142.564 248.728 144.412 248.728C146.452 248.728 147.292 247.84 147.292 246.688C147.292 245.296 146.332 244.936 144.052 244.456C141.604 243.952 139.42 243.448 139.42 240.736C139.42 238.672 141.004 237.328 143.884 237.328C146.956 237.328 148.468 238.792 148.756 241.216H146.764C146.572 239.584 145.684 238.864 143.836 238.864C142.06 238.864 141.34 239.656 141.34 240.64C141.34 241.984 142.54 242.248 144.676 242.68C147.172 243.184 149.26 243.736 149.26 246.592C149.26 249.088 147.22 250.36 144.364 250.36Z" fill="#F4492B"/>
<path d="M132.167 250.336C128.375 250.336 126.167 247.408 126.167 243.808C126.167 240.208 128.519 237.28 132.047 237.28C135.767 237.28 137.759 240.16 137.759 244.264H128.159C128.303 246.784 129.671 248.704 132.167 248.704C133.967 248.704 135.167 247.84 135.599 246.16H137.495C136.919 248.824 134.975 250.336 132.167 250.336ZM132.047 238.816C129.743 238.816 128.495 240.544 128.207 242.8H135.671C135.551 240.328 134.279 238.816 132.047 238.816Z" fill="#F4492B"/>
<path d="M118.397 250.36C115.013 250.36 112.901 247.816 112.901 243.832C112.901 239.704 115.277 237.304 118.349 237.304C120.101 237.304 121.445 238.168 122.237 239.344H122.285V232.84H124.229V250H122.285V248.488H122.237C121.301 249.688 120.149 250.36 118.397 250.36ZM118.469 248.728C121.229 248.728 122.405 246.664 122.405 243.856C122.405 240.976 121.013 238.96 118.445 238.96C116.093 238.96 114.893 241.072 114.893 243.856C114.893 246.664 116.093 248.728 118.469 248.728Z" fill="#F4492B"/>
<path d="M258.612 108.592V110.656H258.66C259.404 109.456 260.7 108.448 262.356 108.448C262.716 108.448 262.908 108.496 263.148 108.592V110.464H263.076C262.788 110.368 262.596 110.344 262.212 110.344C260.292 110.344 258.612 111.784 258.612 114.112V121H256.668V108.592H258.612Z" fill="#F4492B"/>
<path d="M248.753 121.336C245.057 121.336 242.753 118.408 242.753 114.808C242.753 111.208 245.057 108.28 248.753 108.28C252.473 108.28 254.729 111.208 254.729 114.808C254.729 118.408 252.473 121.336 248.753 121.336ZM248.753 119.704C251.393 119.704 252.737 117.544 252.737 114.808C252.737 112.072 251.393 109.888 248.753 109.888C246.113 109.888 244.745 112.072 244.745 114.808C244.745 117.544 246.113 119.704 248.753 119.704Z" fill="#F4492B"/>
<path d="M235.954 110.176V108.592H237.658V106.6C237.658 104.464 238.882 103.696 240.946 103.696C241.354 103.696 241.666 103.72 241.93 103.744V105.4C241.594 105.376 241.498 105.376 241.306 105.376C240.058 105.376 239.602 105.688 239.602 106.696V108.592H241.906V110.176H239.602V121H237.658V110.176H235.954Z" fill="#F4492B"/>
<path fill-rule="evenodd" clip-rule="evenodd" d="M249.5 86.2295C261.922 86.2295 274.226 83.7634 283.505 78.9465C292.837 74.1017 296.836 68.1087 296.836 62.6967C296.836 57.2847 292.837 51.2917 283.505 46.447C274.226 41.6301 261.922 39.1639 249.5 39.1639C237.078 39.1639 224.774 41.6301 215.495 46.447C206.163 51.2917 202.164 57.2847 202.164 62.6967C202.164 68.1087 206.163 74.1017 215.495 78.9465C224.774 83.7634 237.078 86.2295 249.5 86.2295ZM214.498 80.8671C233.829 90.9022 265.171 90.9022 284.502 80.8671C303.833 70.8319 303.833 54.5616 284.502 44.5264C265.171 34.4912 233.829 34.4912 214.498 44.5264C195.167 54.5616 195.167 70.8319 214.498 80.8671Z" fill="#F4492B"/>
<path d="M276.83 72.5988V56.4052H278.984V72.5988H276.83ZM276.83 54.4202V51.3211H278.984V54.4202H276.83Z" fill="#F4492B"/>
<path d="M251.647 72.5988V56.4052H253.707V60.9949L253.8 61.0342V72.5988H251.647ZM261.815 62.1483C261.815 61.2068 261.673 60.4274 261.388 59.8102C261.103 59.1878 260.685 58.7249 260.136 58.4215C259.587 58.1182 258.918 57.9665 258.13 57.9665C257.374 57.9665 256.669 58.1705 256.016 58.5784C255.363 58.9812 254.831 59.6141 254.422 60.4771C254.018 61.3401 253.81 62.4255 253.8 63.7331H252.323V60.9557H253.147C253.375 59.9671 253.73 59.1041 254.212 58.3666C254.694 57.6291 255.3 57.0564 256.031 56.6484C256.767 56.2352 257.607 56.0286 258.55 56.0286C259.706 56.0286 260.691 56.2796 261.504 56.7818C262.318 57.2787 262.93 57.9691 263.339 58.853C263.754 59.7318 263.961 60.7439 263.961 61.8894V72.5988H261.815V62.1483ZM271.976 62.1483C271.976 61.2068 271.834 60.4274 271.549 59.8102C271.269 59.1878 270.854 58.7249 270.305 58.4215C269.76 58.1182 269.089 57.9665 268.291 57.9665C267.524 57.9665 266.814 58.1705 266.161 58.5784C265.508 58.9812 264.979 59.6141 264.575 60.4771C264.176 61.3401 263.971 62.4255 263.961 63.7331H262.468V61.2695L263.02 61.246C263.248 60.2261 263.616 59.3238 264.124 58.5392C264.637 57.7546 265.283 57.1401 266.06 56.6955C266.837 56.2509 267.716 56.0286 268.695 56.0286C269.862 56.0286 270.851 56.2718 271.665 56.7582C272.484 57.2447 273.098 57.9272 273.508 58.806C273.922 59.6847 274.13 60.7125 274.13 61.8894V72.5988H271.976V62.1483Z" fill="#F4492B"/>
<path d="M242.457 72.9754C240.964 72.9754 239.656 72.6276 238.531 71.9319C237.412 71.231 236.546 70.2425 235.934 68.9662C235.328 67.69 235.025 66.2019 235.025 64.502C235.025 62.8282 235.323 61.3532 235.919 60.077C236.515 58.7955 237.368 57.8017 238.477 57.0956C239.586 56.3842 240.887 56.0286 242.379 56.0286C243.913 56.0286 245.23 56.3999 246.329 57.1427C247.427 57.8802 248.262 58.8923 248.832 60.179C249.402 61.4605 249.687 62.9067 249.687 64.5177C249.687 64.6275 249.687 64.74 249.687 64.855C249.687 64.9701 249.687 65.0878 249.687 65.2081H236.043V63.4036H248.42L247.471 63.9842C247.461 62.8125 247.259 61.7717 246.865 60.8616C246.471 59.9462 245.891 59.227 245.124 58.704C244.357 58.1809 243.434 57.9194 242.356 57.9194C241.314 57.9194 240.407 58.1678 239.635 58.6647C238.868 59.1616 238.272 59.8861 237.847 60.838C237.427 61.79 237.209 62.9407 237.194 64.2902V64.5491C237.194 65.9508 237.404 67.1408 237.824 68.1189C238.243 69.0918 238.847 69.8293 239.635 70.3314C240.428 70.8335 241.376 71.0846 242.48 71.0846C243.294 71.0846 244.02 70.9381 244.657 70.6452C245.3 70.3471 245.834 69.926 246.259 69.382C246.684 68.8328 246.984 68.1869 247.16 67.4442H249.337C249.104 68.5373 248.679 69.4997 248.062 70.3314C247.451 71.163 246.668 71.8116 245.714 72.2771C244.761 72.7427 243.675 72.9754 242.457 72.9754Z" fill="#F4492B"/>
<path d="M230.893 62.1718C230.893 61.2303 230.735 60.4483 230.418 59.8259C230.102 59.1982 229.646 58.7327 229.05 58.4294C228.454 58.1208 227.726 57.9665 226.866 57.9665C226.052 57.9665 225.29 58.1678 224.58 58.5706C223.87 58.9681 223.292 59.5827 222.846 60.4143C222.406 61.246 222.18 62.2842 222.17 63.5291H220.669V60.9478L221.47 60.9557C221.698 59.9985 222.082 59.1512 222.621 58.4137C223.16 57.6709 223.836 57.0877 224.65 56.6641C225.464 56.2404 226.373 56.0286 227.379 56.0286C228.56 56.0286 229.574 56.2561 230.418 56.7111C231.268 57.1662 231.916 57.8357 232.362 58.7196C232.813 59.5984 233.038 60.6628 233.038 61.9129V72.5988H230.893V62.1718ZM220.016 72.5988V50.2541H222.17V72.5988H220.016Z" fill="#F4492B"/>
<path d="M222.642 155.836C217.784 157.559 214.699 167.361 211.768 165.003C208.264 162.184 217.084 149.247 215.278 146.503C214.37 145.121 211.645 150.521 209.413 154.51C206.609 159.522 202.098 167.389 199.451 164.869C196.002 161.584 213.549 132.801 211.165 130.4C210.102 129.329 207.931 133.091 205.302 137.914L203.985 137.928C207.072 131.783 211.094 124.071 213.742 126.438C217.668 129.848 200 160 202.78 161.249C203.97 161.658 206.195 157.369 207.94 154.202C209.562 151.26 214.927 140.178 217.574 143.126C220.635 146.536 212.103 160.003 214.882 161.249C215.892 161.686 217.894 156.982 222.653 154.214L222.642 155.836Z" fill="#F4492B"/>
<path d="M282.402 170.61C282.707 170.617 283.008 170.621 283.306 170.621C283.604 170.621 283.898 170.621 284.189 170.621C284.907 170.621 285.523 170.493 286.037 170.237C286.552 169.982 286.985 169.616 287.337 169.138C287.696 168.668 288.01 168.073 288.281 167.354L289.581 163.916L289.5 166.487L280.889 143.892H283.946L288.647 156.808C289.06 157.984 289.456 159.116 289.835 160.205C290.214 161.294 290.59 162.4 290.962 163.522L290.139 163.553C290.539 162.276 290.928 161.052 291.307 159.883C291.686 158.713 292.035 157.678 292.353 156.777L296.892 143.892H299.907L291.074 167.757C290.6 169.034 290.058 170.049 289.449 170.802C288.846 171.562 288.126 172.116 287.286 172.466C286.454 172.822 285.442 173 284.25 173C283.952 173 283.641 172.993 283.316 172.98C282.998 172.966 282.693 172.95 282.402 172.929V170.61Z" fill="#F4492B"/>
<path d="M269.814 165.186C267.973 165.186 266.362 164.736 264.981 163.835C263.6 162.934 262.534 161.664 261.783 160.024C261.031 158.377 260.655 156.468 260.655 154.297C260.655 152.126 261.031 150.22 261.783 148.58C262.534 146.933 263.6 145.66 264.981 144.759C266.362 143.858 267.973 143.408 269.814 143.408C271.588 143.408 273.124 143.858 274.424 144.759C275.724 145.653 276.719 146.917 277.409 148.55C278.106 150.177 278.462 152.065 278.475 154.216V154.297C278.475 156.461 278.13 158.367 277.44 160.014C276.756 161.654 275.761 162.928 274.454 163.835C273.155 164.736 271.608 165.186 269.814 165.186ZM270.281 162.756C271.655 162.756 272.847 162.413 273.855 161.728C274.871 161.042 275.649 160.061 276.191 158.784C276.739 157.507 277.013 156.011 277.013 154.297C277.013 152.583 276.739 151.087 276.191 149.81C275.649 148.533 274.871 147.552 273.855 146.866C272.847 146.181 271.655 145.838 270.281 145.838C268.927 145.838 267.746 146.191 266.738 146.896C265.729 147.595 264.951 148.594 264.402 149.891C263.854 151.181 263.58 152.687 263.58 154.408C263.58 156.129 263.851 157.617 264.392 158.874C264.94 160.125 265.719 161.086 266.727 161.758C267.736 162.423 268.921 162.756 270.281 162.756ZM277.033 164.702V158.995H277.267V149.538H276.912V135.987H279.724V164.702H277.033Z" fill="#F4492B"/>
<path d="M241.053 164.702V143.892H243.744V149.79L243.866 149.841V164.702H241.053ZM255.258 151.302C255.258 150.093 255.052 149.088 254.639 148.288C254.226 147.481 253.63 146.883 252.852 146.493C252.074 146.097 251.123 145.898 249.999 145.898C248.936 145.898 247.941 146.157 247.014 146.675C246.086 147.185 245.332 147.975 244.749 149.044C244.174 150.113 243.88 151.447 243.866 153.047H241.906V149.74H242.952C243.25 148.51 243.751 147.421 244.455 146.473C245.159 145.518 246.042 144.769 247.105 144.225C248.168 143.68 249.356 143.408 250.669 143.408C252.212 143.408 253.536 143.7 254.639 144.285C255.749 144.87 256.595 145.73 257.178 146.866C257.766 147.995 258.061 149.363 258.061 150.97V164.702H255.258V151.302Z" fill="#F4492B"/>
<path d="M237.959 164.813C237.113 164.813 236.429 164.685 235.908 164.43C235.394 164.168 235.015 163.775 234.771 163.25C234.527 162.719 234.405 162.037 234.405 161.203L234.324 159.6V149.296C234.324 148.523 234.158 147.874 233.827 147.35C233.495 146.819 232.95 146.416 232.192 146.14C231.44 145.865 230.449 145.727 229.217 145.727C227.89 145.727 226.817 145.875 225.998 146.17C225.179 146.466 224.566 146.94 224.16 147.592C223.754 148.244 223.52 149.111 223.46 150.193H220.688C220.749 148.762 221.073 147.545 221.662 146.544C222.251 145.542 223.165 144.769 224.404 144.225C225.649 143.68 227.254 143.408 229.217 143.408C231.038 143.408 232.53 143.653 233.695 144.144C234.866 144.628 235.719 145.307 236.253 146.181C236.795 147.054 237.066 148.083 237.066 149.266V161.062C237.066 161.392 237.116 161.664 237.218 161.879C237.319 162.094 237.475 162.255 237.685 162.363C237.895 162.471 238.169 162.524 238.507 162.524C238.67 162.524 238.839 162.524 239.015 162.524C239.198 162.518 239.381 162.511 239.563 162.504V164.702C239.333 164.736 239.076 164.763 238.792 164.783C238.514 164.803 238.237 164.813 237.959 164.813ZM226.952 165.186C225.47 165.186 224.191 164.944 223.114 164.46C222.038 163.976 221.216 163.284 220.647 162.383C220.078 161.476 219.794 160.404 219.794 159.167C219.794 158.017 220.048 157.013 220.556 156.152C221.063 155.292 221.879 154.579 223.003 154.015C224.126 153.443 225.585 153.057 227.379 152.855L230.598 152.492C231.518 152.378 232.249 152.196 232.791 151.948C233.332 151.692 233.722 151.353 233.959 150.929C234.202 150.506 234.324 149.962 234.324 149.296L235.411 149.538C235.411 150.687 235.289 151.595 235.045 152.26C234.801 152.926 234.365 153.44 233.735 153.803C233.106 154.166 232.195 154.421 231.004 154.569L227.836 154.973C226.597 155.127 225.599 155.379 224.84 155.729C224.089 156.072 223.541 156.518 223.196 157.07C222.857 157.621 222.688 158.293 222.688 159.086C222.688 159.859 222.857 160.535 223.196 161.113C223.534 161.684 224.045 162.131 224.729 162.454C225.412 162.77 226.259 162.928 227.267 162.928C228.547 162.928 229.718 162.689 230.78 162.212C231.85 161.734 232.706 160.998 233.349 160.004C233.999 159.009 234.324 157.772 234.324 156.293H235.431V158.501C235.14 159.94 234.615 161.16 233.857 162.161C233.106 163.156 232.148 163.909 230.983 164.42C229.819 164.931 228.476 165.186 226.952 165.186Z" fill="#F4492B"/>
</svg>
