<svg width="45" height="32" viewBox="0 0 45 32" fill="none" xmlns="http://www.w3.org/2000/svg">
<g clip-path="url(#clip0_3914_5128)">
<path d="M17.0067 27.3528V31.0866C16.6435 31.1122 16.2794 31.125 15.9152 31.125C11.8258 31.125 7.90452 29.5109 5.01386 26.6389C2.1233 23.767 0.5 19.8726 0.5 15.8125C0.5 11.7524 2.1233 7.85797 5.01386 4.98607C7.90452 2.11406 11.8258 0.5 15.9152 0.5C16.2794 0.5 16.6435 0.512823 17.0067 0.538435V4.27223C16.6418 4.24561 16.2758 4.2361 15.9098 4.24375C12.8255 4.24516 9.86719 5.46307 7.68516 7.63102C5.50176 9.80032 4.27455 12.7432 4.27455 15.8125C4.27455 18.8818 5.50176 21.8247 7.68516 23.994C9.86719 26.1619 12.8255 27.3799 15.9099 27.3812C16.2758 27.3889 16.6418 27.3794 17.0067 27.3528Z" stroke="#F4492B"/>
<path d="M40.8794 13.9406H32.0882H31.4658L31.6 13.3328C32.169 10.7557 33.6073 8.44974 35.6755 6.79692C37.7423 5.14526 40.3143 4.24475 42.9656 4.24375C43.3316 4.2361 43.6976 4.24561 44.0625 4.27223V0.538435C43.6993 0.512823 43.3352 0.5 42.971 0.5C38.8816 0.5 34.9603 2.11406 32.0696 4.98607C29.1791 7.85797 27.5558 11.7524 27.5558 15.8125C27.5558 19.8726 29.1791 23.767 32.0696 26.6389C34.9603 29.5109 38.8816 31.125 42.971 31.125C43.3352 31.125 43.6993 31.1122 44.0625 31.0866V27.3528C43.6976 27.3794 43.3316 27.3889 42.9657 27.3813M40.8794 13.9406L42.971 26.8813M40.8794 13.9406V17.6844M40.8794 13.9406L41.3794 17.6844M42.9657 27.3813C42.9639 27.3812 42.9621 27.3812 42.9603 27.3811L42.971 26.8813M42.9657 27.3813C42.9674 27.3813 42.9692 27.3813 42.971 27.3813L42.971 26.8813M42.9657 27.3813C40.3143 27.3803 37.7423 26.4797 35.6755 24.8281C33.6073 23.1753 32.169 20.8693 31.6 18.2922L31.4658 17.6844H32.0882H40.8794M42.971 26.8813C40.4309 26.8815 37.967 26.0192 35.9877 24.4375C34.1432 22.9635 32.8227 20.9471 32.2109 18.6844H32.0882V18.1844L32.5765 18.0766C32.5844 18.1126 32.5925 18.1485 32.6008 18.1844H40.8794V17.6844M40.8794 17.6844H41.3794M41.3794 17.6844V13.9406V17.6844ZM44.0625 26.8514C44.2295 26.8387 44.3962 26.8222 44.5625 26.802V27.3055L44.0625 26.8514Z" stroke="#F4492B"/>
</g>
<defs>
<clipPath id="clip0_3914_5128">
<rect width="44.5625" height="31.625" fill="white"/>
</clipPath>
</defs>
</svg>
