<svg width="101" height="47" viewBox="0 0 101 47" fill="none" xmlns="http://www.w3.org/2000/svg">
<path d="M23.6422 29.836C18.7841 31.5591 15.6989 41.361 12.768 39.0033C9.26375 36.1841 18.0843 23.2469 16.2782 20.5026C15.3698 19.1213 12.6447 24.5212 10.4133 28.5096C7.60921 33.5216 3.09816 41.389 0.45093 38.8689C-2.99834 35.5841 14.5486 6.80073 12.1655 4.40005C11.1018 3.32863 8.93142 7.09136 6.30151 11.914L4.98527 11.9282C8.07236 5.78348 12.0943 -1.92895 14.7419 0.437935C18.668 3.84806 0.999812 34.0003 3.77998 35.2495C4.96991 35.6577 7.1946 31.3692 8.94042 28.2018C10.5621 25.2598 15.9267 14.1779 18.5743 17.1261C21.6349 20.5362 13.1028 34.0025 15.8825 35.2495C16.892 35.6864 18.8938 30.9815 23.6531 28.2141L23.6422 29.836Z" fill="#F4492B"/>
<path d="M83.4022 44.6102C83.7069 44.6169 84.0081 44.6203 84.3059 44.6203C84.6038 44.6203 84.8982 44.6203 85.1893 44.6203C85.9068 44.6203 86.5228 44.4926 87.0373 44.2371C87.5517 43.9817 87.985 43.6154 88.337 43.1382C88.6957 42.6676 89.0105 42.0728 89.2813 41.3536L90.5809 37.9154L90.4997 40.4865L81.8893 17.8916H84.9456L89.6468 30.8073C90.0597 31.9836 90.4557 33.1162 90.8348 34.2051C91.2139 35.294 91.5895 36.3997 91.9618 37.5222L91.1394 37.5525C91.5388 36.2753 91.928 35.052 92.3071 33.8824C92.6861 32.7129 93.0348 31.6777 93.3529 30.777L97.8916 17.8916H100.907L92.0735 41.7569C91.5997 43.034 91.0582 44.0489 90.4489 44.8018C89.8465 45.5613 89.1256 46.1158 88.2862 46.4654C87.4536 46.8216 86.4416 46.9997 85.2502 46.9997C84.9524 46.9997 84.641 46.993 84.3161 46.9796C83.9979 46.9661 83.6933 46.9493 83.4022 46.9292V44.6102Z" fill="#F4492B"/>
<path d="M70.8142 39.1862C68.973 39.1862 67.3619 38.7358 65.981 37.8351C64.6001 36.9344 63.534 35.664 62.7826 34.024C62.0312 32.3772 61.6555 30.4682 61.6555 28.2971C61.6555 26.126 62.0312 24.2204 62.7826 22.5803C63.534 20.9335 64.6001 19.6598 65.981 18.7591C67.3619 17.8584 68.973 17.408 70.8142 17.408C72.5877 17.408 74.1243 17.8584 75.424 18.7591C76.7237 19.6531 77.7187 20.9167 78.4092 22.5501C79.1064 24.1767 79.4618 26.0655 79.4753 28.2164V28.2971C79.4753 30.4615 79.1301 32.3671 78.4396 34.0139C77.756 35.654 76.7609 36.9277 75.4544 37.8351C74.1548 38.7358 72.608 39.1862 70.8142 39.1862ZM71.2813 36.7563C72.6554 36.7563 73.8468 36.4135 74.8554 35.7279C75.8707 35.0423 76.6492 34.0609 77.1907 32.7838C77.739 31.5067 78.0132 30.0111 78.0132 28.2971C78.0132 26.5831 77.739 25.0875 77.1907 23.8104C76.6492 22.5333 75.8707 21.5519 74.8554 20.8663C73.8468 20.1807 72.6554 19.8379 71.2813 19.8379C69.9274 19.8379 68.7462 20.1908 67.7376 20.8966C66.729 21.5956 65.9505 22.5938 65.4022 23.8911C64.8539 25.1816 64.5798 26.6873 64.5798 28.408C64.5798 30.1288 64.8506 31.6176 65.3921 32.8746C65.9404 34.1248 66.7188 35.086 67.7274 35.7581C68.7361 36.4236 69.9207 36.7563 71.2813 36.7563ZM78.0335 38.7022V32.9955H78.267V23.5382H77.9116V9.9873H80.7242V38.7022H78.0335Z" fill="#F4492B"/>
<path d="M42.0534 38.7024V17.8922H44.7441V23.7904L44.866 23.8408V38.7024H42.0534ZM56.2585 25.3028C56.2585 24.0929 56.052 23.088 55.6391 22.2881C55.2262 21.4815 54.6305 20.8833 53.852 20.4934C53.0736 20.0969 52.1225 19.8986 50.9988 19.8986C49.9361 19.8986 48.941 20.1574 48.0136 20.6749C47.0863 21.1858 46.3315 21.9756 45.7494 23.0443C45.174 24.1131 44.8795 25.4473 44.866 27.0471H42.9063V23.74H43.9522C44.25 22.5099 44.7509 21.421 45.4549 20.4733C46.1589 19.5188 47.0423 18.7693 48.105 18.2249C49.1678 17.6804 50.3558 17.4082 51.669 17.4082C53.2124 17.4082 54.5357 17.7006 55.6391 18.2854C56.7492 18.8702 57.5954 19.7305 58.1775 20.8665C58.7664 21.9957 59.0609 23.3636 59.0609 24.9701V38.7024H56.2585V25.3028Z" fill="#F4492B"/>
<path d="M38.9591 38.8133C38.1129 38.8133 37.4293 38.6856 36.908 38.4302C36.3936 38.168 36.0145 37.7748 35.7708 37.2505C35.5271 36.7195 35.4053 36.0373 35.4053 35.2038L35.3241 33.6007V26.1396V25.1717V23.2964C35.3241 22.5234 35.1582 21.8747 34.8265 21.3505C34.4948 20.8194 33.9499 20.4161 33.1918 20.1406C32.4404 19.865 31.4487 19.7272 30.2167 19.7272C28.89 19.7272 27.8171 19.8751 26.998 20.1708C26.1789 20.4666 25.5663 20.9404 25.1602 21.5924C24.754 22.2444 24.5205 23.1115 24.4596 24.1937H21.6876C21.7485 22.762 22.0734 21.5454 22.6624 20.5439C23.2513 19.5423 24.1651 18.7693 25.4039 18.2249C26.6494 17.6804 28.2537 17.4082 30.2167 17.4082C32.0376 17.4082 33.5302 17.6535 34.6945 18.1442C35.8656 18.6282 36.7185 19.3071 37.2533 20.1809C37.7948 21.0547 38.0656 22.0831 38.0656 23.2661V35.0626C38.0656 35.392 38.1163 35.6642 38.2179 35.8793C38.3194 36.0944 38.4751 36.2557 38.6849 36.3633C38.8948 36.4708 39.1689 36.5246 39.5074 36.5246C39.6699 36.5246 39.8391 36.5246 40.0151 36.5246C40.1978 36.5179 40.3806 36.5112 40.5634 36.5044V38.7024C40.3332 38.736 40.076 38.7629 39.7917 38.7831C39.5142 38.8032 39.2366 38.8133 38.9591 38.8133ZM27.9524 39.1864C26.47 39.1864 25.1906 38.9444 24.1143 38.4604C23.038 37.9765 22.2156 37.2841 21.647 36.3834C21.0784 35.476 20.7941 34.4039 20.7941 33.1671C20.7941 32.0177 21.0479 31.0128 21.5556 30.1525C22.0633 29.2921 22.879 28.5796 24.0026 28.015C25.1263 27.4436 26.5851 27.0571 28.3789 26.8555L31.5976 26.4925C32.5182 26.3783 33.2493 26.1968 33.7908 25.9481C34.3324 25.6926 34.7216 25.3532 34.9585 24.9297C35.2022 24.5063 35.3241 23.9618 35.3241 23.2964L36.4105 23.5384C36.4105 24.6878 36.2887 25.5952 36.045 26.2606C35.8013 26.9261 35.3647 27.4403 34.7351 27.8032C34.1056 28.1662 33.1952 28.4216 32.0038 28.5695L28.8358 28.9728C27.5971 29.1274 26.5986 29.3795 25.8405 29.729C25.0891 30.0718 24.5408 30.5188 24.1956 31.07C23.8571 31.6212 23.6879 32.2933 23.6879 33.0865C23.6879 33.8595 23.8571 34.535 24.1956 35.1131C24.534 35.6844 25.0451 36.1314 25.7288 36.454C26.4125 36.7699 27.2586 36.9279 28.2672 36.9279C29.5466 36.9279 30.7176 36.6893 31.7804 36.212C32.8499 35.7348 33.7062 34.9988 34.3493 34.004C34.9991 33.0092 35.3241 31.7724 35.3241 30.2936H36.4308V32.5017C36.1397 33.9401 35.6151 35.1601 34.857 36.1616C34.1056 37.1564 33.1478 37.9093 31.9835 38.4201C30.8192 38.931 29.4755 39.1864 27.9524 39.1864Z" fill="#F4492B"/>
</svg>
