<svg width="85" height="85" viewBox="0 0 85 85" fill="none" xmlns="http://www.w3.org/2000/svg">
<g clip-path="url(#clip0_3965_390)">
<mask id="mask0_3965_390" style="mask-type:luminance" maskUnits="userSpaceOnUse" x="21" y="9" width="44" height="67">
<path d="M64.8761 9H21V76H64.8761V9Z" fill="white"/>
</mask>
<g mask="url(#mask0_3965_390)">
<path fill-rule="evenodd" clip-rule="evenodd" d="M52.3996 74.7155V66.5273C51.2757 69.0383 49.7907 71.0258 47.9881 72.5217C45.0684 74.9447 41.4093 76.0001 37.3415 76.0001C31.5324 76.0001 27.3878 74.0654 24.7218 70.7106C22.0845 67.392 21 62.815 21 57.7182V26.4912H33.4764V54.8524C33.4764 57.5582 34.0739 59.9773 35.4285 61.7024C36.7539 63.3901 38.9012 64.5368 42.2942 64.5368C45.5424 64.5368 48.0492 63.6 49.7391 61.9802C51.4239 60.365 52.3996 57.9726 52.3996 54.8524V26.4912H64.8761V74.7155H52.3996ZM52.3996 64.0578C49.8273 71.8733 44.3363 75.1107 37.3415 75.1107C26.1487 75.1107 21.8894 67.6992 21.8894 57.7182V27.3806H32.587V54.8524C32.587 60.4851 35.0634 65.4262 42.2942 65.4262C49.1288 65.4262 53.289 61.4732 53.289 54.8524V27.3806H63.9867V73.8261H53.289V61.0783H53.1899C52.9691 62.1373 52.7049 63.1298 52.3996 64.0578Z" fill="#111111"/>
<path fill-rule="evenodd" clip-rule="evenodd" d="M21 9H64.8761V21.4513H21V9ZM21.8894 9.88938V20.5619H63.9867V9.88938H21.8894Z" fill="#111111"/>
</g>
</g>
<defs>
<clipPath id="clip0_3965_390">
<rect width="43.8761" height="67" fill="white" transform="translate(21 9)"/>
</clipPath>
</defs>
</svg>
