<svg width="736" height="736" viewBox="0 0 736 736" fill="none" xmlns="http://www.w3.org/2000/svg">
<circle cx="368.256" cy="367.744" r="134.013" stroke="#CDC5B6" stroke-width="0.680111"/>
<circle cx="368" cy="367.489" r="147.576" stroke="#CDC5B6" stroke-width="0.680111"/>
<circle cx="368" cy="367.488" r="170.608" stroke="#CDC5B6" stroke-width="0.680111"/>
<circle opacity="0.8" cx="368.256" cy="367.744" r="203.109" stroke="#CDC5B6" stroke-width="0.680111"/>
<circle opacity="0.6" cx="368.256" cy="367.745" r="244.567" stroke="#CDC5B6" stroke-width="0.680111"/>
<circle opacity="0.4" cx="368.255" cy="367.744" r="293.19" stroke="#CDC5B6" stroke-width="0.680111"/>
<circle opacity="0.2" cx="368" cy="368" r="367.66" stroke="#CDC5B6" stroke-width="0.680111"/>
<path d="M492.75 368C492.75 436.898 436.898 492.75 368 492.75C299.102 492.75 243.25 436.898 243.25 368C243.25 299.102 299.102 243.25 368 243.25C436.898 243.25 492.75 299.102 492.75 368Z" stroke="#846642" stroke-width="0.5"/>
<g clip-path="url(#clip0_4228_8394)">
<path fill-rule="evenodd" clip-rule="evenodd" d="M390.237 442.135C388.869 441.697 387.396 441.702 386.031 442.149C384.666 442.596 383.479 443.462 382.643 444.621C381.806 445.781 381.363 447.175 381.376 448.601C381.39 450.027 381.861 451.412 382.72 452.555C383.579 453.699 384.782 454.542 386.155 454.963C387.529 455.384 389.002 455.361 390.361 454.897C391.72 454.433 392.896 453.553 393.718 452.383L395.133 453.361C394.102 454.829 392.627 455.933 390.922 456.515C389.217 457.097 387.369 457.126 385.646 456.598C383.923 456.07 382.414 455.012 381.336 453.578C380.259 452.143 379.669 450.406 379.652 448.617C379.634 446.828 380.19 445.08 381.24 443.625C382.29 442.171 383.778 441.084 385.491 440.524C387.203 439.963 389.051 439.957 390.767 440.506C392.483 441.055 393.979 442.131 395.039 443.579L393.643 444.584C392.798 443.43 391.606 442.573 390.237 442.135ZM389.116 445.584C388.485 445.382 387.806 445.385 387.176 445.591C386.547 445.797 386 446.196 385.614 446.731C385.228 447.266 385.023 447.908 385.03 448.566C385.036 449.224 385.253 449.862 385.649 450.39C386.045 450.917 386.6 451.306 387.233 451.5C387.867 451.694 388.546 451.683 389.173 451.469C389.8 451.255 390.342 450.849 390.721 450.31L392.136 451.289C391.548 452.126 390.707 452.756 389.734 453.088C388.761 453.419 387.707 453.436 386.724 453.135C385.741 452.834 384.881 452.23 384.266 451.412C383.651 450.594 383.315 449.603 383.305 448.582C383.295 447.562 383.612 446.565 384.211 445.735C384.81 444.905 385.659 444.285 386.636 443.966C387.612 443.646 388.667 443.642 389.646 443.956C390.625 444.269 391.478 444.883 392.082 445.708L390.686 446.714C390.297 446.182 389.747 445.786 389.116 445.584Z" stroke="#846642" stroke-width="0.5"/>
<path d="M379.513 447.628H375.967V441.958H380.173L381.466 440.247H374.242V456.613L375.967 455.47V449.34H379.513V447.628Z" stroke="#846642" stroke-width="0.5"/>
</g>
<g clip-path="url(#clip1_4228_8394)">
<path d="M349.003 453.676V455.543C348.822 455.556 348.64 455.562 348.458 455.562C346.413 455.562 344.452 454.755 343.007 453.319C341.562 451.884 340.75 449.936 340.75 447.906C340.75 445.876 341.562 443.929 343.007 442.493C344.452 441.057 346.413 440.25 348.458 440.25C348.64 440.25 348.822 440.256 349.003 440.269V442.136C348.821 442.123 348.638 442.118 348.455 442.122C346.913 442.123 345.434 442.732 344.343 443.816C343.251 444.9 342.637 446.372 342.637 447.906C342.637 449.441 343.251 450.912 344.343 451.997C345.434 453.081 346.913 453.69 348.455 453.691C348.638 453.694 348.821 453.69 349.003 453.676Z" stroke="#846642" stroke-width="0.5"/>
<path d="M360.94 446.97H356.544H356.233L356.3 446.666C356.584 445.378 357.304 444.225 358.338 443.398C359.371 442.573 360.657 442.122 361.983 442.122C362.166 442.118 362.349 442.123 362.531 442.136V440.269C362.35 440.256 362.168 440.25 361.985 440.25C359.941 440.25 357.98 441.057 356.535 442.493C355.089 443.929 354.278 445.876 354.278 447.906C354.278 449.936 355.089 451.884 356.535 453.319C357.98 454.755 359.941 455.562 361.985 455.562C362.168 455.562 362.35 455.556 362.531 455.543V453.676L360.94 446.97ZM360.94 446.97V448.842H356.544H356.233L356.3 449.146C356.584 450.435 357.304 451.588 358.338 452.414C359.371 453.24 360.657 453.69 361.983 453.691L360.94 446.97Z" stroke="#846642" stroke-width="0.5"/>
</g>
<path d="M305.269 367.68C304.421 367.68 303.749 367.388 303.253 366.804C302.765 366.212 302.521 365.416 302.521 364.416C302.521 363.408 302.777 362.612 303.289 362.028C303.801 361.444 304.453 361.152 305.245 361.152C306.085 361.152 306.733 361.492 307.189 362.172H307.213V358.92H308.185V367.5H307.213V366.744H307.189C306.701 367.368 306.061 367.68 305.269 367.68ZM305.305 366.864C305.969 366.864 306.461 366.644 306.781 366.204C307.109 365.764 307.273 365.172 307.273 364.428C307.273 363.692 307.097 363.1 306.745 362.652C306.401 362.204 305.917 361.98 305.293 361.98C304.725 361.98 304.285 362.208 303.973 362.664C303.669 363.112 303.517 363.7 303.517 364.428C303.517 365.156 303.669 365.744 303.973 366.192C304.285 366.64 304.729 366.864 305.305 366.864ZM312.154 367.668C311.234 367.668 310.502 367.36 309.958 366.744C309.422 366.12 309.154 365.34 309.154 364.404C309.154 363.484 309.426 362.712 309.97 362.088C310.522 361.456 311.23 361.14 312.094 361.14C313.006 361.14 313.71 361.46 314.206 362.1C314.702 362.732 314.95 363.576 314.95 364.632H310.15C310.19 365.288 310.382 365.824 310.726 366.24C311.078 366.648 311.554 366.852 312.154 366.852C313.082 366.852 313.654 366.428 313.87 365.58H314.818C314.674 366.244 314.37 366.76 313.906 367.128C313.442 367.488 312.858 367.668 312.154 367.668ZM313.39 362.436C313.078 362.084 312.646 361.908 312.094 361.908C311.542 361.908 311.102 362.092 310.774 362.46C310.454 362.828 310.254 363.308 310.174 363.9H313.906C313.874 363.276 313.702 362.788 313.39 362.436ZM318.252 367.68C317.404 367.68 316.744 367.492 316.272 367.116C315.808 366.732 315.552 366.188 315.504 365.484H316.5C316.612 366.404 317.204 366.864 318.276 366.864C318.764 366.864 319.124 366.772 319.356 366.588C319.596 366.396 319.716 366.148 319.716 365.844C319.716 365.516 319.6 365.28 319.368 365.136C319.136 364.992 318.712 364.856 318.096 364.728C317.84 364.672 317.636 364.628 317.484 364.596C317.34 364.556 317.164 364.504 316.956 364.44C316.748 364.368 316.584 364.292 316.464 364.212C316.352 364.124 316.236 364.02 316.116 363.9C315.996 363.78 315.908 363.632 315.852 363.456C315.804 363.28 315.78 363.084 315.78 362.868C315.78 362.34 315.972 361.924 316.356 361.62C316.748 361.316 317.3 361.164 318.012 361.164C319.484 361.164 320.296 361.812 320.448 363.108H319.452C319.404 362.7 319.264 362.404 319.032 362.22C318.8 362.028 318.452 361.932 317.988 361.932C317.564 361.932 317.248 362.016 317.04 362.184C316.84 362.344 316.74 362.556 316.74 362.82C316.74 363.124 316.86 363.34 317.1 363.468C317.34 363.588 317.776 363.712 318.408 363.84C318.792 363.92 319.092 363.996 319.308 364.068C319.532 364.132 319.764 364.236 320.004 364.38C320.244 364.516 320.42 364.7 320.532 364.932C320.644 365.164 320.7 365.452 320.7 365.796C320.7 366.404 320.476 366.872 320.028 367.2C319.58 367.52 318.988 367.68 318.252 367.68ZM321.631 367.5V361.296H322.603V367.5H321.631ZM321.631 360.12V358.92H322.603V360.12H321.631ZM326.4 369.564C325.608 369.564 324.984 369.412 324.528 369.108C324.08 368.812 323.828 368.392 323.772 367.848H324.672C324.76 368.48 325.328 368.796 326.376 368.796C327.56 368.796 328.152 368.264 328.152 367.2V366.324H328.128C327.88 366.644 327.616 366.884 327.336 367.044C327.056 367.204 326.708 367.284 326.292 367.284C325.492 367.284 324.84 366.996 324.336 366.42C323.832 365.844 323.58 365.108 323.58 364.212C323.58 363.276 323.832 362.532 324.336 361.98C324.848 361.428 325.48 361.152 326.232 361.152C327.048 361.152 327.68 361.464 328.128 362.088H328.152V361.296H329.124V367.164C329.124 367.956 328.88 368.552 328.392 368.952C327.912 369.36 327.248 369.564 326.4 369.564ZM326.34 366.468C327.596 366.468 328.224 365.7 328.224 364.164C328.224 362.7 327.592 361.968 326.328 361.968C325.76 361.968 325.324 362.172 325.02 362.58C324.724 362.988 324.576 363.536 324.576 364.224C324.576 364.912 324.728 365.46 325.032 365.868C325.336 366.268 325.772 366.468 326.34 366.468ZM331.415 361.296V362.112H331.439C331.919 361.472 332.575 361.152 333.407 361.152C334.063 361.152 334.575 361.324 334.943 361.668C335.311 362.012 335.495 362.504 335.495 363.144V367.5H334.523V363.228C334.523 362.828 334.399 362.52 334.151 362.304C333.903 362.08 333.559 361.968 333.119 361.968C332.623 361.968 332.215 362.128 331.895 362.448C331.575 362.768 331.415 363.18 331.415 363.684V367.5H330.443V361.296H331.415ZM339.435 367.668C338.515 367.668 337.783 367.36 337.239 366.744C336.703 366.12 336.435 365.34 336.435 364.404C336.435 363.484 336.707 362.712 337.251 362.088C337.803 361.456 338.511 361.14 339.375 361.14C340.287 361.14 340.991 361.46 341.487 362.1C341.983 362.732 342.231 363.576 342.231 364.632H337.431C337.471 365.288 337.663 365.824 338.007 366.24C338.359 366.648 338.835 366.852 339.435 366.852C340.363 366.852 340.935 366.428 341.151 365.58H342.099C341.955 366.244 341.651 366.76 341.187 367.128C340.723 367.488 340.139 367.668 339.435 367.668ZM340.671 362.436C340.359 362.084 339.927 361.908 339.375 361.908C338.823 361.908 338.383 362.092 338.055 362.46C337.735 362.828 337.535 363.308 337.455 363.9H341.187C341.155 363.276 340.983 362.788 340.671 362.436ZM345.581 367.68C344.733 367.68 344.061 367.388 343.565 366.804C343.077 366.212 342.833 365.416 342.833 364.416C342.833 363.408 343.089 362.612 343.601 362.028C344.113 361.444 344.765 361.152 345.557 361.152C346.397 361.152 347.045 361.492 347.501 362.172H347.525V358.92H348.497V367.5H347.525V366.744H347.501C347.013 367.368 346.373 367.68 345.581 367.68ZM345.617 366.864C346.281 366.864 346.773 366.644 347.093 366.204C347.421 365.764 347.585 365.172 347.585 364.428C347.585 363.692 347.409 363.1 347.057 362.652C346.713 362.204 346.229 361.98 345.605 361.98C345.037 361.98 344.597 362.208 344.285 362.664C343.981 363.112 343.829 363.7 343.829 364.428C343.829 365.156 343.981 365.744 344.285 366.192C344.597 366.64 345.041 366.864 345.617 366.864ZM354.676 367.68C353.852 367.68 353.2 367.348 352.72 366.684H352.696V367.5H351.724V358.92H352.696V362.184H352.72C353.224 361.496 353.888 361.152 354.712 361.152C355.512 361.152 356.152 361.444 356.632 362.028C357.112 362.604 357.352 363.4 357.352 364.416C357.352 365.416 357.112 366.212 356.632 366.804C356.16 367.388 355.508 367.68 354.676 367.68ZM354.604 366.864C355.18 366.864 355.616 366.644 355.912 366.204C356.208 365.756 356.356 365.164 356.356 364.428C356.356 363.7 356.208 363.112 355.912 362.664C355.616 362.208 355.184 361.98 354.616 361.98C353.968 361.98 353.476 362.212 353.14 362.676C352.804 363.132 352.636 363.716 352.636 364.428C352.636 365.156 352.804 365.744 353.14 366.192C353.476 366.64 353.964 366.864 354.604 366.864ZM358.997 369.552C358.629 369.552 358.337 369.508 358.121 369.42V368.556H358.169C358.329 368.644 358.549 368.688 358.829 368.688C359.045 368.688 359.225 368.632 359.369 368.52C359.513 368.416 359.641 368.22 359.753 367.932L359.993 367.32L357.569 361.296H358.625L360.089 365.16L360.509 366.372H360.533C360.677 365.908 360.813 365.504 360.941 365.16L362.357 361.296H363.389L360.737 368.004C360.497 368.612 360.249 369.02 359.993 369.228C359.737 369.444 359.405 369.552 358.997 369.552ZM370.906 367.5H369.934V366.648H369.91C369.422 367.312 368.798 367.644 368.038 367.644C367.398 367.644 366.89 367.464 366.514 367.104C366.138 366.736 365.95 366.232 365.95 365.592V361.296H366.922V365.568C366.922 365.968 367.042 366.28 367.282 366.504C367.53 366.728 367.874 366.84 368.314 366.84C368.802 366.84 369.194 366.676 369.49 366.348C369.786 366.02 369.934 365.608 369.934 365.112V361.296H370.906V367.5ZM373.193 361.296V362.112H373.217C373.697 361.472 374.353 361.152 375.185 361.152C375.841 361.152 376.353 361.324 376.721 361.668C377.089 362.012 377.273 362.504 377.273 363.144V367.5H376.301V363.228C376.301 362.828 376.177 362.52 375.929 362.304C375.681 362.08 375.337 361.968 374.897 361.968C374.401 361.968 373.993 362.128 373.673 362.448C373.353 362.768 373.193 363.18 373.193 363.684V367.5H372.221V361.296H373.193ZM380.96 367.68C380.112 367.68 379.44 367.388 378.944 366.804C378.456 366.212 378.212 365.416 378.212 364.416C378.212 363.408 378.468 362.612 378.98 362.028C379.492 361.444 380.144 361.152 380.936 361.152C381.776 361.152 382.424 361.492 382.88 362.172H382.904V358.92H383.876V367.5H382.904V366.744H382.88C382.392 367.368 381.752 367.68 380.96 367.68ZM380.996 366.864C381.66 366.864 382.152 366.644 382.472 366.204C382.8 365.764 382.964 365.172 382.964 364.428C382.964 363.692 382.788 363.1 382.436 362.652C382.092 362.204 381.608 361.98 380.984 361.98C380.416 361.98 379.976 362.208 379.664 362.664C379.36 363.112 379.208 363.7 379.208 364.428C379.208 365.156 379.36 365.744 379.664 366.192C379.976 366.64 380.42 366.864 380.996 366.864ZM387.845 367.668C386.925 367.668 386.193 367.36 385.649 366.744C385.113 366.12 384.845 365.34 384.845 364.404C384.845 363.484 385.117 362.712 385.661 362.088C386.213 361.456 386.921 361.14 387.785 361.14C388.697 361.14 389.401 361.46 389.897 362.1C390.393 362.732 390.641 363.576 390.641 364.632H385.841C385.881 365.288 386.073 365.824 386.417 366.24C386.769 366.648 387.245 366.852 387.845 366.852C388.773 366.852 389.345 366.428 389.561 365.58H390.509C390.365 366.244 390.061 366.76 389.597 367.128C389.133 367.488 388.549 367.668 387.845 367.668ZM389.081 362.436C388.769 362.084 388.337 361.908 387.785 361.908C387.233 361.908 386.793 362.092 386.465 362.46C386.145 362.828 385.945 363.308 385.865 363.9H389.597C389.565 363.276 389.393 362.788 389.081 362.436ZM392.564 361.296V362.328H392.588C392.788 362 393.048 361.736 393.368 361.536C393.688 361.328 394.044 361.224 394.436 361.224C394.58 361.224 394.712 361.248 394.832 361.296V362.232H394.796C394.676 362.192 394.532 362.172 394.364 362.172C393.868 362.172 393.444 362.348 393.092 362.7C392.74 363.044 392.564 363.496 392.564 364.056V367.5H391.592V361.296H392.564ZM397.615 367.5V361.296H398.587V367.5H397.615ZM397.615 360.12V358.92H398.587V360.12H397.615ZM400.884 361.296V362.112H400.908C401.388 361.472 402.044 361.152 402.876 361.152C403.532 361.152 404.044 361.324 404.412 361.668C404.78 362.012 404.964 362.504 404.964 363.144V367.5H403.992V363.228C403.992 362.828 403.868 362.52 403.62 362.304C403.372 362.08 403.028 361.968 402.588 361.968C402.092 361.968 401.684 362.128 401.364 362.448C401.044 362.768 400.884 363.18 400.884 363.684V367.5H399.912V361.296H400.884ZM408.162 367.5V361.296H409.134V367.5H408.162ZM408.162 360.12V358.92H409.134V360.12H408.162ZM412.811 367.68C411.963 367.68 411.303 367.492 410.831 367.116C410.367 366.732 410.111 366.188 410.063 365.484H411.059C411.171 366.404 411.763 366.864 412.835 366.864C413.323 366.864 413.683 366.772 413.915 366.588C414.155 366.396 414.275 366.148 414.275 365.844C414.275 365.516 414.159 365.28 413.927 365.136C413.695 364.992 413.271 364.856 412.655 364.728C412.399 364.672 412.195 364.628 412.043 364.596C411.899 364.556 411.723 364.504 411.515 364.44C411.307 364.368 411.143 364.292 411.023 364.212C410.911 364.124 410.795 364.02 410.675 363.9C410.555 363.78 410.467 363.632 410.411 363.456C410.363 363.28 410.339 363.084 410.339 362.868C410.339 362.34 410.531 361.924 410.915 361.62C411.307 361.316 411.859 361.164 412.571 361.164C414.043 361.164 414.855 361.812 415.007 363.108H414.011C413.963 362.7 413.823 362.404 413.591 362.22C413.359 362.028 413.011 361.932 412.547 361.932C412.123 361.932 411.807 362.016 411.599 362.184C411.399 362.344 411.299 362.556 411.299 362.82C411.299 363.124 411.419 363.34 411.659 363.468C411.899 363.588 412.335 363.712 412.967 363.84C413.351 363.92 413.651 363.996 413.867 364.068C414.091 364.132 414.323 364.236 414.563 364.38C414.803 364.516 414.979 364.7 415.091 364.932C415.203 365.164 415.259 365.452 415.259 365.796C415.259 366.404 415.035 366.872 414.587 367.2C414.139 367.52 413.547 367.68 412.811 367.68ZM417.161 361.296V362.328H417.185C417.385 362 417.645 361.736 417.965 361.536C418.285 361.328 418.641 361.224 419.033 361.224C419.177 361.224 419.309 361.248 419.429 361.296V362.232H419.393C419.273 362.192 419.129 362.172 418.961 362.172C418.465 362.172 418.041 362.348 417.689 362.7C417.337 363.044 417.161 363.496 417.161 364.056V367.5H416.189V361.296H417.161ZM424.94 367.56C424.324 367.56 423.968 367.252 423.872 366.636H423.86C423.348 367.292 422.66 367.62 421.796 367.62C421.18 367.62 420.676 367.472 420.284 367.176C419.892 366.88 419.696 366.452 419.696 365.892C419.696 365.604 419.74 365.356 419.828 365.148C419.924 364.932 420.044 364.76 420.188 364.632C420.332 364.496 420.528 364.38 420.776 364.284C421.032 364.18 421.276 364.104 421.508 364.056C421.74 364 422.036 363.944 422.396 363.888C422.628 363.856 422.792 363.832 422.888 363.816C422.992 363.792 423.124 363.76 423.284 363.72C423.444 363.672 423.556 363.62 423.62 363.564C423.684 363.508 423.744 363.432 423.8 363.336C423.856 363.24 423.884 363.128 423.884 363C423.884 362.648 423.76 362.38 423.512 362.196C423.272 362.004 422.932 361.908 422.492 361.908C421.492 361.908 420.976 362.364 420.944 363.276H420.008C420.024 362.644 420.24 362.136 420.656 361.752C421.08 361.368 421.688 361.176 422.48 361.176C424.008 361.176 424.772 361.832 424.772 363.144V366.096C424.772 366.368 424.816 366.56 424.904 366.672C425 366.784 425.176 366.812 425.432 366.756H425.468V367.464C425.308 367.528 425.132 367.56 424.94 367.56ZM422.012 366.876C422.612 366.876 423.076 366.704 423.404 366.36C423.732 366.008 423.896 365.624 423.896 365.208V364.152C423.6 364.336 423.128 364.488 422.48 364.608C422.24 364.656 422.052 364.696 421.916 364.728C421.78 364.752 421.624 364.8 421.448 364.872C421.272 364.936 421.14 365.008 421.052 365.088C420.964 365.168 420.888 365.276 420.824 365.412C420.76 365.54 420.728 365.692 420.728 365.868C420.728 366.54 421.156 366.876 422.012 366.876ZM428.837 367.668C427.917 367.668 427.185 367.36 426.641 366.744C426.105 366.12 425.837 365.34 425.837 364.404C425.837 363.484 426.109 362.712 426.653 362.088C427.205 361.456 427.913 361.14 428.777 361.14C429.689 361.14 430.393 361.46 430.889 362.1C431.385 362.732 431.633 363.576 431.633 364.632H426.833C426.873 365.288 427.065 365.824 427.409 366.24C427.761 366.648 428.237 366.852 428.837 366.852C429.765 366.852 430.337 366.428 430.553 365.58H431.501C431.357 366.244 431.053 366.76 430.589 367.128C430.125 367.488 429.541 367.668 428.837 367.668ZM430.073 362.436C429.761 362.084 429.329 361.908 428.777 361.908C428.225 361.908 427.785 362.092 427.457 362.46C427.137 362.828 426.937 363.308 426.857 363.9H430.589C430.557 363.276 430.385 362.788 430.073 362.436ZM432.62 367.5V358.92H433.592V367.5H432.62ZM326.087 380.56C325.471 380.56 325.115 380.252 325.019 379.636H325.007C324.495 380.292 323.807 380.62 322.943 380.62C322.327 380.62 321.823 380.472 321.431 380.176C321.039 379.88 320.843 379.452 320.843 378.892C320.843 378.604 320.887 378.356 320.975 378.148C321.071 377.932 321.191 377.76 321.335 377.632C321.479 377.496 321.675 377.38 321.923 377.284C322.179 377.18 322.423 377.104 322.655 377.056C322.887 377 323.183 376.944 323.543 376.888C323.775 376.856 323.939 376.832 324.035 376.816C324.139 376.792 324.271 376.76 324.431 376.72C324.591 376.672 324.703 376.62 324.767 376.564C324.831 376.508 324.891 376.432 324.947 376.336C325.003 376.24 325.031 376.128 325.031 376C325.031 375.648 324.907 375.38 324.659 375.196C324.419 375.004 324.079 374.908 323.639 374.908C322.639 374.908 322.123 375.364 322.091 376.276H321.155C321.171 375.644 321.387 375.136 321.803 374.752C322.227 374.368 322.835 374.176 323.627 374.176C325.155 374.176 325.919 374.832 325.919 376.144V379.096C325.919 379.368 325.963 379.56 326.051 379.672C326.147 379.784 326.323 379.812 326.579 379.756H326.615V380.464C326.455 380.528 326.279 380.56 326.087 380.56ZM323.159 379.876C323.759 379.876 324.223 379.704 324.551 379.36C324.879 379.008 325.043 378.624 325.043 378.208V377.152C324.747 377.336 324.275 377.488 323.627 377.608C323.387 377.656 323.199 377.696 323.063 377.728C322.927 377.752 322.771 377.8 322.595 377.872C322.419 377.936 322.287 378.008 322.199 378.088C322.111 378.168 322.035 378.276 321.971 378.412C321.907 378.54 321.875 378.692 321.875 378.868C321.875 379.54 322.303 379.876 323.159 379.876ZM329.684 380.68C328.836 380.68 328.176 380.492 327.704 380.116C327.24 379.732 326.984 379.188 326.936 378.484H327.932C328.044 379.404 328.636 379.864 329.708 379.864C330.196 379.864 330.556 379.772 330.788 379.588C331.028 379.396 331.148 379.148 331.148 378.844C331.148 378.516 331.032 378.28 330.8 378.136C330.568 377.992 330.144 377.856 329.528 377.728C329.272 377.672 329.068 377.628 328.916 377.596C328.772 377.556 328.596 377.504 328.388 377.44C328.18 377.368 328.016 377.292 327.896 377.212C327.784 377.124 327.668 377.02 327.548 376.9C327.428 376.78 327.34 376.632 327.284 376.456C327.236 376.28 327.212 376.084 327.212 375.868C327.212 375.34 327.404 374.924 327.788 374.62C328.18 374.316 328.732 374.164 329.444 374.164C330.916 374.164 331.728 374.812 331.88 376.108H330.884C330.836 375.7 330.696 375.404 330.464 375.22C330.232 375.028 329.884 374.932 329.42 374.932C328.996 374.932 328.68 375.016 328.472 375.184C328.272 375.344 328.172 375.556 328.172 375.82C328.172 376.124 328.292 376.34 328.532 376.468C328.772 376.588 329.208 376.712 329.84 376.84C330.224 376.92 330.524 376.996 330.74 377.068C330.964 377.132 331.196 377.236 331.436 377.38C331.676 377.516 331.852 377.7 331.964 377.932C332.076 378.164 332.132 378.452 332.132 378.796C332.132 379.404 331.908 379.872 331.46 380.2C331.012 380.52 330.42 380.68 329.684 380.68ZM335.414 380.68C334.566 380.68 333.906 380.492 333.434 380.116C332.97 379.732 332.714 379.188 332.666 378.484H333.662C333.774 379.404 334.366 379.864 335.438 379.864C335.926 379.864 336.286 379.772 336.518 379.588C336.758 379.396 336.878 379.148 336.878 378.844C336.878 378.516 336.762 378.28 336.53 378.136C336.298 377.992 335.874 377.856 335.258 377.728C335.002 377.672 334.798 377.628 334.646 377.596C334.502 377.556 334.326 377.504 334.118 377.44C333.91 377.368 333.746 377.292 333.626 377.212C333.514 377.124 333.398 377.02 333.278 376.9C333.158 376.78 333.07 376.632 333.014 376.456C332.966 376.28 332.942 376.084 332.942 375.868C332.942 375.34 333.134 374.924 333.518 374.62C333.91 374.316 334.462 374.164 335.174 374.164C336.646 374.164 337.458 374.812 337.61 376.108H336.614C336.566 375.7 336.426 375.404 336.194 375.22C335.962 375.028 335.614 374.932 335.15 374.932C334.726 374.932 334.41 375.016 334.202 375.184C334.002 375.344 333.902 375.556 333.902 375.82C333.902 376.124 334.022 376.34 334.262 376.468C334.502 376.588 334.938 376.712 335.57 376.84C335.954 376.92 336.254 376.996 336.47 377.068C336.694 377.132 336.926 377.236 337.166 377.38C337.406 377.516 337.582 377.7 337.694 377.932C337.806 378.164 337.862 378.452 337.862 378.796C337.862 379.404 337.638 379.872 337.19 380.2C336.742 380.52 336.15 380.68 335.414 380.68ZM341.562 380.668C340.642 380.668 339.91 380.36 339.366 379.744C338.83 379.12 338.562 378.34 338.562 377.404C338.562 376.484 338.834 375.712 339.378 375.088C339.93 374.456 340.638 374.14 341.502 374.14C342.414 374.14 343.118 374.46 343.614 375.1C344.11 375.732 344.358 376.576 344.358 377.632H339.558C339.598 378.288 339.79 378.824 340.134 379.24C340.486 379.648 340.962 379.852 341.562 379.852C342.49 379.852 343.062 379.428 343.278 378.58H344.226C344.082 379.244 343.778 379.76 343.314 380.128C342.85 380.488 342.266 380.668 341.562 380.668ZM342.798 375.436C342.486 375.084 342.054 374.908 341.502 374.908C340.95 374.908 340.51 375.092 340.182 375.46C339.862 375.828 339.662 376.308 339.582 376.9H343.314C343.282 376.276 343.11 375.788 342.798 375.436ZM345.308 380.5V374.296H346.28V375.184H346.304C346.504 374.872 346.764 374.624 347.084 374.44C347.404 374.248 347.752 374.152 348.128 374.152C348.936 374.152 349.476 374.52 349.748 375.256H349.772C349.964 374.912 350.232 374.644 350.576 374.452C350.92 374.252 351.284 374.152 351.668 374.152C352.236 374.152 352.692 374.328 353.036 374.68C353.38 375.024 353.552 375.512 353.552 376.144V380.5H352.58V376.192C352.58 375.816 352.468 375.52 352.244 375.304C352.028 375.08 351.76 374.968 351.44 374.968C351.032 374.968 350.676 375.128 350.372 375.448C350.068 375.768 349.916 376.164 349.916 376.636V380.5H348.944V376.192C348.944 375.816 348.844 375.52 348.644 375.304C348.452 375.08 348.196 374.968 347.876 374.968C347.476 374.968 347.108 375.132 346.772 375.46C346.444 375.78 346.28 376.172 346.28 376.636V380.5H345.308ZM357.788 380.68C356.964 380.68 356.312 380.348 355.832 379.684H355.808V380.5H354.836V371.92H355.808V375.184H355.832C356.336 374.496 357 374.152 357.824 374.152C358.624 374.152 359.264 374.444 359.744 375.028C360.224 375.604 360.464 376.4 360.464 377.416C360.464 378.416 360.224 379.212 359.744 379.804C359.272 380.388 358.62 380.68 357.788 380.68ZM357.716 379.864C358.292 379.864 358.728 379.644 359.024 379.204C359.32 378.756 359.468 378.164 359.468 377.428C359.468 376.7 359.32 376.112 359.024 375.664C358.728 375.208 358.296 374.98 357.728 374.98C357.08 374.98 356.588 375.212 356.252 375.676C355.916 376.132 355.748 376.716 355.748 377.428C355.748 378.156 355.916 378.744 356.252 379.192C356.588 379.64 357.076 379.864 357.716 379.864ZM361.469 380.5V371.92H362.441V380.5H361.469ZM366.453 380.668C365.533 380.668 364.801 380.36 364.257 379.744C363.721 379.12 363.453 378.34 363.453 377.404C363.453 376.484 363.725 375.712 364.269 375.088C364.821 374.456 365.529 374.14 366.393 374.14C367.305 374.14 368.009 374.46 368.505 375.1C369.001 375.732 369.249 376.576 369.249 377.632H364.449C364.489 378.288 364.681 378.824 365.025 379.24C365.377 379.648 365.853 379.852 366.453 379.852C367.381 379.852 367.953 379.428 368.169 378.58H369.117C368.973 379.244 368.669 379.76 368.205 380.128C367.741 380.488 367.157 380.668 366.453 380.668ZM367.689 375.436C367.377 375.084 366.945 374.908 366.393 374.908C365.841 374.908 365.401 375.092 365.073 375.46C364.753 375.828 364.553 376.308 364.473 376.9H368.205C368.173 376.276 368.001 375.788 367.689 375.436ZM372.599 380.68C371.751 380.68 371.079 380.388 370.583 379.804C370.095 379.212 369.851 378.416 369.851 377.416C369.851 376.408 370.107 375.612 370.619 375.028C371.131 374.444 371.783 374.152 372.575 374.152C373.415 374.152 374.063 374.492 374.519 375.172H374.543V371.92H375.515V380.5H374.543V379.744H374.519C374.031 380.368 373.391 380.68 372.599 380.68ZM372.635 379.864C373.299 379.864 373.791 379.644 374.111 379.204C374.439 378.764 374.603 378.172 374.603 377.428C374.603 376.692 374.427 376.1 374.075 375.652C373.731 375.204 373.247 374.98 372.623 374.98C372.055 374.98 371.615 375.208 371.303 375.664C370.999 376.112 370.847 376.7 370.847 377.428C370.847 378.156 370.999 378.744 371.303 379.192C371.615 379.64 372.059 379.864 372.635 379.864ZM378.742 380.5V374.296H379.714V380.5H378.742ZM378.742 373.12V371.92H379.714V373.12H378.742ZM382.011 374.296V375.112H382.035C382.515 374.472 383.171 374.152 384.003 374.152C384.659 374.152 385.171 374.324 385.539 374.668C385.907 375.012 386.091 375.504 386.091 376.144V380.5H385.119V376.228C385.119 375.828 384.995 375.52 384.747 375.304C384.499 375.08 384.155 374.968 383.715 374.968C383.219 374.968 382.811 375.128 382.491 375.448C382.171 375.768 382.011 376.18 382.011 376.684V380.5H381.039V374.296H382.011ZM391.941 380.668C391.037 380.668 390.309 380.356 389.757 379.732C389.213 379.108 388.941 378.332 388.941 377.404C388.941 376.476 389.213 375.7 389.757 375.076C390.309 374.452 391.037 374.14 391.941 374.14C392.669 374.14 393.265 374.336 393.729 374.728C394.193 375.112 394.481 375.636 394.593 376.3H393.609C393.537 375.876 393.357 375.544 393.069 375.304C392.781 375.064 392.405 374.944 391.941 374.944C391.301 374.944 390.805 375.176 390.453 375.64C390.109 376.104 389.937 376.692 389.937 377.404C389.937 378.116 390.109 378.704 390.453 379.168C390.805 379.624 391.301 379.852 391.941 379.852C392.437 379.852 392.833 379.72 393.129 379.456C393.425 379.184 393.593 378.804 393.633 378.316H394.593C394.529 379.06 394.265 379.64 393.801 380.056C393.337 380.464 392.717 380.668 391.941 380.668ZM396.484 371.92V375.112H396.508C396.988 374.472 397.644 374.152 398.476 374.152C399.132 374.152 399.644 374.324 400.012 374.668C400.38 375.012 400.564 375.504 400.564 376.144V380.5H399.592V376.228C399.592 375.828 399.468 375.52 399.22 375.304C398.972 375.08 398.628 374.968 398.188 374.968C397.692 374.968 397.284 375.128 396.964 375.448C396.644 375.768 396.484 376.18 396.484 376.684V380.5H395.512V371.92H396.484ZM401.851 380.5V374.296H402.823V380.5H401.851ZM401.851 373.12V371.92H402.823V373.12H401.851ZM405.12 374.296V375.112H405.144C405.624 374.472 406.28 374.152 407.112 374.152C407.768 374.152 408.28 374.324 408.648 374.668C409.016 375.012 409.2 375.504 409.2 376.144V380.5H408.228V376.228C408.228 375.828 408.104 375.52 407.856 375.304C407.608 375.08 407.264 374.968 406.824 374.968C406.328 374.968 405.92 375.128 405.6 375.448C405.28 375.768 405.12 376.18 405.12 376.684V380.5H404.148V374.296H405.12ZM415.36 380.56C414.744 380.56 414.388 380.252 414.292 379.636H414.28C413.768 380.292 413.08 380.62 412.216 380.62C411.6 380.62 411.096 380.472 410.704 380.176C410.312 379.88 410.116 379.452 410.116 378.892C410.116 378.604 410.16 378.356 410.248 378.148C410.344 377.932 410.464 377.76 410.608 377.632C410.752 377.496 410.948 377.38 411.196 377.284C411.452 377.18 411.696 377.104 411.928 377.056C412.16 377 412.456 376.944 412.816 376.888C413.048 376.856 413.212 376.832 413.308 376.816C413.412 376.792 413.544 376.76 413.704 376.72C413.864 376.672 413.976 376.62 414.04 376.564C414.104 376.508 414.164 376.432 414.22 376.336C414.276 376.24 414.304 376.128 414.304 376C414.304 375.648 414.18 375.38 413.932 375.196C413.692 375.004 413.352 374.908 412.912 374.908C411.912 374.908 411.396 375.364 411.364 376.276H410.428C410.444 375.644 410.66 375.136 411.076 374.752C411.5 374.368 412.108 374.176 412.9 374.176C414.428 374.176 415.192 374.832 415.192 376.144V379.096C415.192 379.368 415.236 379.56 415.324 379.672C415.42 379.784 415.596 379.812 415.852 379.756H415.888V380.464C415.728 380.528 415.552 380.56 415.36 380.56ZM412.432 379.876C413.032 379.876 413.496 379.704 413.824 379.36C414.152 379.008 414.316 378.624 414.316 378.208V377.152C414.02 377.336 413.548 377.488 412.9 377.608C412.66 377.656 412.472 377.696 412.336 377.728C412.2 377.752 412.044 377.8 411.868 377.872C411.692 377.936 411.56 378.008 411.472 378.088C411.384 378.168 411.308 378.276 411.244 378.412C411.18 378.54 411.148 378.692 411.148 378.868C411.148 379.54 411.576 379.876 412.432 379.876Z" fill="#846642"/>
<path d="M361.727 297.588V296.796H362.579V295.8C362.579 295.288 362.719 294.92 362.999 294.696C363.279 294.464 363.687 294.348 364.223 294.348C364.375 294.348 364.539 294.356 364.715 294.372V295.2C364.603 295.192 364.499 295.188 364.403 295.188C364.091 295.188 363.871 295.236 363.743 295.332C363.615 295.428 363.551 295.6 363.551 295.848V296.796H364.703V297.588H363.551V303H362.579V297.588H361.727ZM370.298 302.232C369.754 302.856 369.03 303.168 368.126 303.168C367.222 303.168 366.494 302.856 365.942 302.232C365.398 301.608 365.126 300.832 365.126 299.904C365.126 298.976 365.398 298.2 365.942 297.576C366.494 296.952 367.222 296.64 368.126 296.64C369.03 296.64 369.754 296.952 370.298 297.576C370.842 298.2 371.114 298.976 371.114 299.904C371.114 300.832 370.842 301.608 370.298 302.232ZM366.638 301.668C366.99 302.124 367.486 302.352 368.126 302.352C368.766 302.352 369.258 302.124 369.602 301.668C369.946 301.204 370.118 300.616 370.118 299.904C370.118 299.184 369.942 298.596 369.59 298.14C369.246 297.676 368.758 297.444 368.126 297.444C367.486 297.444 366.99 297.676 366.638 298.14C366.294 298.604 366.122 299.192 366.122 299.904C366.122 300.616 366.294 301.204 366.638 301.668ZM373.056 296.796V297.828H373.08C373.28 297.5 373.54 297.236 373.86 297.036C374.18 296.828 374.536 296.724 374.928 296.724C375.072 296.724 375.204 296.748 375.324 296.796V297.732H375.288C375.168 297.692 375.024 297.672 374.856 297.672C374.36 297.672 373.936 297.848 373.584 298.2C373.232 298.544 373.056 298.996 373.056 299.556V303H372.084V296.796H373.056Z" fill="#846642"/>
<path d="M280.684 377.126H283.98V362.894H280.684V371.312C280.684 373.341 279.402 374.552 277.296 374.552C275.068 374.552 274.305 373.038 274.305 371.312V362.894H271.008V372.19C271.008 375.249 272.321 377.52 275.77 377.52C278.181 377.52 280.012 376.278 280.653 373.22H280.684V377.126Z" fill="#846642"/>
<path d="M271 357.5H284V360.771H271V357.5Z" fill="#846642"/>
<path d="M385.808 282.227C380.912 285.107 374.468 286.559 368 286.559C361.532 286.559 355.088 285.107 350.192 282.227C345.295 279.346 342.941 275.63 342.941 272C342.941 268.37 345.295 264.654 350.192 261.773C355.088 258.893 361.532 257.441 368 257.441C374.468 257.441 380.912 258.893 385.808 261.773C390.705 264.654 393.059 268.37 393.059 272C393.059 275.63 390.705 279.346 385.808 282.227Z" stroke="#846642" stroke-width="0.881356"/>
<path d="M382.079 277.78V268.327H383.188V277.78H382.079ZM382.079 267.168V265.359H383.188V267.168H382.079Z" fill="#846642"/>
<path d="M369.106 277.78V268.327H370.167V271.006L370.215 271.029V277.78H369.106ZM374.344 271.68C374.344 271.13 374.271 270.675 374.124 270.315C373.977 269.952 373.762 269.681 373.479 269.504C373.196 269.327 372.852 269.239 372.446 269.239C372.056 269.239 371.693 269.358 371.357 269.596C371.02 269.831 370.747 270.2 370.536 270.704C370.327 271.208 370.221 271.842 370.215 272.605H369.454V270.984H369.879C369.996 270.406 370.179 269.903 370.428 269.472C370.676 269.042 370.988 268.707 371.365 268.469C371.744 268.228 372.176 268.107 372.662 268.107C373.258 268.107 373.765 268.254 374.184 268.547C374.603 268.837 374.918 269.24 375.129 269.756C375.343 270.269 375.45 270.86 375.45 271.529V277.78H374.344V271.68ZM379.579 271.68C379.579 271.13 379.505 270.675 379.359 270.315C379.214 269.952 379.001 269.681 378.718 269.504C378.437 269.327 378.092 269.239 377.68 269.239C377.285 269.239 376.92 269.358 376.583 269.596C376.247 269.831 375.974 270.2 375.766 270.704C375.561 271.208 375.455 271.842 375.45 272.605H374.681V271.167L374.965 271.153C375.083 270.558 375.272 270.031 375.534 269.573C375.798 269.115 376.131 268.756 376.531 268.497C376.932 268.237 377.384 268.107 377.889 268.107C378.489 268.107 378.999 268.249 379.419 268.533C379.84 268.817 380.157 269.216 380.368 269.729C380.581 270.242 380.688 270.842 380.688 271.529V277.78H379.579V271.68Z" fill="#846642"/>
<path d="M364.372 278C363.603 278 362.929 277.797 362.349 277.391C361.772 276.982 361.327 276.405 361.012 275.66C360.699 274.915 360.543 274.046 360.543 273.054C360.543 272.077 360.696 271.216 361.004 270.471C361.311 269.723 361.75 269.142 362.321 268.73C362.893 268.315 363.563 268.107 364.332 268.107C365.122 268.107 365.8 268.324 366.366 268.758C366.932 269.188 367.362 269.779 367.656 270.53C367.949 271.278 368.096 272.122 368.096 273.063C368.096 273.127 368.096 273.193 368.096 273.26C368.096 273.327 368.096 273.396 368.096 273.466H361.068V272.412H367.443L366.955 272.751C366.949 272.067 366.845 271.46 366.642 270.929C366.44 270.394 366.14 269.974 365.745 269.669C365.35 269.364 364.875 269.211 364.32 269.211C363.783 269.211 363.316 269.356 362.918 269.646C362.523 269.936 362.216 270.359 361.997 270.915C361.78 271.471 361.668 272.142 361.66 272.93V273.081C361.66 273.899 361.768 274.594 361.985 275.165C362.201 275.733 362.512 276.163 362.918 276.456C363.326 276.75 363.815 276.896 364.384 276.896C364.803 276.896 365.177 276.811 365.505 276.64C365.836 276.466 366.111 276.22 366.33 275.902C366.549 275.582 366.704 275.205 366.795 274.771H367.916C367.796 275.409 367.577 275.971 367.259 276.456C366.944 276.942 366.541 277.32 366.05 277.592C365.558 277.864 364.999 278 364.372 278Z" fill="#846642"/>
<path d="M358.414 271.694C358.414 271.144 358.333 270.688 358.17 270.324C358.007 269.958 357.772 269.686 357.465 269.509C357.158 269.329 356.783 269.239 356.34 269.239C355.921 269.239 355.528 269.356 355.162 269.591C354.797 269.823 354.499 270.182 354.269 270.668C354.042 271.153 353.926 271.759 353.921 272.486H353.148V270.979L353.56 270.984C353.678 270.425 353.875 269.93 354.153 269.5C354.431 269.066 354.779 268.726 355.198 268.479C355.618 268.231 356.086 268.108 356.604 268.108C357.213 268.108 357.735 268.24 358.17 268.506C358.608 268.772 358.942 269.162 359.171 269.678C359.404 270.191 359.52 270.813 359.52 271.542V277.78H358.414V271.694ZM352.812 277.78V264.737H353.921V277.78H352.812Z" fill="#846642"/>
<path d="M354.821 320.918C352.392 321.78 350.849 326.681 349.384 325.502C347.632 324.092 352.042 317.623 351.139 316.251C350.685 315.561 349.322 318.261 348.207 320.255C346.805 322.761 344.549 326.695 343.225 325.434C341.501 323.792 350.274 309.4 349.083 308.2C348.551 307.664 347.466 309.546 346.151 311.957L345.493 311.964C347.036 308.892 349.047 305.036 350.371 306.219C352.334 307.924 343.5 323 344.89 323.625C345.485 323.829 346.597 321.685 347.47 320.101C348.281 318.63 350.963 313.089 352.287 314.563C353.817 316.268 349.551 323.001 350.941 323.625C351.446 323.843 352.447 321.491 354.827 320.107L354.821 320.918Z" fill="#846642"/>
<path d="M384.701 328.306C384.853 328.309 385.004 328.311 385.153 328.311C385.302 328.311 385.449 328.311 385.595 328.311C385.953 328.311 386.261 328.247 386.519 328.119C386.776 327.991 386.992 327.808 387.168 327.57C387.348 327.334 387.505 327.037 387.641 326.677L388.29 324.958L388.25 326.244L383.945 314.946H385.473L387.823 321.404C388.03 321.992 388.228 322.559 388.417 323.103C388.607 323.647 388.795 324.2 388.981 324.762L388.57 324.777C388.769 324.138 388.964 323.526 389.153 322.942C389.343 322.357 389.517 321.839 389.676 321.389L391.946 314.946H393.454L389.037 326.879C388.8 327.517 388.529 328.025 388.224 328.401C387.923 328.781 387.563 329.058 387.143 329.233C386.727 329.411 386.221 329.5 385.625 329.5C385.476 329.5 385.32 329.497 385.158 329.49C384.999 329.484 384.847 329.475 384.701 329.465V328.306Z" fill="#846642"/>
<path d="M378.407 325.593C377.486 325.593 376.681 325.368 375.99 324.918C375.3 324.467 374.767 323.832 374.391 323.012C374.015 322.189 373.828 321.234 373.828 320.149C373.828 319.063 374.015 318.11 374.391 317.29C374.767 316.467 375.3 315.83 375.99 315.38C376.681 314.929 377.486 314.704 378.407 314.704C379.294 314.704 380.062 314.929 380.712 315.38C381.362 315.827 381.859 316.458 382.204 317.275C382.553 318.088 382.731 319.033 382.738 320.108V320.149C382.738 321.231 382.565 322.184 382.22 323.007C381.878 323.827 381.38 324.464 380.727 324.918C380.077 325.368 379.304 325.593 378.407 325.593ZM378.641 324.378C379.328 324.378 379.923 324.207 380.428 323.864C380.935 323.521 381.324 323.03 381.595 322.392C381.869 321.753 382.006 321.006 382.006 320.149C382.006 319.292 381.869 318.544 381.595 317.905C381.324 317.267 380.935 316.776 380.428 316.433C379.923 316.09 379.328 315.919 378.641 315.919C377.964 315.919 377.373 316.095 376.869 316.448C376.364 316.798 375.975 317.297 375.701 317.946C375.427 318.591 375.29 319.344 375.29 320.204C375.29 321.064 375.425 321.809 375.696 322.437C375.97 323.062 376.359 323.543 376.864 323.879C377.368 324.212 377.96 324.378 378.641 324.378ZM382.017 325.351V322.498H382.133V317.769H381.956V310.994H383.362V325.351H382.017Z" fill="#846642"/>
<path d="M364.027 325.351V314.946H365.372V317.895L365.433 317.92V325.351H364.027ZM371.129 318.651C371.129 318.046 371.026 317.544 370.819 317.144C370.613 316.741 370.315 316.442 369.926 316.247C369.537 316.048 369.061 315.949 368.499 315.949C367.968 315.949 367.47 316.079 367.007 316.337C366.543 316.593 366.166 316.988 365.875 317.522C365.587 318.057 365.44 318.724 365.433 319.524H364.453V317.87H364.976C365.125 317.255 365.375 316.711 365.727 316.237C366.079 315.759 366.521 315.385 367.052 315.112C367.584 314.84 368.178 314.704 368.834 314.704C369.606 314.704 370.268 314.85 370.819 315.143C371.375 315.435 371.798 315.865 372.089 316.433C372.383 316.998 372.53 317.682 372.53 318.485V325.351H371.129V318.651Z" fill="#846642"/>
<path d="M362.479 325.407C362.056 325.407 361.715 325.343 361.454 325.215C361.197 325.084 361.007 324.887 360.885 324.625C360.764 324.36 360.703 324.019 360.703 323.602L360.662 322.8V319.07V318.586V317.648C360.662 317.262 360.579 316.937 360.413 316.675C360.247 316.41 359.975 316.208 359.596 316.07C359.22 315.932 358.724 315.864 358.108 315.864C357.445 315.864 356.908 315.938 356.499 316.085C356.089 316.233 355.783 316.47 355.58 316.796C355.377 317.122 355.26 317.556 355.23 318.097H353.844C353.874 317.381 354.037 316.773 354.331 316.272C354.626 315.771 355.082 315.385 355.702 315.112C356.325 314.84 357.127 314.704 358.108 314.704C359.019 314.704 359.765 314.827 360.347 315.072C360.933 315.314 361.359 315.654 361.627 316.09C361.897 316.527 362.033 317.042 362.033 317.633V323.531C362.033 323.696 362.058 323.832 362.109 323.94C362.16 324.047 362.237 324.128 362.342 324.182C362.447 324.235 362.584 324.262 362.754 324.262C362.835 324.262 362.919 324.262 363.007 324.262C363.099 324.259 363.19 324.256 363.282 324.252V325.351C363.167 325.368 363.038 325.381 362.896 325.392C362.757 325.402 362.618 325.407 362.479 325.407ZM356.976 325.593C356.235 325.593 355.595 325.472 355.057 325.23C354.519 324.988 354.108 324.642 353.823 324.192C353.539 323.738 353.397 323.202 353.397 322.584C353.397 322.009 353.524 321.506 353.778 321.076C354.032 320.646 354.439 320.29 355.001 320.007C355.563 319.722 356.292 319.529 357.189 319.428L358.799 319.246C359.259 319.189 359.625 319.098 359.895 318.974C360.166 318.846 360.361 318.677 360.479 318.465C360.601 318.253 360.662 317.981 360.662 317.648L361.205 317.769C361.205 318.344 361.144 318.798 361.022 319.13C360.901 319.463 360.682 319.72 360.368 319.902C360.053 320.083 359.598 320.211 359.002 320.285L357.418 320.486C356.798 320.564 356.299 320.69 355.92 320.865C355.544 321.036 355.27 321.259 355.098 321.535C354.928 321.811 354.844 322.147 354.844 322.543C354.844 322.93 354.928 323.267 355.098 323.557C355.267 323.842 355.522 324.066 355.864 324.227C356.206 324.385 356.629 324.464 357.134 324.464C357.773 324.464 358.359 324.345 358.89 324.106C359.425 323.867 359.853 323.499 360.175 323.002C360.5 322.505 360.662 321.886 360.662 321.147H361.215V322.251C361.07 322.97 360.808 323.58 360.428 324.081C360.053 324.578 359.574 324.955 358.992 325.21C358.41 325.465 357.738 325.593 356.976 325.593Z" fill="#846642"/>
<path d="M463.884 374.048L463.884 374.046L463.884 374.038L463.884 374.037L463.884 374.036L463.884 374.036C463.878 373.333 463.326 372.75 462.626 372.75C461.927 372.75 461.375 373.331 461.367 374.032L461.367 374.034L461.367 374.034V374.039V374.787C461.19 374.335 460.781 374 460.25 374C459.891 374 459.605 374.157 459.415 374.41C459.232 374.656 459.149 374.976 459.149 375.304C459.149 375.304 459.149 375.304 459.149 375.304L459.149 381.686L457.984 380.476C457.977 380.468 457.969 380.461 457.962 380.453L457.945 380.436L457.945 380.436C457.935 380.425 457.925 380.416 457.914 380.407C457.693 380.205 457.401 380.081 457.08 380.081C456.376 380.081 455.821 380.671 455.821 381.378C455.821 381.703 455.937 382.001 456.13 382.229C456.138 382.241 456.148 382.253 456.159 382.263L459.393 385.622L462.263 388.671L462.337 388.75H462.445H465.284H465.392L465.466 388.671L468.253 385.701L468.321 385.628V385.529V380.341L468.321 380.339L468.321 380.335L468.321 380.335V380.331V376.867H468.321L468.321 376.862L468.321 376.86C468.321 376.86 468.321 376.859 468.321 376.859C468.317 376.54 468.243 376.212 468.075 375.955C467.9 375.688 467.622 375.5 467.25 375.5C466.726 375.5 466.293 375.829 466.103 376.285V375.191H466.103L466.103 375.186L466.103 375.184C466.103 375.183 466.103 375.183 466.103 375.183C466.094 374.483 465.543 373.902 464.844 373.902C464.485 373.902 464.202 374.063 464.015 374.317C463.964 374.387 463.92 374.463 463.884 374.544V374.056V374.056L463.884 374.048Z" stroke="#846642" stroke-width="0.5"/>
<g clip-path="url(#clip2_4228_8394)">
<path d="M456.103 362.873C456.384 358.476 459.723 354.917 463.75 354.917C467.737 354.917 471.051 358.407 471.389 362.744C471.413 363.058 471.202 363.347 470.883 363.432C464.817 365.049 458.935 364.39 456.482 363.479C456.238 363.388 456.085 363.146 456.103 362.873Z" stroke="#846642" stroke-width="0.5"/>
<path d="M456.667 361.333H455.127C454.575 361.333 454.127 361.781 454.127 362.333V364.5C454.127 365.052 453.679 365.5 453.127 365.5H450" stroke="#846642" stroke-width="0.5"/>
</g>
<defs>
<clipPath id="clip0_4228_8394">
<rect width="21.5625" height="17.9688" fill="white" transform="translate(373.734 439.5)"/>
</clipPath>
<clipPath id="clip1_4228_8394">
<rect width="22.2812" height="15.8125" fill="white" transform="translate(340.5 440)"/>
</clipPath>
<clipPath id="clip2_4228_8394">
<rect width="20" height="20" fill="white" transform="translate(452.5 350.5)"/>
</clipPath>
</defs>
</svg>
