<svg width="1472" height="1472" viewBox="0 0 1472 1472" fill="none" xmlns="http://www.w3.org/2000/svg">
<circle cx="736.512" cy="735.487" r="268.026" stroke="#CDC5B6" stroke-width="1.36022"/>
<circle cx="736" cy="734.977" r="295.153" stroke="#CDC5B6" stroke-width="1.36022"/>
<circle cx="736" cy="734.976" r="341.217" stroke="#CDC5B6" stroke-width="1.36022"/>
<circle opacity="0.8" cx="736.512" cy="735.488" r="406.218" stroke="#CDC5B6" stroke-width="1.36022"/>
<circle opacity="0.6" cx="736.512" cy="735.489" r="489.134" stroke="#CDC5B6" stroke-width="1.36022"/>
<circle opacity="0.4" cx="736.511" cy="735.487" r="586.38" stroke="#CDC5B6" stroke-width="1.36022"/>
<circle opacity="0.2" cx="736" cy="736" r="735.32" stroke="#CDC5B6" stroke-width="1.36022"/>
<path d="M985.5 736C985.5 873.795 873.795 985.5 736 985.5C598.205 985.5 486.5 873.795 486.5 736C486.5 598.205 598.205 486.5 736 486.5C873.795 486.5 985.5 598.205 985.5 736Z" stroke="#846642"/>
<g clip-path="url(#clip0_4386_7136)">
<path fill-rule="evenodd" clip-rule="evenodd" d="M780.475 884.27C777.739 883.394 774.793 883.404 772.062 884.298C769.332 885.192 766.959 886.924 765.286 889.243C763.612 891.563 762.725 894.35 762.753 897.202C762.78 900.054 763.721 902.824 765.439 905.111C767.157 907.398 769.563 909.084 772.31 909.926C775.058 910.768 778.003 910.722 780.722 909.794C783.441 908.867 785.792 907.106 787.436 904.766L790.267 906.723C788.204 909.658 785.255 911.867 781.844 913.031C778.433 914.194 774.738 914.252 771.292 913.196C767.846 912.14 764.828 910.025 762.673 907.156C760.518 904.287 759.338 900.813 759.303 897.235C759.268 893.657 760.381 890.161 762.48 887.251C764.579 884.342 767.556 882.17 770.981 881.048C774.406 879.927 778.102 879.914 781.534 881.013C784.967 882.111 787.958 884.263 790.077 887.159L787.285 889.17C785.596 886.861 783.211 885.146 780.475 884.27ZM778.232 891.169C776.97 890.765 775.612 890.77 774.353 891.182C773.093 891.594 771.999 892.393 771.227 893.462C770.456 894.532 770.047 895.817 770.059 897.132C770.072 898.448 770.506 899.725 771.298 900.78C772.09 901.834 773.2 902.612 774.467 903C775.734 903.388 777.092 903.367 778.346 902.939C779.6 902.512 780.684 901.7 781.442 900.62L784.272 902.578C783.096 904.252 781.413 905.512 779.468 906.176C777.522 906.84 775.414 906.873 773.449 906.27C771.483 905.668 769.761 904.461 768.532 902.825C767.302 901.188 766.629 899.206 766.61 897.165C766.59 895.124 767.225 893.13 768.422 891.47C769.619 889.811 771.318 888.571 773.271 887.932C775.225 887.292 777.333 887.285 779.291 887.912C781.249 888.538 782.956 889.766 784.164 891.418L781.372 893.428C780.594 892.364 779.494 891.573 778.232 891.169Z" stroke="#846642"/>
<path d="M759.026 895.257H751.935V883.917H760.345L762.932 880.495H748.485V913.226L751.935 910.942V898.68H759.026V895.257Z" stroke="#846642"/>
</g>
<g clip-path="url(#clip1_4386_7136)">
<path d="M698.007 907.353V911.087C697.643 911.112 697.279 911.125 696.915 911.125C692.826 911.125 688.905 909.511 686.014 906.639C683.123 903.767 681.5 899.873 681.5 895.812C681.5 891.752 683.123 887.858 686.014 884.986C688.905 882.114 692.826 880.5 696.915 880.5C697.279 880.5 697.643 880.513 698.007 880.538V884.272C697.642 884.246 697.276 884.236 696.91 884.244C693.826 884.245 690.867 885.463 688.685 887.631C686.502 889.8 685.275 892.743 685.275 895.812C685.275 898.882 686.502 901.825 688.685 903.994C690.867 906.162 693.826 907.38 696.91 907.381C697.276 907.389 697.642 907.379 698.007 907.353Z" stroke="#846642"/>
<path d="M721.879 893.941H713.088H712.466L712.6 893.333C713.169 890.756 714.607 888.45 716.676 886.797C718.742 885.145 721.314 884.245 723.966 884.244C724.332 884.236 724.698 884.246 725.062 884.272V880.538C724.699 880.513 724.335 880.5 723.971 880.5C719.882 880.5 715.96 882.114 713.07 884.986C710.179 887.858 708.556 891.752 708.556 895.812C708.556 899.873 710.179 903.767 713.07 906.639C715.96 909.511 719.882 911.125 723.971 911.125C724.335 911.125 724.699 911.112 725.062 911.087V907.353C724.698 907.379 724.332 907.389 723.966 907.381M721.879 893.941L723.971 906.881M721.879 893.941V897.684M721.879 893.941L722.379 897.684M723.966 907.381C723.964 907.381 723.962 907.381 723.96 907.381L723.971 906.881M723.966 907.381C723.967 907.381 723.969 907.381 723.971 907.381L723.971 906.881M723.966 907.381C721.314 907.38 718.742 906.48 716.676 904.828C714.607 903.175 713.169 900.869 712.6 898.292L712.466 897.684H713.088H721.879M723.971 906.881C721.431 906.881 718.967 906.019 716.988 904.437C715.143 902.963 713.823 900.947 713.211 898.684H713.088V898.184L713.576 898.077C713.584 898.113 713.593 898.148 713.601 898.184H721.879V897.684M721.879 897.684H722.379M722.379 897.684V893.941V897.684ZM725.062 906.851C725.229 906.839 725.396 906.822 725.562 906.802V907.306L725.062 906.851Z" stroke="#846642"/>
</g>
<path d="M610.538 736.36C608.842 736.36 607.498 735.776 606.506 734.608C605.53 733.424 605.042 731.832 605.042 729.832C605.042 727.816 605.554 726.224 606.578 725.056C607.602 723.888 608.906 723.304 610.49 723.304C612.17 723.304 613.466 723.984 614.378 725.344H614.426V718.84H616.37V736H614.426V734.488H614.378C613.402 735.736 612.122 736.36 610.538 736.36ZM610.61 734.728C611.938 734.728 612.922 734.288 613.562 733.408C614.218 732.528 614.546 731.344 614.546 729.856C614.546 728.384 614.194 727.2 613.49 726.304C612.802 725.408 611.834 724.96 610.586 724.96C609.45 724.96 608.57 725.416 607.946 726.328C607.338 727.224 607.034 728.4 607.034 729.856C607.034 731.312 607.338 732.488 607.946 733.384C608.57 734.28 609.458 734.728 610.61 734.728ZM624.308 736.336C622.468 736.336 621.004 735.72 619.916 734.488C618.844 733.24 618.308 731.68 618.308 729.808C618.308 727.968 618.852 726.424 619.94 725.176C621.044 723.912 622.46 723.28 624.188 723.28C626.012 723.28 627.42 723.92 628.412 725.2C629.404 726.464 629.9 728.152 629.9 730.264H620.3C620.38 731.576 620.764 732.648 621.452 733.48C622.156 734.296 623.108 734.704 624.308 734.704C626.164 734.704 627.308 733.856 627.74 732.16H629.636C629.348 733.488 628.74 734.52 627.812 735.256C626.884 735.976 625.716 736.336 624.308 736.336ZM626.78 725.872C626.156 725.168 625.292 724.816 624.188 724.816C623.084 724.816 622.204 725.184 621.548 725.92C620.908 726.656 620.508 727.616 620.348 728.8H627.812C627.748 727.552 627.404 726.576 626.78 725.872ZM636.504 736.36C634.808 736.36 633.488 735.984 632.544 735.232C631.616 734.464 631.104 733.376 631.008 731.968H633C633.224 733.808 634.408 734.728 636.552 734.728C637.528 734.728 638.248 734.544 638.712 734.176C639.192 733.792 639.432 733.296 639.432 732.688C639.432 732.032 639.2 731.56 638.736 731.272C638.272 730.984 637.424 730.712 636.192 730.456C635.68 730.344 635.272 730.256 634.968 730.192C634.68 730.112 634.328 730.008 633.912 729.88C633.496 729.736 633.168 729.584 632.928 729.424C632.704 729.248 632.472 729.04 632.232 728.8C631.992 728.56 631.816 728.264 631.704 727.912C631.608 727.56 631.56 727.168 631.56 726.736C631.56 725.68 631.944 724.848 632.712 724.24C633.496 723.632 634.6 723.328 636.024 723.328C638.968 723.328 640.592 724.624 640.896 727.216H638.904C638.808 726.4 638.528 725.808 638.064 725.44C637.6 725.056 636.904 724.864 635.976 724.864C635.128 724.864 634.496 725.032 634.08 725.368C633.68 725.688 633.48 726.112 633.48 726.64C633.48 727.248 633.72 727.68 634.2 727.936C634.68 728.176 635.552 728.424 636.816 728.68C637.584 728.84 638.184 728.992 638.616 729.136C639.064 729.264 639.528 729.472 640.008 729.76C640.488 730.032 640.84 730.4 641.064 730.864C641.288 731.328 641.4 731.904 641.4 732.592C641.4 733.808 640.952 734.744 640.056 735.4C639.16 736.04 637.976 736.36 636.504 736.36ZM643.261 736V723.592H645.205V736H643.261ZM643.261 721.24V718.84H645.205V721.24H643.261ZM652.799 740.128C651.215 740.128 649.967 739.824 649.055 739.216C648.159 738.624 647.655 737.784 647.543 736.696H649.343C649.519 737.96 650.655 738.592 652.751 738.592C655.119 738.592 656.303 737.528 656.303 735.4V733.648H656.255C655.759 734.288 655.231 734.768 654.671 735.088C654.111 735.408 653.415 735.568 652.583 735.568C650.983 735.568 649.679 734.992 648.671 733.84C647.663 732.688 647.159 731.216 647.159 729.424C647.159 727.552 647.663 726.064 648.671 724.96C649.695 723.856 650.959 723.304 652.463 723.304C654.095 723.304 655.359 723.928 656.255 725.176H656.303V723.592H658.247V735.328C658.247 736.912 657.759 738.104 656.783 738.904C655.823 739.72 654.495 740.128 652.799 740.128ZM652.679 733.936C655.191 733.936 656.447 732.4 656.447 729.328C656.447 726.4 655.183 724.936 652.655 724.936C651.519 724.936 650.647 725.344 650.039 726.16C649.447 726.976 649.151 728.072 649.151 729.448C649.151 730.824 649.455 731.92 650.063 732.736C650.671 733.536 651.543 733.936 652.679 733.936ZM662.83 723.592V725.224H662.878C663.838 723.944 665.15 723.304 666.814 723.304C668.126 723.304 669.15 723.648 669.886 724.336C670.622 725.024 670.99 726.008 670.99 727.288V736H669.046V727.456C669.046 726.656 668.798 726.04 668.302 725.608C667.806 725.16 667.118 724.936 666.238 724.936C665.246 724.936 664.43 725.256 663.79 725.896C663.15 726.536 662.83 727.36 662.83 728.368V736H660.886V723.592H662.83ZM678.87 736.336C677.03 736.336 675.566 735.72 674.478 734.488C673.406 733.24 672.87 731.68 672.87 729.808C672.87 727.968 673.414 726.424 674.502 725.176C675.606 723.912 677.022 723.28 678.75 723.28C680.574 723.28 681.982 723.92 682.974 725.2C683.966 726.464 684.462 728.152 684.462 730.264H674.862C674.942 731.576 675.326 732.648 676.014 733.48C676.718 734.296 677.67 734.704 678.87 734.704C680.726 734.704 681.87 733.856 682.302 732.16H684.198C683.91 733.488 683.302 734.52 682.374 735.256C681.446 735.976 680.278 736.336 678.87 736.336ZM681.342 725.872C680.718 725.168 679.854 724.816 678.75 724.816C677.646 724.816 676.766 725.184 676.11 725.92C675.47 726.656 675.07 727.616 674.91 728.8H682.374C682.31 727.552 681.966 726.576 681.342 725.872ZM691.163 736.36C689.467 736.36 688.123 735.776 687.131 734.608C686.155 733.424 685.667 731.832 685.667 729.832C685.667 727.816 686.179 726.224 687.203 725.056C688.227 723.888 689.531 723.304 691.115 723.304C692.795 723.304 694.091 723.984 695.003 725.344H695.051V718.84H696.995V736H695.051V734.488H695.003C694.027 735.736 692.747 736.36 691.163 736.36ZM691.235 734.728C692.563 734.728 693.547 734.288 694.187 733.408C694.843 732.528 695.171 731.344 695.171 729.856C695.171 728.384 694.819 727.2 694.115 726.304C693.427 725.408 692.459 724.96 691.211 724.96C690.075 724.96 689.195 725.416 688.571 726.328C687.963 727.224 687.659 728.4 687.659 729.856C687.659 731.312 687.963 732.488 688.571 733.384C689.195 734.28 690.083 734.728 691.235 734.728ZM709.353 736.36C707.705 736.36 706.401 735.696 705.441 734.368H705.393V736H703.449V718.84H705.393V725.368H705.441C706.449 723.992 707.777 723.304 709.425 723.304C711.025 723.304 712.305 723.888 713.265 725.056C714.225 726.208 714.705 727.8 714.705 729.832C714.705 731.832 714.225 733.424 713.265 734.608C712.321 735.776 711.017 736.36 709.353 736.36ZM709.209 734.728C710.361 734.728 711.233 734.288 711.825 733.408C712.417 732.512 712.713 731.328 712.713 729.856C712.713 728.4 712.417 727.224 711.825 726.328C711.233 725.416 710.369 724.96 709.233 724.96C707.937 724.96 706.953 725.424 706.281 726.352C705.609 727.264 705.273 728.432 705.273 729.856C705.273 731.312 705.609 732.488 706.281 733.384C706.953 734.28 707.929 734.728 709.209 734.728ZM717.994 740.104C717.258 740.104 716.674 740.016 716.242 739.84V738.112H716.338C716.658 738.288 717.098 738.376 717.658 738.376C718.09 738.376 718.45 738.264 718.738 738.04C719.026 737.832 719.282 737.44 719.506 736.864L719.986 735.64L715.138 723.592H717.25L720.178 731.32L721.018 733.744H721.066C721.354 732.816 721.626 732.008 721.882 731.32L724.714 723.592H726.778L721.474 737.008C720.994 738.224 720.498 739.04 719.986 739.456C719.474 739.888 718.81 740.104 717.994 740.104ZM741.812 736H739.868V734.296H739.82C738.844 735.624 737.596 736.288 736.076 736.288C734.796 736.288 733.78 735.928 733.028 735.208C732.276 734.472 731.9 733.464 731.9 732.184V723.592H733.844V732.136C733.844 732.936 734.084 733.56 734.564 734.008C735.06 734.456 735.748 734.68 736.628 734.68C737.604 734.68 738.388 734.352 738.98 733.696C739.572 733.04 739.868 732.216 739.868 731.224V723.592H741.812V736ZM746.385 723.592V725.224H746.433C747.393 723.944 748.705 723.304 750.369 723.304C751.681 723.304 752.705 723.648 753.441 724.336C754.177 725.024 754.545 726.008 754.545 727.288V736H752.601V727.456C752.601 726.656 752.353 726.04 751.857 725.608C751.361 725.16 750.673 724.936 749.793 724.936C748.801 724.936 747.985 725.256 747.345 725.896C746.705 726.536 746.385 727.36 746.385 728.368V736H744.441V723.592H746.385ZM761.921 736.36C760.225 736.36 758.881 735.776 757.889 734.608C756.913 733.424 756.425 731.832 756.425 729.832C756.425 727.816 756.937 726.224 757.961 725.056C758.985 723.888 760.289 723.304 761.873 723.304C763.553 723.304 764.849 723.984 765.761 725.344H765.809V718.84H767.753V736H765.809V734.488H765.761C764.785 735.736 763.505 736.36 761.921 736.36ZM761.993 734.728C763.321 734.728 764.305 734.288 764.945 733.408C765.601 732.528 765.929 731.344 765.929 729.856C765.929 728.384 765.577 727.2 764.873 726.304C764.185 725.408 763.217 724.96 761.969 724.96C760.833 724.96 759.953 725.416 759.329 726.328C758.721 727.224 758.417 728.4 758.417 729.856C758.417 731.312 758.721 732.488 759.329 733.384C759.953 734.28 760.841 734.728 761.993 734.728ZM775.69 736.336C773.85 736.336 772.386 735.72 771.298 734.488C770.226 733.24 769.69 731.68 769.69 729.808C769.69 727.968 770.234 726.424 771.322 725.176C772.426 723.912 773.842 723.28 775.57 723.28C777.394 723.28 778.802 723.92 779.794 725.2C780.786 726.464 781.282 728.152 781.282 730.264H771.682C771.762 731.576 772.146 732.648 772.834 733.48C773.538 734.296 774.49 734.704 775.69 734.704C777.546 734.704 778.69 733.856 779.122 732.16H781.018C780.73 733.488 780.122 734.52 779.194 735.256C778.266 735.976 777.098 736.336 775.69 736.336ZM778.162 725.872C777.538 725.168 776.674 724.816 775.57 724.816C774.466 724.816 773.586 725.184 772.93 725.92C772.29 726.656 771.89 727.616 771.73 728.8H779.194C779.13 727.552 778.786 726.576 778.162 725.872ZM785.127 723.592V725.656H785.175C785.575 725 786.095 724.472 786.735 724.072C787.375 723.656 788.087 723.448 788.871 723.448C789.159 723.448 789.423 723.496 789.663 723.592V725.464H789.591C789.351 725.384 789.063 725.344 788.727 725.344C787.735 725.344 786.887 725.696 786.183 726.4C785.479 727.088 785.127 727.992 785.127 729.112V736H783.183V723.592H785.127ZM795.23 736V723.592H797.174V736H795.23ZM795.23 721.24V718.84H797.174V721.24H795.23ZM801.768 723.592V725.224H801.816C802.776 723.944 804.088 723.304 805.752 723.304C807.064 723.304 808.088 723.648 808.824 724.336C809.56 725.024 809.928 726.008 809.928 727.288V736H807.984V727.456C807.984 726.656 807.736 726.04 807.24 725.608C806.744 725.16 806.056 724.936 805.176 724.936C804.184 724.936 803.368 725.256 802.728 725.896C802.088 726.536 801.768 727.36 801.768 728.368V736H799.824V723.592H801.768ZM816.324 736V723.592H818.268V736H816.324ZM816.324 721.24V718.84H818.268V721.24H816.324ZM825.622 736.36C823.926 736.36 822.606 735.984 821.662 735.232C820.734 734.464 820.222 733.376 820.126 731.968H822.118C822.342 733.808 823.526 734.728 825.67 734.728C826.646 734.728 827.366 734.544 827.83 734.176C828.31 733.792 828.55 733.296 828.55 732.688C828.55 732.032 828.318 731.56 827.854 731.272C827.39 730.984 826.542 730.712 825.31 730.456C824.798 730.344 824.39 730.256 824.086 730.192C823.798 730.112 823.446 730.008 823.03 729.88C822.614 729.736 822.286 729.584 822.046 729.424C821.822 729.248 821.59 729.04 821.35 728.8C821.11 728.56 820.934 728.264 820.822 727.912C820.726 727.56 820.678 727.168 820.678 726.736C820.678 725.68 821.062 724.848 821.83 724.24C822.614 723.632 823.718 723.328 825.142 723.328C828.086 723.328 829.71 724.624 830.014 727.216H828.022C827.926 726.4 827.646 725.808 827.182 725.44C826.718 725.056 826.022 724.864 825.094 724.864C824.246 724.864 823.614 725.032 823.198 725.368C822.798 725.688 822.598 726.112 822.598 726.64C822.598 727.248 822.838 727.68 823.318 727.936C823.798 728.176 824.67 728.424 825.934 728.68C826.702 728.84 827.302 728.992 827.734 729.136C828.182 729.264 828.646 729.472 829.126 729.76C829.606 730.032 829.958 730.4 830.182 730.864C830.406 731.328 830.518 731.904 830.518 732.592C830.518 733.808 830.07 734.744 829.174 735.4C828.278 736.04 827.094 736.36 825.622 736.36ZM834.323 723.592V725.656H834.371C834.771 725 835.291 724.472 835.931 724.072C836.571 723.656 837.283 723.448 838.067 723.448C838.355 723.448 838.619 723.496 838.859 723.592V725.464H838.787C838.547 725.384 838.259 725.344 837.923 725.344C836.931 725.344 836.083 725.696 835.379 726.4C834.675 727.088 834.323 727.992 834.323 729.112V736H832.379V723.592H834.323ZM849.88 736.12C848.648 736.12 847.936 735.504 847.744 734.272H847.72C846.696 735.584 845.32 736.24 843.592 736.24C842.36 736.24 841.352 735.944 840.568 735.352C839.784 734.76 839.392 733.904 839.392 732.784C839.392 732.208 839.48 731.712 839.656 731.296C839.848 730.864 840.088 730.52 840.376 730.264C840.664 729.992 841.056 729.76 841.552 729.568C842.064 729.36 842.552 729.208 843.016 729.112C843.48 729 844.072 728.888 844.792 728.776C845.256 728.712 845.584 728.664 845.776 728.632C845.984 728.584 846.248 728.52 846.568 728.44C846.888 728.344 847.112 728.24 847.24 728.128C847.368 728.016 847.488 727.864 847.6 727.672C847.712 727.48 847.768 727.256 847.768 727C847.768 726.296 847.52 725.76 847.024 725.392C846.544 725.008 845.864 724.816 844.984 724.816C842.984 724.816 841.952 725.728 841.888 727.552H840.016C840.048 726.288 840.48 725.272 841.312 724.504C842.16 723.736 843.376 723.352 844.96 723.352C848.016 723.352 849.544 724.664 849.544 727.288V733.192C849.544 733.736 849.632 734.12 849.808 734.344C850 734.568 850.352 734.624 850.864 734.512H850.936V735.928C850.616 736.056 850.264 736.12 849.88 736.12ZM844.024 734.752C845.224 734.752 846.152 734.408 846.808 733.72C847.464 733.016 847.792 732.248 847.792 731.416V729.304C847.2 729.672 846.256 729.976 844.96 730.216C844.48 730.312 844.104 730.392 843.832 730.456C843.56 730.504 843.248 730.6 842.896 730.744C842.544 730.872 842.28 731.016 842.104 731.176C841.928 731.336 841.776 731.552 841.648 731.824C841.52 732.08 841.456 732.384 841.456 732.736C841.456 734.08 842.312 734.752 844.024 734.752ZM857.675 736.336C855.835 736.336 854.371 735.72 853.283 734.488C852.211 733.24 851.675 731.68 851.675 729.808C851.675 727.968 852.219 726.424 853.307 725.176C854.411 723.912 855.827 723.28 857.555 723.28C859.379 723.28 860.787 723.92 861.779 725.2C862.771 726.464 863.267 728.152 863.267 730.264H853.667C853.747 731.576 854.131 732.648 854.819 733.48C855.523 734.296 856.475 734.704 857.675 734.704C859.531 734.704 860.675 733.856 861.107 732.16H863.003C862.715 733.488 862.107 734.52 861.179 735.256C860.251 735.976 859.083 736.336 857.675 736.336ZM860.147 725.872C859.523 725.168 858.659 724.816 857.555 724.816C856.451 724.816 855.571 725.184 854.915 725.92C854.275 726.656 853.875 727.616 853.715 728.8H861.179C861.115 727.552 860.771 726.576 860.147 725.872ZM865.24 736V718.84H867.184V736H865.24ZM652.173 762.12C650.941 762.12 650.229 761.504 650.037 760.272H650.013C648.989 761.584 647.613 762.24 645.885 762.24C644.653 762.24 643.645 761.944 642.861 761.352C642.077 760.76 641.685 759.904 641.685 758.784C641.685 758.208 641.773 757.712 641.949 757.296C642.141 756.864 642.381 756.52 642.669 756.264C642.957 755.992 643.349 755.76 643.845 755.568C644.357 755.36 644.845 755.208 645.309 755.112C645.773 755 646.365 754.888 647.085 754.776C647.549 754.712 647.877 754.664 648.069 754.632C648.277 754.584 648.541 754.52 648.861 754.44C649.181 754.344 649.405 754.24 649.533 754.128C649.661 754.016 649.781 753.864 649.893 753.672C650.005 753.48 650.061 753.256 650.061 753C650.061 752.296 649.813 751.76 649.317 751.392C648.837 751.008 648.157 750.816 647.277 750.816C645.277 750.816 644.245 751.728 644.181 753.552H642.309C642.341 752.288 642.773 751.272 643.605 750.504C644.453 749.736 645.669 749.352 647.253 749.352C650.309 749.352 651.837 750.664 651.837 753.288V759.192C651.837 759.736 651.925 760.12 652.101 760.344C652.293 760.568 652.645 760.624 653.157 760.512H653.229V761.928C652.909 762.056 652.557 762.12 652.173 762.12ZM646.317 760.752C647.517 760.752 648.445 760.408 649.101 759.72C649.757 759.016 650.085 758.248 650.085 757.416V755.304C649.493 755.672 648.549 755.976 647.253 756.216C646.773 756.312 646.397 756.392 646.125 756.456C645.853 756.504 645.541 756.6 645.189 756.744C644.837 756.872 644.573 757.016 644.397 757.176C644.221 757.336 644.069 757.552 643.941 757.824C643.813 758.08 643.749 758.384 643.749 758.736C643.749 760.08 644.605 760.752 646.317 760.752ZM659.368 762.36C657.672 762.36 656.352 761.984 655.408 761.232C654.48 760.464 653.968 759.376 653.872 757.968H655.864C656.088 759.808 657.272 760.728 659.416 760.728C660.392 760.728 661.112 760.544 661.576 760.176C662.056 759.792 662.296 759.296 662.296 758.688C662.296 758.032 662.064 757.56 661.6 757.272C661.136 756.984 660.288 756.712 659.056 756.456C658.544 756.344 658.136 756.256 657.832 756.192C657.544 756.112 657.192 756.008 656.776 755.88C656.36 755.736 656.032 755.584 655.792 755.424C655.568 755.248 655.336 755.04 655.096 754.8C654.856 754.56 654.68 754.264 654.568 753.912C654.472 753.56 654.424 753.168 654.424 752.736C654.424 751.68 654.808 750.848 655.576 750.24C656.36 749.632 657.464 749.328 658.888 749.328C661.832 749.328 663.456 750.624 663.76 753.216H661.768C661.672 752.4 661.392 751.808 660.928 751.44C660.464 751.056 659.768 750.864 658.84 750.864C657.992 750.864 657.36 751.032 656.944 751.368C656.544 751.688 656.344 752.112 656.344 752.64C656.344 753.248 656.584 753.68 657.064 753.936C657.544 754.176 658.416 754.424 659.68 754.68C660.448 754.84 661.048 754.992 661.48 755.136C661.928 755.264 662.392 755.472 662.872 755.76C663.352 756.032 663.704 756.4 663.928 756.864C664.152 757.328 664.264 757.904 664.264 758.592C664.264 759.808 663.816 760.744 662.92 761.4C662.024 762.04 660.84 762.36 659.368 762.36ZM670.829 762.36C669.133 762.36 667.813 761.984 666.869 761.232C665.941 760.464 665.429 759.376 665.333 757.968H667.325C667.549 759.808 668.733 760.728 670.877 760.728C671.853 760.728 672.573 760.544 673.037 760.176C673.517 759.792 673.757 759.296 673.757 758.688C673.757 758.032 673.525 757.56 673.061 757.272C672.597 756.984 671.749 756.712 670.517 756.456C670.005 756.344 669.597 756.256 669.293 756.192C669.005 756.112 668.653 756.008 668.237 755.88C667.821 755.736 667.493 755.584 667.253 755.424C667.029 755.248 666.797 755.04 666.557 754.8C666.317 754.56 666.141 754.264 666.029 753.912C665.933 753.56 665.885 753.168 665.885 752.736C665.885 751.68 666.269 750.848 667.037 750.24C667.821 749.632 668.925 749.328 670.349 749.328C673.293 749.328 674.917 750.624 675.221 753.216H673.229C673.133 752.4 672.853 751.808 672.389 751.44C671.925 751.056 671.229 750.864 670.301 750.864C669.453 750.864 668.821 751.032 668.405 751.368C668.005 751.688 667.805 752.112 667.805 752.64C667.805 753.248 668.045 753.68 668.525 753.936C669.005 754.176 669.877 754.424 671.141 754.68C671.909 754.84 672.509 754.992 672.941 755.136C673.389 755.264 673.853 755.472 674.333 755.76C674.813 756.032 675.165 756.4 675.389 756.864C675.613 757.328 675.725 757.904 675.725 758.592C675.725 759.808 675.277 760.744 674.381 761.4C673.485 762.04 672.301 762.36 670.829 762.36ZM683.124 762.336C681.284 762.336 679.82 761.72 678.732 760.488C677.66 759.24 677.124 757.68 677.124 755.808C677.124 753.968 677.668 752.424 678.756 751.176C679.86 749.912 681.276 749.28 683.004 749.28C684.828 749.28 686.236 749.92 687.228 751.2C688.22 752.464 688.716 754.152 688.716 756.264H679.116C679.196 757.576 679.58 758.648 680.268 759.48C680.972 760.296 681.924 760.704 683.124 760.704C684.98 760.704 686.124 759.856 686.556 758.16H688.452C688.164 759.488 687.556 760.52 686.628 761.256C685.7 761.976 684.532 762.336 683.124 762.336ZM685.596 751.872C684.972 751.168 684.108 750.816 683.004 750.816C681.9 750.816 681.02 751.184 680.364 751.92C679.724 752.656 679.324 753.616 679.164 754.8H686.628C686.564 753.552 686.22 752.576 685.596 751.872ZM690.617 762V749.592H692.561V751.368H692.609C693.009 750.744 693.529 750.248 694.169 749.88C694.809 749.496 695.505 749.304 696.257 749.304C697.873 749.304 698.953 750.04 699.497 751.512H699.545C699.929 750.824 700.465 750.288 701.153 749.904C701.841 749.504 702.569 749.304 703.337 749.304C704.473 749.304 705.385 749.656 706.073 750.36C706.761 751.048 707.105 752.024 707.105 753.288V762H705.161V753.384C705.161 752.632 704.937 752.04 704.489 751.608C704.057 751.16 703.521 750.936 702.881 750.936C702.065 750.936 701.353 751.256 700.745 751.896C700.137 752.536 699.833 753.328 699.833 754.272V762H697.889V753.384C697.889 752.632 697.689 752.04 697.289 751.608C696.905 751.16 696.393 750.936 695.753 750.936C694.953 750.936 694.217 751.264 693.545 751.92C692.889 752.56 692.561 753.344 692.561 754.272V762H690.617ZM715.576 762.36C713.928 762.36 712.624 761.696 711.664 760.368H711.616V762H709.672V744.84H711.616V751.368H711.664C712.672 749.992 714 749.304 715.648 749.304C717.248 749.304 718.528 749.888 719.488 751.056C720.448 752.208 720.928 753.8 720.928 755.832C720.928 757.832 720.448 759.424 719.488 760.608C718.544 761.776 717.24 762.36 715.576 762.36ZM715.432 760.728C716.584 760.728 717.456 760.288 718.048 759.408C718.64 758.512 718.936 757.328 718.936 755.856C718.936 754.4 718.64 753.224 718.048 752.328C717.456 751.416 716.592 750.96 715.456 750.96C714.16 750.96 713.176 751.424 712.504 752.352C711.832 753.264 711.496 754.432 711.496 755.856C711.496 757.312 711.832 758.488 712.504 759.384C713.176 760.28 714.152 760.728 715.432 760.728ZM722.939 762V744.84H724.883V762H722.939ZM732.905 762.336C731.065 762.336 729.601 761.72 728.513 760.488C727.441 759.24 726.905 757.68 726.905 755.808C726.905 753.968 727.449 752.424 728.537 751.176C729.641 749.912 731.057 749.28 732.785 749.28C734.609 749.28 736.017 749.92 737.009 751.2C738.001 752.464 738.497 754.152 738.497 756.264H728.897C728.977 757.576 729.361 758.648 730.049 759.48C730.753 760.296 731.705 760.704 732.905 760.704C734.761 760.704 735.905 759.856 736.337 758.16H738.233C737.945 759.488 737.337 760.52 736.409 761.256C735.481 761.976 734.313 762.336 732.905 762.336ZM735.377 751.872C734.753 751.168 733.889 750.816 732.785 750.816C731.681 750.816 730.801 751.184 730.145 751.92C729.505 752.656 729.105 753.616 728.945 754.8H736.409C736.345 753.552 736.001 752.576 735.377 751.872ZM745.198 762.36C743.502 762.36 742.158 761.776 741.166 760.608C740.19 759.424 739.702 757.832 739.702 755.832C739.702 753.816 740.214 752.224 741.238 751.056C742.262 749.888 743.566 749.304 745.15 749.304C746.83 749.304 748.126 749.984 749.038 751.344H749.086V744.84H751.03V762H749.086V760.488H749.038C748.062 761.736 746.782 762.36 745.198 762.36ZM745.27 760.728C746.598 760.728 747.582 760.288 748.222 759.408C748.878 758.528 749.206 757.344 749.206 755.856C749.206 754.384 748.854 753.2 748.15 752.304C747.462 751.408 746.494 750.96 745.246 750.96C744.11 750.96 743.23 751.416 742.606 752.328C741.998 753.224 741.694 754.4 741.694 755.856C741.694 757.312 741.998 758.488 742.606 759.384C743.23 760.28 744.118 760.728 745.27 760.728ZM757.484 762V749.592H759.428V762H757.484ZM757.484 747.24V744.84H759.428V747.24H757.484ZM764.022 749.592V751.224H764.07C765.03 749.944 766.342 749.304 768.006 749.304C769.318 749.304 770.342 749.648 771.078 750.336C771.814 751.024 772.182 752.008 772.182 753.288V762H770.238V753.456C770.238 752.656 769.99 752.04 769.494 751.608C768.998 751.16 768.31 750.936 767.43 750.936C766.438 750.936 765.622 751.256 764.982 751.896C764.342 752.536 764.022 753.36 764.022 754.368V762H762.078V749.592H764.022ZM783.882 762.336C782.074 762.336 780.618 761.712 779.514 760.464C778.426 759.216 777.882 757.664 777.882 755.808C777.882 753.952 778.426 752.4 779.514 751.152C780.618 749.904 782.074 749.28 783.882 749.28C785.338 749.28 786.53 749.672 787.458 750.456C788.386 751.224 788.962 752.272 789.186 753.6H787.218C787.074 752.752 786.714 752.088 786.138 751.608C785.562 751.128 784.81 750.888 783.882 750.888C782.602 750.888 781.61 751.352 780.906 752.28C780.218 753.208 779.874 754.384 779.874 755.808C779.874 757.232 780.218 758.408 780.906 759.336C781.61 760.248 782.602 760.704 783.882 760.704C784.874 760.704 785.666 760.44 786.258 759.912C786.85 759.368 787.186 758.608 787.266 757.632H789.186C789.058 759.12 788.53 760.28 787.602 761.112C786.674 761.928 785.434 762.336 783.882 762.336ZM792.967 744.84V751.224H793.015C793.975 749.944 795.287 749.304 796.951 749.304C798.263 749.304 799.287 749.648 800.023 750.336C800.759 751.024 801.127 752.008 801.127 753.288V762H799.183V753.456C799.183 752.656 798.935 752.04 798.439 751.608C797.943 751.16 797.255 750.936 796.375 750.936C795.383 750.936 794.567 751.256 793.927 751.896C793.287 752.536 792.967 753.36 792.967 754.368V762H791.023V744.84H792.967ZM803.703 762V749.592H805.647V762H803.703ZM803.703 747.24V744.84H805.647V747.24H803.703ZM810.241 749.592V751.224H810.289C811.249 749.944 812.561 749.304 814.225 749.304C815.537 749.304 816.561 749.648 817.297 750.336C818.033 751.024 818.401 752.008 818.401 753.288V762H816.457V753.456C816.457 752.656 816.209 752.04 815.713 751.608C815.217 751.16 814.529 750.936 813.649 750.936C812.657 750.936 811.841 751.256 811.201 751.896C810.561 752.536 810.241 753.36 810.241 754.368V762H808.297V749.592H810.241ZM830.72 762.12C829.488 762.12 828.776 761.504 828.584 760.272H828.56C827.536 761.584 826.16 762.24 824.432 762.24C823.2 762.24 822.192 761.944 821.408 761.352C820.624 760.76 820.232 759.904 820.232 758.784C820.232 758.208 820.32 757.712 820.496 757.296C820.688 756.864 820.928 756.52 821.216 756.264C821.504 755.992 821.896 755.76 822.392 755.568C822.904 755.36 823.392 755.208 823.856 755.112C824.32 755 824.912 754.888 825.632 754.776C826.096 754.712 826.424 754.664 826.616 754.632C826.824 754.584 827.088 754.52 827.408 754.44C827.728 754.344 827.952 754.24 828.08 754.128C828.208 754.016 828.328 753.864 828.44 753.672C828.552 753.48 828.608 753.256 828.608 753C828.608 752.296 828.36 751.76 827.864 751.392C827.384 751.008 826.704 750.816 825.824 750.816C823.824 750.816 822.792 751.728 822.728 753.552H820.856C820.888 752.288 821.32 751.272 822.152 750.504C823 749.736 824.216 749.352 825.8 749.352C828.856 749.352 830.384 750.664 830.384 753.288V759.192C830.384 759.736 830.472 760.12 830.648 760.344C830.84 760.568 831.192 760.624 831.704 760.512H831.776V761.928C831.456 762.056 831.104 762.12 830.72 762.12ZM824.864 760.752C826.064 760.752 826.992 760.408 827.648 759.72C828.304 759.016 828.632 758.248 828.632 757.416V755.304C828.04 755.672 827.096 755.976 825.8 756.216C825.32 756.312 824.944 756.392 824.672 756.456C824.4 756.504 824.088 756.6 823.736 756.744C823.384 756.872 823.12 757.016 822.944 757.176C822.768 757.336 822.616 757.552 822.488 757.824C822.36 758.08 822.296 758.384 822.296 758.736C822.296 760.08 823.152 760.752 824.864 760.752Z" fill="#846642"/>
<path d="M721.954 596.176V594.592H723.658V592.6C723.658 591.576 723.938 590.84 724.498 590.392C725.058 589.928 725.874 589.696 726.946 589.696C727.25 589.696 727.578 589.712 727.93 589.744V591.4C727.706 591.384 727.498 591.376 727.306 591.376C726.682 591.376 726.242 591.472 725.986 591.664C725.73 591.856 725.602 592.2 725.602 592.696V594.592H727.906V596.176H725.602V607H723.658V596.176H721.954ZM739.097 605.464C738.009 606.712 736.561 607.336 734.753 607.336C732.945 607.336 731.489 606.712 730.385 605.464C729.297 604.216 728.753 602.664 728.753 600.808C728.753 598.952 729.297 597.4 730.385 596.152C731.489 594.904 732.945 594.28 734.753 594.28C736.561 594.28 738.009 594.904 739.097 596.152C740.185 597.4 740.729 598.952 740.729 600.808C740.729 602.664 740.185 604.216 739.097 605.464ZM731.777 604.336C732.481 605.248 733.473 605.704 734.753 605.704C736.033 605.704 737.017 605.248 737.705 604.336C738.393 603.408 738.737 602.232 738.737 600.808C738.737 599.368 738.385 598.192 737.681 597.28C736.993 596.352 736.017 595.888 734.753 595.888C733.473 595.888 732.481 596.352 731.777 597.28C731.089 598.208 730.745 599.384 730.745 600.808C730.745 602.232 731.089 603.408 731.777 604.336ZM744.612 594.592V596.656H744.66C745.06 596 745.58 595.472 746.22 595.072C746.86 594.656 747.572 594.448 748.356 594.448C748.644 594.448 748.908 594.496 749.148 594.592V596.464H749.076C748.836 596.384 748.548 596.344 748.212 596.344C747.22 596.344 746.372 596.696 745.668 597.4C744.964 598.088 744.612 598.992 744.612 600.112V607H742.668V594.592H744.612Z" fill="#846642"/>
<path d="M561.368 754.252H567.96V725.789H561.368V742.625C561.368 746.682 558.804 749.105 554.592 749.105C550.136 749.105 548.609 746.077 548.609 742.625V725.789H542.017V744.381C542.017 750.498 544.642 755.04 551.54 755.04C556.362 755.04 560.025 752.557 561.306 746.44H561.368V754.252Z" fill="#846642"/>
<path d="M542 715H568V721.542H542V715Z" fill="#846642"/>
<path d="M770.003 565.907C760.531 570.824 748.045 573.311 735.5 573.311C722.955 573.311 710.469 570.824 700.997 565.907C691.498 560.976 687.082 554.691 687.082 548.697C687.082 542.703 691.498 536.418 700.997 531.487C710.469 526.569 722.955 524.082 735.5 524.082C748.045 524.082 760.531 526.569 770.003 531.487C779.502 536.418 783.918 542.703 783.918 548.697C783.918 554.691 779.502 560.976 770.003 565.907Z" stroke="#846642" stroke-width="2.16393"/>
<path d="M762.83 558.599V542.405H764.984V558.599H762.83ZM762.83 540.42V537.321H764.984V540.42H762.83Z" fill="#846642"/>
<path d="M737.647 558.599V542.405H739.707V546.995L739.8 547.034V558.599H737.647ZM747.815 548.148C747.815 547.207 747.673 546.427 747.388 545.81C747.103 545.188 746.685 544.725 746.136 544.421C745.587 544.118 744.918 543.966 744.13 543.966C743.374 543.966 742.669 544.17 742.016 544.578C741.363 544.981 740.831 545.614 740.422 546.477C740.018 547.34 739.81 548.425 739.8 549.733H738.323V546.956H739.147C739.375 545.967 739.73 545.104 740.212 544.366C740.694 543.629 741.3 543.056 742.031 542.648C742.767 542.235 743.607 542.028 744.55 542.028C745.706 542.028 746.691 542.28 747.504 542.782C748.318 543.279 748.93 543.969 749.339 544.853C749.754 545.732 749.961 546.744 749.961 547.889V558.599H747.815V548.148ZM757.976 548.148C757.976 547.207 757.834 546.427 757.549 545.81C757.269 545.188 756.854 544.725 756.305 544.421C755.761 544.118 755.089 543.966 754.291 543.966C753.524 543.966 752.814 544.17 752.161 544.578C751.508 544.981 750.979 545.614 750.575 546.477C750.176 547.34 749.971 548.425 749.961 549.733H748.468V547.269L749.02 547.246C749.248 546.226 749.616 545.324 750.124 544.539C750.637 543.755 751.283 543.14 752.06 542.695C752.837 542.251 753.716 542.028 754.695 542.028C755.862 542.028 756.852 542.272 757.665 542.758C758.484 543.245 759.098 543.927 759.508 544.806C759.922 545.685 760.13 546.712 760.13 547.889V558.599H757.976V548.148Z" fill="#846642"/>
<path d="M728.457 558.975C726.964 558.975 725.656 558.627 724.531 557.932C723.412 557.231 722.546 556.242 721.934 554.966C721.328 553.69 721.025 552.202 721.025 550.502C721.025 548.828 721.323 547.353 721.919 546.077C722.515 544.795 723.368 543.802 724.477 543.095C725.586 542.384 726.887 542.028 728.379 542.028C729.913 542.028 731.23 542.4 732.329 543.143C733.427 543.88 734.262 544.892 734.832 546.179C735.402 547.46 735.687 548.907 735.687 550.518C735.687 550.627 735.687 550.74 735.687 550.855C735.687 550.97 735.687 551.088 735.687 551.208H722.043V549.403H734.42L733.471 549.984C733.461 548.812 733.259 547.772 732.865 546.861C732.471 545.946 731.891 545.227 731.124 544.704C730.357 544.181 729.434 543.919 728.356 543.919C727.314 543.919 726.407 544.168 725.635 544.665C724.868 545.162 724.272 545.886 723.847 546.838C723.427 547.79 723.209 548.941 723.194 550.29V550.549C723.194 551.951 723.404 553.141 723.824 554.119C724.243 555.092 724.847 555.829 725.635 556.331C726.428 556.833 727.376 557.084 728.48 557.084C729.294 557.084 730.02 556.938 730.657 556.645C731.3 556.347 731.834 555.926 732.259 555.382C732.684 554.833 732.984 554.187 733.16 553.444H735.337C735.104 554.537 734.679 555.5 734.062 556.331C733.451 557.163 732.668 557.811 731.714 558.277C730.761 558.743 729.675 558.975 728.457 558.975Z" fill="#846642"/>
<path d="M716.893 548.172C716.893 547.23 716.735 546.448 716.418 545.826C716.102 545.198 715.646 544.733 715.05 544.429C714.454 544.121 713.726 543.966 712.866 543.966C712.052 543.966 711.29 544.168 710.58 544.571C709.87 544.968 709.292 545.583 708.846 546.414C708.406 547.246 708.18 548.284 708.17 549.529H706.67V546.948L707.47 546.956C707.698 545.998 708.082 545.151 708.621 544.414C709.16 543.671 709.836 543.088 710.65 542.664C711.464 542.24 712.373 542.029 713.379 542.029C714.56 542.029 715.574 542.256 716.418 542.711C717.268 543.166 717.916 543.836 718.362 544.72C718.813 545.598 719.038 546.663 719.038 547.913V558.599H716.893V548.172ZM706.016 558.599V536.254H708.17V558.599H706.016Z" fill="#846642"/>
<path d="M708.642 641.836C703.784 643.559 700.699 653.361 697.768 651.003C694.264 648.184 703.084 635.247 701.278 632.503C700.37 631.121 697.645 636.521 695.413 640.51C692.609 645.522 688.098 653.389 685.451 650.869C682.002 647.584 699.549 618.801 697.165 616.4C696.102 615.329 693.931 619.091 691.302 623.914L689.985 623.928C693.072 617.783 697.094 610.071 699.742 612.438C703.668 615.848 686 646 688.78 647.249C689.97 647.658 692.195 643.369 693.94 640.202C695.562 637.26 700.927 626.178 703.574 629.126C706.635 632.536 698.103 646.003 700.882 647.249C701.892 647.686 703.894 642.982 708.653 640.214L708.642 641.836Z" fill="#846642"/>
<path d="M768.402 656.61C768.707 656.617 769.008 656.621 769.306 656.621C769.604 656.621 769.898 656.621 770.189 656.621C770.907 656.621 771.523 656.493 772.037 656.237C772.552 655.982 772.985 655.616 773.337 655.138C773.696 654.668 774.01 654.073 774.281 653.354L775.581 649.916L775.5 652.487L766.889 629.892H769.946L774.647 642.808C775.06 643.984 775.456 645.116 775.835 646.205C776.214 647.294 776.589 648.4 776.962 649.522L776.139 649.553C776.539 648.276 776.928 647.052 777.307 645.883C777.686 644.713 778.035 643.678 778.353 642.777L782.892 629.892H785.907L777.073 653.757C776.6 655.034 776.058 656.049 775.449 656.802C774.846 657.562 774.126 658.116 773.286 658.466C772.454 658.822 771.442 659 770.25 659C769.952 659 769.641 658.993 769.316 658.98C768.998 658.966 768.693 658.95 768.402 658.929V656.61Z" fill="#846642"/>
<path d="M755.814 651.186C753.973 651.186 752.362 650.736 750.981 649.835C749.6 648.934 748.534 647.664 747.783 646.024C747.031 644.377 746.656 642.468 746.656 640.297C746.656 638.126 747.031 636.22 747.783 634.58C748.534 632.933 749.6 631.66 750.981 630.759C752.362 629.858 753.973 629.408 755.814 629.408C757.588 629.408 759.124 629.858 760.424 630.759C761.724 631.653 762.719 632.917 763.409 634.55C764.106 636.177 764.462 638.065 764.475 640.216V640.297C764.475 642.461 764.13 644.367 763.44 646.014C762.756 647.654 761.761 648.928 760.454 649.835C759.155 650.736 757.608 651.186 755.814 651.186ZM756.281 648.756C757.655 648.756 758.847 648.413 759.855 647.728C760.871 647.042 761.649 646.061 762.191 644.784C762.739 643.507 763.013 642.011 763.013 640.297C763.013 638.583 762.739 637.087 762.191 635.81C761.649 634.533 760.871 633.552 759.855 632.866C758.847 632.181 757.655 631.838 756.281 631.838C754.927 631.838 753.746 632.191 752.738 632.896C751.729 633.595 750.951 634.594 750.402 635.891C749.854 637.181 749.58 638.687 749.58 640.408C749.58 642.129 749.851 643.617 750.392 644.874C750.94 646.125 751.719 647.086 752.727 647.758C753.736 648.423 754.921 648.756 756.281 648.756ZM763.033 650.702V644.995H763.267V635.538H762.912V621.987H765.724V650.702H763.033Z" fill="#846642"/>
<path d="M727.053 650.702V629.892H729.744V635.79L729.866 635.841V650.702H727.053ZM741.258 637.303C741.258 636.093 741.052 635.088 740.639 634.288C740.226 633.481 739.63 632.883 738.852 632.493C738.074 632.097 737.122 631.898 735.999 631.898C734.936 631.898 733.941 632.157 733.014 632.675C732.086 633.186 731.331 633.975 730.749 635.044C730.174 636.113 729.879 637.447 729.866 639.047H727.906V635.74H728.952C729.25 634.51 729.751 633.421 730.455 632.473C731.159 631.519 732.042 630.769 733.105 630.225C734.168 629.68 735.356 629.408 736.669 629.408C738.212 629.408 739.536 629.7 740.639 630.285C741.749 630.87 742.595 631.73 743.177 632.866C743.766 633.995 744.061 635.363 744.061 636.97V650.702H741.258V637.303Z" fill="#846642"/>
<path d="M723.959 650.813C723.113 650.813 722.429 650.685 721.908 650.43C721.394 650.168 721.015 649.775 720.771 649.25C720.527 648.719 720.405 648.037 720.405 647.204L720.324 645.6V638.139V637.171V635.296C720.324 634.523 720.158 633.875 719.827 633.35C719.495 632.819 718.95 632.416 718.192 632.14C717.44 631.865 716.449 631.727 715.217 631.727C713.89 631.727 712.817 631.875 711.998 632.171C711.179 632.466 710.566 632.94 710.16 633.592C709.754 634.244 709.52 635.111 709.46 636.193H706.688C706.749 634.762 707.073 633.545 707.662 632.544C708.251 631.542 709.165 630.769 710.404 630.225C711.649 629.68 713.254 629.408 715.217 629.408C717.038 629.408 718.53 629.653 719.695 630.144C720.866 630.628 721.719 631.307 722.253 632.181C722.795 633.054 723.066 634.083 723.066 635.266V647.062C723.066 647.392 723.116 647.664 723.218 647.879C723.319 648.094 723.475 648.255 723.685 648.363C723.895 648.471 724.169 648.524 724.507 648.524C724.67 648.524 724.839 648.524 725.015 648.524C725.198 648.518 725.381 648.511 725.563 648.504V650.702C725.333 650.736 725.076 650.763 724.792 650.783C724.514 650.803 724.237 650.813 723.959 650.813ZM712.952 651.186C711.47 651.186 710.191 650.944 709.114 650.46C708.038 649.976 707.216 649.284 706.647 648.383C706.078 647.476 705.794 646.404 705.794 645.167C705.794 644.017 706.048 643.013 706.556 642.152C707.063 641.292 707.879 640.579 709.003 640.015C710.126 639.443 711.585 639.057 713.379 638.855L716.598 638.492C717.518 638.378 718.249 638.197 718.791 637.948C719.332 637.692 719.722 637.353 719.959 636.929C720.202 636.506 720.324 635.962 720.324 635.296L721.411 635.538C721.411 636.688 721.289 637.595 721.045 638.26C720.801 638.926 720.365 639.44 719.735 639.803C719.106 640.166 718.195 640.421 717.004 640.569L713.836 640.973C712.597 641.127 711.599 641.379 710.84 641.729C710.089 642.072 709.541 642.519 709.196 643.07C708.857 643.621 708.688 644.293 708.688 645.086C708.688 645.859 708.857 646.535 709.196 647.113C709.534 647.684 710.045 648.131 710.729 648.454C711.412 648.77 712.259 648.928 713.267 648.928C714.547 648.928 715.718 648.689 716.78 648.212C717.85 647.735 718.706 646.999 719.349 646.004C719.999 645.009 720.324 643.772 720.324 642.293H721.431V644.501C721.14 645.94 720.615 647.16 719.857 648.161C719.106 649.156 718.148 649.909 716.983 650.42C715.819 650.931 714.476 651.186 712.952 651.186Z" fill="#846642"/>
<path d="M927.769 748.096L927.769 748.093L927.769 748.076L927.769 748.074L927.768 748.072L927.768 748.072C927.757 746.667 926.652 745.5 925.252 745.5C923.855 745.5 922.753 746.661 922.735 748.061L922.735 748.067L922.735 748.067V748.078V749.575C922.38 748.669 921.563 748 920.5 748C919.782 748 919.21 748.315 918.831 748.821C918.464 749.311 918.299 749.952 918.299 750.608C918.299 750.608 918.299 750.608 918.299 750.608L918.298 763.372L915.968 760.952C915.953 760.937 915.938 760.921 915.923 760.906L915.89 760.871L915.89 760.871C915.871 760.851 915.85 760.832 915.828 760.815C915.386 760.411 914.802 760.162 914.16 760.162C912.752 760.162 911.643 761.342 911.643 762.757C911.643 763.405 911.874 764.001 912.259 764.458C912.277 764.482 912.296 764.505 912.317 764.527L918.785 771.244L924.525 777.343L924.673 777.5H924.889H930.568H930.784L930.932 777.342L936.507 771.401L936.643 771.257V771.059V760.681L936.643 760.678L936.643 760.671L936.643 760.671V760.663V753.734H936.643L936.643 753.723L936.643 753.72C936.643 753.719 936.643 753.718 936.643 753.717C936.635 753.081 936.487 752.424 936.149 751.909C935.8 751.375 935.245 751 934.5 751C933.452 751 932.585 751.657 932.206 752.569V750.383H932.206L932.206 750.372L932.206 750.368C932.206 750.367 932.206 750.366 932.206 750.365C932.188 748.965 931.086 747.804 929.689 747.804C928.97 747.804 928.403 748.126 928.03 748.633C927.927 748.774 927.84 748.926 927.769 749.087V748.112V748.111L927.769 748.096Z" stroke="#846642"/>
<g clip-path="url(#clip2_4386_7136)">
<path d="M912.205 725.746C912.768 716.952 919.446 709.833 927.5 709.833C935.475 709.833 942.101 716.813 942.777 725.488C942.826 726.116 942.404 726.694 941.766 726.864C929.633 730.097 917.869 728.78 912.964 726.957C912.477 726.776 912.17 726.291 912.205 725.746Z" stroke="#846642"/>
<path d="M913.333 722.667H910.254C909.149 722.667 908.254 723.562 908.254 724.667V729C908.254 730.105 907.359 731 906.254 731H900" stroke="#846642"/>
</g>
<defs>
<clipPath id="clip0_4386_7136">
<rect width="43.125" height="35.9375" fill="white" transform="translate(747.469 879)"/>
</clipPath>
<clipPath id="clip1_4386_7136">
<rect width="44.5625" height="31.625" fill="white" transform="translate(681 880)"/>
</clipPath>
<clipPath id="clip2_4386_7136">
<rect width="40" height="40" fill="white" transform="translate(905 701)"/>
</clipPath>
</defs>
</svg>
